STARTFONT 2.1
COMMENT
COMMENT Converted from OpenType font "Q:\font stuff\winfont\DejaVuSans.ttf" by "otf2bdf 3.0".
COMMENT
FONT -FreeType-DejaVu Sans-Medium-R-Normal--36-360-72-72-P-202-ISO10646-1
SIZE 36 72 72
FONTBOUNDINGBOX 98 52 -37 -14
STARTPROPERTIES 19
FOUNDRY "FreeType"
FAMILY_NAME "DejaVu Sans"
WEIGHT_NAME "Medium"
SLANT "R"
SETWIDTH_NAME "Normal"
ADD_STYLE_NAME ""
PIXEL_SIZE 36
POINT_SIZE 360
RESOLUTION_X 72
RESOLUTION_Y 72
SPACING "P"
AVERAGE_WIDTH 202
CHARSET_REGISTRY "ISO10646"
CHARSET_ENCODING "1"
FONT_ASCENT 33
FONT_DESCENT 8
COPYRIGHT "Copyright (c) 2003 by Bitstream, Inc. All Rights Reserved.  Copyright (c) 2006 by Tavmjong Bah. All Rights Reserved.  DejaVu changes are in public domain  "
_OTF_FONTFILE "Q:\font stuff\winfont\DejaVuSans.ttf"
_OTF_PSNAME "DejaVuSans"
ENDPROPERTIES
CHARS 5180
STARTCHAR 0020
ENCODING 32
SWIDTH 305 0
DWIDTH 11 0
BBX 0 0 0 0
BITMAP
ENDCHAR
STARTCHAR 0021
ENCODING 33
SWIDTH 388 0
DWIDTH 14 0
BBX 4 26 5 0
BITMAP
F0
F0
F0
F0
F0
F0
F0
F0
F0
F0
F0
F0
F0
F0
F0
F0
F0
F0
00
00
00
00
F0
F0
F0
F0
ENDCHAR
STARTCHAR 0022
ENCODING 34
SWIDTH 472 0
DWIDTH 17 0
BBX 10 10 3 16
BITMAP
E1C0
E1C0
E1C0
E1C0
E1C0
E1C0
E1C0
E1C0
E1C0
E1C0
ENDCHAR
STARTCHAR 0023
ENCODING 35
SWIDTH 833 0
DWIDTH 30 0
BBX 25 26 3 0
BITMAP
00383800
00383800
00383800
00707000
00707000
00707000
00607000
3FFFFF80
3FFFFF80
3FFFFF80
00E0E000
01C1C000
01C1C000
01C1C000
01C1C000
03818000
FFFFFE00
FFFFFE00
FFFFFE00
07030000
07070000
07070000
07070000
0E0E0000
0E0E0000
0E0E0000
ENDCHAR
STARTCHAR 0024
ENCODING 36
SWIDTH 638 0
DWIDTH 23 0
BBX 17 32 3 -5
BITMAP
018000
018000
018000
018000
0FF800
3FFE00
7FFE00
798600
F18000
F18000
F18000
F98000
FF8000
7FF000
3FFC00
0FFE00
01FF00
019F80
018F80
018780
018780
018780
818F80
E19F00
FFFE00
7FFC00
0FF000
018000
018000
018000
018000
018000
ENDCHAR
STARTCHAR 0025
ENCODING 37
SWIDTH 944 0
DWIDTH 34 0
BBX 30 26 2 0
BITMAP
1F000300
3FC00700
79E00600
70E00C00
E0701C00
E0701800
E0703000
E0707000
E0706000
E070C000
70E1C000
79E18000
3FC387C0
1F870FF0
00061E78
000E1C38
000C381C
0018381C
0038381C
0030381C
0060381C
00E0381C
00C01C38
01801E78
03800FF0
030007E0
ENDCHAR
STARTCHAR 0026
ENCODING 38
SWIDTH 777 0
DWIDTH 28 0
BBX 25 26 2 0
BITMAP
01FC0000
07FF0000
0FFF0000
1F830000
1F000000
1E000000
1E000000
1E000000
1F000000
0F800000
0FC00000
1FE00000
3FF00F00
79F80F00
78FC0E00
F07E1E00
F03F1E00
F01FBC00
F00FF800
F007F800
F803F000
7C07F800
3F0FFC00
3FFF7E00
0FFC3F00
03F81F80
ENDCHAR
STARTCHAR 0027
ENCODING 39
SWIDTH 277 0
DWIDTH 10 0
BBX 3 10 3 16
BITMAP
E0
E0
E0
E0
E0
E0
E0
E0
E0
E0
ENDCHAR
STARTCHAR 0028
ENCODING 40
SWIDTH 388 0
DWIDTH 14 0
BBX 8 32 3 -5
BITMAP
07
06
0E
1C
1C
3C
38
38
78
78
70
F0
F0
F0
F0
F0
F0
F0
F0
F0
F0
70
78
78
38
38
3C
1C
1C
0E
06
07
ENDCHAR
STARTCHAR 0029
ENCODING 41
SWIDTH 388 0
DWIDTH 14 0
BBX 8 32 3 -5
BITMAP
E0
60
70
38
38
3C
1C
1C
1E
1E
0E
0F
0F
0F
0F
0F
0F
0F
0F
0F
0F
0E
1E
1E
1C
1C
3C
38
38
70
60
E0
ENDCHAR
STARTCHAR 002A
ENCODING 42
SWIDTH 500 0
DWIDTH 18 0
BBX 16 16 1 10
BITMAP
0180
0180
0180
4182
F18F
399C
0FF8
07E0
07E0
1FF0
399C
F18F
4182
0180
0180
0180
ENDCHAR
STARTCHAR 002B
ENCODING 43
SWIDTH 833 0
DWIDTH 30 0
BBX 23 23 4 0
BITMAP
003800
003800
003800
003800
003800
003800
003800
003800
003800
003800
FFFFFE
FFFFFE
FFFFFE
003800
003800
003800
003800
003800
003800
003800
003800
003800
003800
ENDCHAR
STARTCHAR 002C
ENCODING 44
SWIDTH 305 0
DWIDTH 11 0
BBX 5 9 3 -5
BITMAP
78
78
78
78
70
70
E0
E0
C0
ENDCHAR
STARTCHAR 002D
ENCODING 45
SWIDTH 361 0
DWIDTH 13 0
BBX 9 3 2 8
BITMAP
FF80
FF80
FF80
ENDCHAR
STARTCHAR 002E
ENCODING 46
SWIDTH 305 0
DWIDTH 11 0
BBX 4 4 4 0
BITMAP
F0
F0
F0
F0
ENDCHAR
STARTCHAR 002F
ENCODING 47
SWIDTH 333 0
DWIDTH 12 0
BBX 12 30 0 -4
BITMAP
0070
00F0
00E0
00E0
00E0
01C0
01C0
01C0
03C0
0380
0380
0780
0700
0700
0700
0E00
0E00
0E00
1E00
1C00
1C00
3C00
3800
3800
3800
7000
7000
7000
F000
E000
ENDCHAR
STARTCHAR 0030
ENCODING 48
SWIDTH 638 0
DWIDTH 23 0
BBX 18 26 2 0
BITMAP
03F000
0FFC00
1FFE00
3E1F00
3C0F00
780780
780780
780780
F003C0
F003C0
F003C0
F003C0
F003C0
F003C0
F003C0
F003C0
F003C0
F003C0
780780
780780
780780
3C0F00
3E1F00
1FFE00
0FFC00
03F000
ENDCHAR
STARTCHAR 0031
ENCODING 49
SWIDTH 638 0
DWIDTH 23 0
BBX 16 26 4 0
BITMAP
1FC0
FFC0
FFC0
E3C0
03C0
03C0
03C0
03C0
03C0
03C0
03C0
03C0
03C0
03C0
03C0
03C0
03C0
03C0
03C0
03C0
03C0
03C0
03C0
FFFF
FFFF
FFFF
ENDCHAR
STARTCHAR 0032
ENCODING 50
SWIDTH 638 0
DWIDTH 23 0
BBX 17 26 3 0
BITMAP
1FF000
FFFC00
FFFE00
F03F00
800F00
000F80
000780
000780
000780
000780
000F80
001F00
001F00
003E00
007C00
00F800
01F000
03E000
07C000
0F8000
1F0000
3E0000
FC0000
FFFF80
FFFF80
FFFF80
ENDCHAR
STARTCHAR 0033
ENCODING 51
SWIDTH 638 0
DWIDTH 23 0
BBX 17 26 3 0
BITMAP
1FE000
7FF800
7FFC00
603E00
001F00
000F00
000F00
000F00
000F00
001E00
003E00
07F800
07F000
07FC00
003E00
000F00
000780
000780
000780
000780
000780
000F00
C03F00
FFFE00
FFFC00
3FE000
ENDCHAR
STARTCHAR 0034
ENCODING 52
SWIDTH 638 0
DWIDTH 23 0
BBX 19 26 2 0
BITMAP
003E00
003E00
007E00
00FE00
00FE00
01DE00
039E00
039E00
071E00
071E00
0E1E00
1C1E00
1C1E00
381E00
701E00
701E00
E01E00
FFFFE0
FFFFE0
FFFFE0
001E00
001E00
001E00
001E00
001E00
001E00
ENDCHAR
STARTCHAR 0035
ENCODING 53
SWIDTH 638 0
DWIDTH 23 0
BBX 17 26 3 0
BITMAP
7FFE00
7FFE00
7FFE00
780000
780000
780000
780000
780000
780000
7FE000
7FF800
7FFE00
603F00
001F00
000F80
000780
000780
000780
000780
000780
000F80
001F00
C03F00
FFFE00
FFF800
3FE000
ENDCHAR
STARTCHAR 0036
ENCODING 54
SWIDTH 638 0
DWIDTH 23 0
BBX 18 26 2 0
BITMAP
01FC00
07FF00
0FFF00
1F0300
3E0000
3C0000
780000
780000
F80000
F1F800
F3FE00
F7FF00
FE1F80
F80780
F807C0
F003C0
F003C0
F003C0
7003C0
7003C0
7807C0
380780
3E1F80
1FFF00
0FFE00
03F800
ENDCHAR
STARTCHAR 0037
ENCODING 55
SWIDTH 638 0
DWIDTH 23 0
BBX 17 26 3 0
BITMAP
FFFF80
FFFF80
FFFF80
000F00
000F00
001F00
001E00
001E00
003E00
003C00
003C00
007800
007800
00F800
00F000
00F000
01F000
01E000
01E000
03E000
03C000
03C000
07C000
078000
078000
0F0000
ENDCHAR
STARTCHAR 0038
ENCODING 56
SWIDTH 638 0
DWIDTH 23 0
BBX 18 26 2 0
BITMAP
03F000
0FFC00
3FFF00
3E1F00
7C0F80
780780
780780
780780
780780
3C0F00
3E1F00
0FFC00
03F000
1FFE00
3C1F00
780780
F003C0
F003C0
F003C0
F003C0
F003C0
F807C0
7C0F80
3FFF00
1FFE00
07F800
ENDCHAR
STARTCHAR 0039
ENCODING 57
SWIDTH 638 0
DWIDTH 23 0
BBX 18 26 2 0
BITMAP
07F000
1FFC00
3FFE00
7E1F00
780700
F80780
F00380
F00380
F003C0
F003C0
F003C0
F807C0
7807C0
7E1FC0
3FFBC0
1FF3C0
07E3C0
0007C0
000780
000780
000F00
001F00
303E00
3FFC00
3FF800
0FE000
ENDCHAR
STARTCHAR 003A
ENCODING 58
SWIDTH 333 0
DWIDTH 12 0
BBX 4 19 4 0
BITMAP
F0
F0
F0
F0
00
00
00
00
00
00
00
00
00
00
00
F0
F0
F0
F0
ENDCHAR
STARTCHAR 003B
ENCODING 59
SWIDTH 333 0
DWIDTH 12 0
BBX 5 24 3 -5
BITMAP
78
78
78
78
00
00
00
00
00
00
00
00
00
00
00
78
78
78
78
70
70
E0
E0
C0
ENDCHAR
STARTCHAR 003C
ENCODING 60
SWIDTH 833 0
DWIDTH 30 0
BBX 23 19 4 2
BITMAP
000002
00001E
0000FE
0007FC
003FE0
01FF00
0FFC00
3FE000
FF0000
F80000
FF0000
3FE000
0FFC00
01FF00
003FE0
0007FC
0000FE
00001E
000002
ENDCHAR
STARTCHAR 003D
ENCODING 61
SWIDTH 833 0
DWIDTH 30 0
BBX 23 10 4 6
BITMAP
FFFFFE
FFFFFE
FFFFFE
000000
000000
000000
000000
FFFFFE
FFFFFE
FFFFFE
ENDCHAR
STARTCHAR 003E
ENCODING 62
SWIDTH 833 0
DWIDTH 30 0
BBX 23 19 4 2
BITMAP
800000
F00000
FE0000
7FC000
0FF800
01FF00
007FE0
000FF8
0001FE
00003E
0001FE
000FF8
007FE0
01FF00
0FF800
7FC000
FE0000
F00000
800000
ENDCHAR
STARTCHAR 003F
ENCODING 63
SWIDTH 527 0
DWIDTH 19 0
BBX 14 26 3 0
BITMAP
1FC0
7FF0
FFF8
E0F8
807C
003C
003C
003C
0078
00F0
01E0
03C0
0780
0780
0F00
0F00
0F00
0F00
0F00
0000
0000
0000
0F00
0F00
0F00
0F00
ENDCHAR
STARTCHAR 0040
ENCODING 64
SWIDTH 1000 0
DWIDTH 36 0
BBX 32 32 2 -7
BITMAP
000FF800
007FFF00
00FFFF80
03F80FE0
07C001F0
0F000078
1E00003C
3C00001C
380FC71E
781FF70E
703FFF0F
707C3F07
E0700F07
E0F00F07
E0E00707
E0E00707
E0E00707
E0E0070E
E0E00F0E
E0700F1E
707C3F3C
703FFFF8
781FF7E0
380FC780
3C000000
1E000000
0F000080
07C001C0
03F80FC0
01FFFF80
007FFE00
000FF000
ENDCHAR
STARTCHAR 0041
ENCODING 65
SWIDTH 694 0
DWIDTH 25 0
BBX 24 26 0 0
BITMAP
003C00
007E00
007E00
007E00
00FF00
00FF00
01FF80
01E780
01E780
03E7C0
03C3C0
03C3C0
07C1E0
0781E0
0F81F0
0F00F0
0FFFF0
1FFFF8
1FFFF8
3E0078
3C003C
3C003C
7C003E
78001E
78001E
F0000F
ENDCHAR
STARTCHAR 0042
ENCODING 66
SWIDTH 694 0
DWIDTH 25 0
BBX 19 26 3 0
BITMAP
FFF800
FFFE00
FFFF80
F00F80
F007C0
F003C0
F003C0
F003C0
F003C0
F00780
F00F80
FFFF00
FFFC00
FFFF00
F00780
F003C0
F001E0
F001E0
F001E0
F001E0
F001E0
F003E0
F007C0
FFFF80
FFFF00
FFFC00
ENDCHAR
STARTCHAR 0043
ENCODING 67
SWIDTH 694 0
DWIDTH 25 0
BBX 21 26 2 0
BITMAP
007F00
03FFE0
0FFFF0
1FC0F8
3F0038
3C0018
7C0000
780000
780000
F00000
F00000
F00000
F00000
F00000
F00000
F00000
F00000
780000
780000
7C0000
3C0018
3F0038
1FC0F8
0FFFF0
03FFE0
007F00
ENDCHAR
STARTCHAR 0044
ENCODING 68
SWIDTH 777 0
DWIDTH 28 0
BBX 22 26 3 0
BITMAP
FFF800
FFFF00
FFFFC0
F00FE0
F003F0
F000F0
F000F8
F00078
F0007C
F0003C
F0003C
F0003C
F0003C
F0003C
F0003C
F0003C
F0003C
F0007C
F00078
F000F8
F000F0
F003F0
F00FE0
FFFFC0
FFFF00
FFF800
ENDCHAR
STARTCHAR 0045
ENCODING 69
SWIDTH 638 0
DWIDTH 23 0
BBX 17 26 3 0
BITMAP
FFFF80
FFFF80
FFFF80
F00000
F00000
F00000
F00000
F00000
F00000
F00000
F00000
FFFF00
FFFF00
FFFF00
F00000
F00000
F00000
F00000
F00000
F00000
F00000
F00000
F00000
FFFF80
FFFF80
FFFF80
ENDCHAR
STARTCHAR 0046
ENCODING 70
SWIDTH 583 0
DWIDTH 21 0
BBX 15 26 3 0
BITMAP
FFFE
FFFE
FFFE
F000
F000
F000
F000
F000
F000
F000
FFFC
FFFC
FFFC
F000
F000
F000
F000
F000
F000
F000
F000
F000
F000
F000
F000
F000
ENDCHAR
STARTCHAR 0047
ENCODING 71
SWIDTH 777 0
DWIDTH 28 0
BBX 23 26 2 0
BITMAP
007F80
03FFF0
0FFFF8
1FC07C
3F001C
3C000C
7C0004
780000
780000
F00000
F00000
F00000
F007FE
F007FE
F007FE
F0001E
F0001E
78001E
78001E
7C001E
3C001E
1E001E
1FC07E
07FFFC
03FFF0
007F80
ENDCHAR
STARTCHAR 0048
ENCODING 72
SWIDTH 750 0
DWIDTH 27 0
BBX 20 26 3 0
BITMAP
F000F0
F000F0
F000F0
F000F0
F000F0
F000F0
F000F0
F000F0
F000F0
F000F0
F000F0
FFFFF0
FFFFF0
FFFFF0
F000F0
F000F0
F000F0
F000F0
F000F0
F000F0
F000F0
F000F0
F000F0
F000F0
F000F0
F000F0
ENDCHAR
STARTCHAR 0049
ENCODING 73
SWIDTH 305 0
DWIDTH 11 0
BBX 4 26 3 0
BITMAP
F0
F0
F0
F0
F0
F0
F0
F0
F0
F0
F0
F0
F0
F0
F0
F0
F0
F0
F0
F0
F0
F0
F0
F0
F0
F0
ENDCHAR
STARTCHAR 004A
ENCODING 74
SWIDTH 305 0
DWIDTH 11 0
BBX 9 33 -2 -7
BITMAP
0780
0780
0780
0780
0780
0780
0780
0780
0780
0780
0780
0780
0780
0780
0780
0780
0780
0780
0780
0780
0780
0780
0780
0780
0780
0780
0780
0780
0F00
1F00
FE00
FC00
F800
ENDCHAR
STARTCHAR 004B
ENCODING 75
SWIDTH 666 0
DWIDTH 24 0
BBX 21 26 3 0
BITMAP
F003E0
F007C0
F00F80
F03F00
F07E00
F0FC00
F1F800
F3F000
F7E000
FFC000
FF8000
FF0000
FF0000
FF8000
FFC000
F7E000
F3F000
F1F800
F0FC00
F07E00
F03F00
F01F80
F00FC0
F007E0
F003F0
F001F8
ENDCHAR
STARTCHAR 004C
ENCODING 76
SWIDTH 555 0
DWIDTH 20 0
BBX 16 26 3 0
BITMAP
F000
F000
F000
F000
F000
F000
F000
F000
F000
F000
F000
F000
F000
F000
F000
F000
F000
F000
F000
F000
F000
F000
F000
FFFF
FFFF
FFFF
ENDCHAR
STARTCHAR 004D
ENCODING 77
SWIDTH 861 0
DWIDTH 31 0
BBX 24 26 3 0
BITMAP
FE007F
FF00FF
FF00FF
FF00FF
FF81FF
F781EF
F781EF
F3C3CF
F3C3CF
F3C7CF
F1E78F
F1E78F
F1FF8F
F0FF0F
F0FF0F
F0FF0F
F07E0F
F07E0F
F07E0F
F03C0F
F03C0F
F0000F
F0000F
F0000F
F0000F
F0000F
ENDCHAR
STARTCHAR 004E
ENCODING 78
SWIDTH 750 0
DWIDTH 27 0
BBX 20 26 3 0
BITMAP
FC00F0
FC00F0
FE00F0
FE00F0
FF00F0
FF00F0
FF80F0
F780F0
F7C0F0
F3C0F0
F3E0F0
F1F0F0
F1F0F0
F0F8F0
F078F0
F07CF0
F03CF0
F03EF0
F01EF0
F01FF0
F00FF0
F00FF0
F007F0
F007F0
F003F0
F003F0
ENDCHAR
STARTCHAR 004F
ENCODING 79
SWIDTH 777 0
DWIDTH 28 0
BBX 24 26 2 0
BITMAP
00FF00
03FFC0
0FFFF0
1F81F8
3E0078
3C003C
7C003E
78001E
78001E
F0000F
F0000F
F0000F
F0000F
F0000F
F0000F
F0000F
F0000F
78001E
78001E
7C003E
3C003C
3E007C
1F81F8
0FFFF0
03FFC0
00FF00
ENDCHAR
STARTCHAR 0050
ENCODING 80
SWIDTH 611 0
DWIDTH 22 0
BBX 17 26 3 0
BITMAP
FFF000
FFFC00
FFFE00
F01F00
F00F00
F00780
F00780
F00780
F00780
F00780
F00780
F00F00
F01F00
FFFE00
FFFC00
FFF000
F00000
F00000
F00000
F00000
F00000
F00000
F00000
F00000
F00000
F00000
ENDCHAR
STARTCHAR 0051
ENCODING 81
SWIDTH 777 0
DWIDTH 28 0
BBX 24 31 2 -5
BITMAP
00FF00
03FFC0
0FFFF0
1F81F8
3E007C
3C003C
7C003E
78001E
78001E
F0000F
F0000F
F0000F
F0000F
F0000F
F0000F
F0000F
F0000F
78001E
78001E
7C003E
3C003C
3E0078
1F81F8
0FFFE0
03FFC0
00FF80
0003C0
0001E0
0000E0
0000F0
000078
ENDCHAR
STARTCHAR 0052
ENCODING 82
SWIDTH 694 0
DWIDTH 25 0
BBX 21 26 3 0
BITMAP
FFF000
FFFC00
FFFE00
F01F00
F00F80
F00780
F00780
F00780
F00780
F00780
F00F00
F01F00
FFFE00
FFF800
FFFC00
F07E00
F01E00
F01F00
F00F80
F00780
F007C0
F003C0
F003E0
F001F0
F000F0
F000F8
ENDCHAR
STARTCHAR 0053
ENCODING 83
SWIDTH 638 0
DWIDTH 23 0
BBX 18 26 2 0
BITMAP
07FC00
1FFF00
3FFF00
7C0300
F80000
F00000
F00000
F00000
F80000
FE0000
7FE000
3FFC00
1FFF00
03FF80
003F80
0007C0
0007C0
0003C0
0003C0
0003C0
0003C0
800780
F01F80
FFFF00
FFFE00
1FF000
ENDCHAR
STARTCHAR 0054
ENCODING 84
SWIDTH 611 0
DWIDTH 22 0
BBX 22 26 0 0
BITMAP
FFFFFC
FFFFFC
FFFFFC
007800
007800
007800
007800
007800
007800
007800
007800
007800
007800
007800
007800
007800
007800
007800
007800
007800
007800
007800
007800
007800
007800
007800
ENDCHAR
STARTCHAR 0055
ENCODING 85
SWIDTH 722 0
DWIDTH 26 0
BBX 20 26 4 0
BITMAP
F000F0
F000F0
F000F0
F000F0
F000F0
F000F0
F000F0
F000F0
F000F0
F000F0
F000F0
F000F0
F000F0
F000F0
F000F0
F000F0
F000F0
F000F0
F000F0
F801F0
7801E0
7C03E0
3E07C0
1FFF80
0FFF00
03FC00
ENDCHAR
STARTCHAR 0056
ENCODING 86
SWIDTH 694 0
DWIDTH 25 0
BBX 24 26 0 0
BITMAP
F0001F
78001E
78001E
7C003E
3C003C
3C003C
1E007C
1E0078
1F00F8
0F00F0
0F00F0
0F81F0
0781E0
0781E0
03C3C0
03C3C0
03E7C0
01E780
01E780
00FF80
00FF00
00FF00
007E00
007E00
007E00
003C00
ENDCHAR
STARTCHAR 0057
ENCODING 87
SWIDTH 1000 0
DWIDTH 36 0
BBX 33 26 1 0
BITMAP
F003E00780
F803E00F80
7803E00F00
7807F00F00
7807700F00
7C07701F00
3C07701E00
3C0F381E00
3C0E381E00
3E0E383E00
1E0E383C00
1E1E3C3C00
1E1C1C3C00
1F1C1C7C00
0F1C1C7800
0F3C1E7800
0F380E7800
0FB80EF800
07B80EF000
07F80FF000
07F007F000
07F007F000
03F007E000
03F007E000
03E003E000
03E003E000
ENDCHAR
STARTCHAR 0058
ENCODING 88
SWIDTH 666 0
DWIDTH 24 0
BBX 22 26 1 0
BITMAP
7C00F8
3E01F0
1E01E0
1F03E0
0F87C0
0F87C0
07CF80
03CF00
03FF00
01FE00
00FC00
00FC00
00FC00
00FC00
01FE00
01FE00
03FF00
07CF80
078F80
0F87C0
1F03E0
1F03E0
3E01F0
3C00F0
7C00F8
F8007C
ENDCHAR
STARTCHAR 0059
ENCODING 89
SWIDTH 611 0
DWIDTH 22 0
BBX 22 26 0 0
BITMAP
F8007C
7C00F8
3C00F0
3E01F0
1F03E0
0F03C0
0F87C0
07CF80
03CF00
03FF00
01FE00
00FC00
00FC00
007800
007800
007800
007800
007800
007800
007800
007800
007800
007800
007800
007800
007800
ENDCHAR
STARTCHAR 005A
ENCODING 90
SWIDTH 694 0
DWIDTH 25 0
BBX 21 26 2 0
BITMAP
FFFFF0
FFFFF0
FFFFF0
0003E0
0003E0
0007C0
000F80
001F00
001F00
003E00
007C00
007C00
00F800
01F000
03E000
03E000
07C000
0F8000
1F0000
1F0000
3E0000
7C0000
7C0000
FFFFF8
FFFFF8
FFFFF8
ENDCHAR
STARTCHAR 005B
ENCODING 91
SWIDTH 388 0
DWIDTH 14 0
BBX 8 32 3 -5
BITMAP
FF
FF
FF
F0
F0
F0
F0
F0
F0
F0
F0
F0
F0
F0
F0
F0
F0
F0
F0
F0
F0
F0
F0
F0
F0
F0
F0
F0
F0
FF
FF
FF
ENDCHAR
STARTCHAR 005C
ENCODING 92
SWIDTH 333 0
DWIDTH 12 0
BBX 12 30 0 -4
BITMAP
E000
F000
7000
7000
7000
3800
3800
3800
1C00
1C00
1C00
1E00
0E00
0E00
0E00
0700
0700
0700
0780
0380
0380
0380
01C0
01C0
01C0
00E0
00E0
00E0
00F0
0070
ENDCHAR
STARTCHAR 005D
ENCODING 93
SWIDTH 388 0
DWIDTH 14 0
BBX 8 32 3 -5
BITMAP
FF
FF
FF
0F
0F
0F
0F
0F
0F
0F
0F
0F
0F
0F
0F
0F
0F
0F
0F
0F
0F
0F
0F
0F
0F
0F
0F
0F
0F
FF
FF
FF
ENDCHAR
STARTCHAR 005E
ENCODING 94
SWIDTH 833 0
DWIDTH 30 0
BBX 23 10 4 16
BITMAP
007C00
00FE00
01FF00
03EF80
07C7C0
0F83E0
1F01F0
3C0078
78003C
F0001E
ENDCHAR
STARTCHAR 005F
ENCODING 95
SWIDTH 500 0
DWIDTH 18 0
BBX 18 3 0 -8
BITMAP
FFFFC0
FFFFC0
FFFFC0
ENDCHAR
STARTCHAR 0060
ENCODING 96
SWIDTH 500 0
DWIDTH 18 0
BBX 8 7 3 22
BITMAP
F0
70
38
1C
0C
0E
07
ENDCHAR
STARTCHAR 0061
ENCODING 97
SWIDTH 611 0
DWIDTH 22 0
BBX 17 20 2 0
BITMAP
07F000
3FFC00
7FFE00
703F00
400F00
000780
000780
000780
07FF80
3FFF80
7FFF80
7C0780
F00780
F00780
F00F80
F00F80
F83F80
7FF780
3FE780
0F8780
ENDCHAR
STARTCHAR 0062
ENCODING 98
SWIDTH 638 0
DWIDTH 23 0
BBX 18 27 3 0
BITMAP
F00000
F00000
F00000
F00000
F00000
F00000
F00000
F1F800
F7FE00
FFFF00
FE1F00
FC0F80
F80780
F807C0
F003C0
F003C0
F003C0
F003C0
F003C0
F003C0
F007C0
F80780
FC0F80
FE1F00
FFFF00
F7FE00
F1F800
ENDCHAR
STARTCHAR 0063
ENCODING 99
SWIDTH 555 0
DWIDTH 20 0
BBX 16 20 2 0
BITMAP
01F8
0FFE
1FFF
3F07
7C01
7800
F800
F000
F000
F000
F000
F000
F000
F800
7800
7C01
3F07
1FFF
0FFE
03F8
ENDCHAR
STARTCHAR 0064
ENCODING 100
SWIDTH 638 0
DWIDTH 23 0
BBX 18 27 2 0
BITMAP
0003C0
0003C0
0003C0
0003C0
0003C0
0003C0
0003C0
07E3C0
1FFBC0
3FFFC0
3E1FC0
7C0FC0
7807C0
F807C0
F003C0
F003C0
F003C0
F003C0
F003C0
F003C0
F007C0
7807C0
7C0FC0
3E1FC0
3FFFC0
1FFBC0
07E3C0
ENDCHAR
STARTCHAR 0065
ENCODING 101
SWIDTH 611 0
DWIDTH 22 0
BBX 18 20 2 0
BITMAP
03F800
0FFE00
1FFF00
3E0F00
7C0780
780780
F003C0
F003C0
FFFFC0
FFFFC0
FFFFC0
F00000
F00000
F80000
780000
7C0080
3F0380
1FFF80
0FFF00
03F800
ENDCHAR
STARTCHAR 0066
ENCODING 102
SWIDTH 361 0
DWIDTH 13 0
BBX 13 27 1 0
BITMAP
03F8
07F8
0FF8
1F00
1E00
1E00
1E00
FFF0
FFF0
FFF0
1E00
1E00
1E00
1E00
1E00
1E00
1E00
1E00
1E00
1E00
1E00
1E00
1E00
1E00
1E00
1E00
1E00
ENDCHAR
STARTCHAR 0067
ENCODING 103
SWIDTH 638 0
DWIDTH 23 0
BBX 18 27 2 -7
BITMAP
07E3C0
1FFBC0
3FFFC0
3E1FC0
7C0FC0
7807C0
F007C0
F003C0
F003C0
F003C0
F003C0
F003C0
F003C0
F007C0
7807C0
7C0FC0
3E1FC0
3FFFC0
1FFBC0
07E3C0
0003C0
000780
200F80
381F80
3FFF00
1FFE00
07F000
ENDCHAR
STARTCHAR 0068
ENCODING 104
SWIDTH 638 0
DWIDTH 23 0
BBX 16 27 3 0
BITMAP
F000
F000
F000
F000
F000
F000
F000
F1F0
F3FC
F7FE
FE3E
F81E
F80F
F00F
F00F
F00F
F00F
F00F
F00F
F00F
F00F
F00F
F00F
F00F
F00F
F00F
F00F
ENDCHAR
STARTCHAR 0069
ENCODING 105
SWIDTH 277 0
DWIDTH 10 0
BBX 4 27 3 0
BITMAP
F0
F0
F0
F0
00
00
00
F0
F0
F0
F0
F0
F0
F0
F0
F0
F0
F0
F0
F0
F0
F0
F0
F0
F0
F0
F0
ENDCHAR
STARTCHAR 006A
ENCODING 106
SWIDTH 277 0
DWIDTH 10 0
BBX 8 34 -1 -7
BITMAP
0F
0F
0F
0F
00
00
00
0F
0F
0F
0F
0F
0F
0F
0F
0F
0F
0F
0F
0F
0F
0F
0F
0F
0F
0F
0F
0F
0F
0F
1E
FE
FC
F0
ENDCHAR
STARTCHAR 006B
ENCODING 107
SWIDTH 583 0
DWIDTH 21 0
BBX 17 27 3 0
BITMAP
F00000
F00000
F00000
F00000
F00000
F00000
F00000
F01F00
F03E00
F07C00
F1F800
F3F000
F7E000
FFC000
FF8000
FF0000
FE0000
FF0000
FF8000
F7C000
F3E000
F3F000
F1F800
F0FC00
F07E00
F03F00
F01F80
ENDCHAR
STARTCHAR 006C
ENCODING 108
SWIDTH 277 0
DWIDTH 10 0
BBX 4 27 3 0
BITMAP
F0
F0
F0
F0
F0
F0
F0
F0
F0
F0
F0
F0
F0
F0
F0
F0
F0
F0
F0
F0
F0
F0
F0
F0
F0
F0
F0
ENDCHAR
STARTCHAR 006D
ENCODING 109
SWIDTH 972 0
DWIDTH 35 0
BBX 28 20 3 0
BITMAP
F1F01F00
F3FC3FC0
F7FC7FE0
FE3EE3E0
F81F81E0
F80F80F0
F00F00F0
F00F00F0
F00F00F0
F00F00F0
F00F00F0
F00F00F0
F00F00F0
F00F00F0
F00F00F0
F00F00F0
F00F00F0
F00F00F0
F00F00F0
F00F00F0
ENDCHAR
STARTCHAR 006E
ENCODING 110
SWIDTH 638 0
DWIDTH 23 0
BBX 16 20 3 0
BITMAP
F1F0
F3FC
F7FE
FE3E
F81E
F80F
F00F
F00F
F00F
F00F
F00F
F00F
F00F
F00F
F00F
F00F
F00F
F00F
F00F
F00F
ENDCHAR
STARTCHAR 006F
ENCODING 111
SWIDTH 611 0
DWIDTH 22 0
BBX 18 20 2 0
BITMAP
03F000
0FFC00
1FFE00
3E1F00
7C0F80
780780
F807C0
F003C0
F003C0
F003C0
F003C0
F003C0
F003C0
F807C0
780780
7C0F80
3E1F00
1FFE00
0FFC00
03F000
ENDCHAR
STARTCHAR 0070
ENCODING 112
SWIDTH 638 0
DWIDTH 23 0
BBX 18 27 3 -7
BITMAP
F1F800
F7FE00
FFFF00
FE1F00
FC0F80
F80780
F807C0
F003C0
F003C0
F003C0
F003C0
F003C0
F003C0
F007C0
F80780
FC0F80
FE1F00
FFFF00
F7FE00
F1F800
F00000
F00000
F00000
F00000
F00000
F00000
F00000
ENDCHAR
STARTCHAR 0071
ENCODING 113
SWIDTH 638 0
DWIDTH 23 0
BBX 18 27 2 -7
BITMAP
07E3C0
1FFBC0
3FFFC0
3E1FC0
7C0FC0
7807C0
F807C0
F003C0
F003C0
F003C0
F003C0
F003C0
F003C0
F007C0
7807C0
7C0FC0
3E1FC0
3FFFC0
1FFBC0
07E3C0
0003C0
0003C0
0003C0
0003C0
0003C0
0003C0
0003C0
ENDCHAR
STARTCHAR 0072
ENCODING 114
SWIDTH 416 0
DWIDTH 15 0
BBX 12 20 3 0
BITMAP
F0F0
F3F0
F7F0
FE00
FC00
F800
F800
F000
F000
F000
F000
F000
F000
F000
F000
F000
F000
F000
F000
F000
ENDCHAR
STARTCHAR 0073
ENCODING 115
SWIDTH 527 0
DWIDTH 19 0
BBX 15 20 2 0
BITMAP
0FF0
3FFC
7FFC
FC0C
F000
F000
F000
FC00
7FC0
1FF0
03FC
007C
001E
001E
001E
801E
E07E
FFFC
7FF8
0FE0
ENDCHAR
STARTCHAR 0074
ENCODING 116
SWIDTH 388 0
DWIDTH 14 0
BBX 13 26 1 0
BITMAP
3C00
3C00
3C00
3C00
3C00
3C00
FFF8
FFF8
FFF8
3C00
3C00
3C00
3C00
3C00
3C00
3C00
3C00
3C00
3C00
3C00
3C00
3C00
3E00
1FF8
0FF8
07F8
ENDCHAR
STARTCHAR 0075
ENCODING 117
SWIDTH 638 0
DWIDTH 23 0
BBX 16 20 3 0
BITMAP
F00F
F00F
F00F
F00F
F00F
F00F
F00F
F00F
F00F
F00F
F00F
F00F
F00F
F00F
F01F
F81F
7C7F
7FEF
3FCF
0F8F
ENDCHAR
STARTCHAR 0076
ENCODING 118
SWIDTH 583 0
DWIDTH 21 0
BBX 19 20 1 0
BITMAP
F001E0
7803C0
7803C0
7C07C0
3C0780
3C0780
3E0F80
1E0F00
1E0F00
1F1F00
0F1E00
0F1E00
07BC00
07BC00
07FC00
03F800
03F800
03F800
01F000
01F000
ENDCHAR
STARTCHAR 0077
ENCODING 119
SWIDTH 805 0
DWIDTH 29 0
BBX 26 20 2 0
BITMAP
F01E03C0
F83F07C0
783F0780
783F0780
783F0780
7C7F8F80
3C738F00
3C738F00
3C738F00
3EF1DF00
1EE1DE00
1EE1DE00
1EE1DE00
1FE0FE00
0FC0FC00
0FC0FC00
0FC0FC00
0F807C00
07807800
07807800
ENDCHAR
STARTCHAR 0078
ENCODING 120
SWIDTH 583 0
DWIDTH 21 0
BBX 19 20 1 0
BITMAP
7C03E0
3E07C0
1F0F80
0F9F00
0F9F00
07FE00
03FC00
03FC00
01F800
00F000
01F000
03F800
03FC00
07FC00
0FBE00
1F1F00
1F0F80
3E0F80
7C07C0
F803E0
ENDCHAR
STARTCHAR 0079
ENCODING 121
SWIDTH 583 0
DWIDTH 21 0
BBX 19 27 1 -7
BITMAP
F803E0
7803C0
7803C0
7C07C0
3C0780
3E0F80
1E0F00
1E0F00
0F1F00
0F1E00
0FBE00
07BC00
07BC00
03FC00
03F800
03F800
01F000
01F000
01F000
01E000
03E000
03C000
07C000
07C000
3F8000
3F0000
3E0000
ENDCHAR
STARTCHAR 007A
ENCODING 122
SWIDTH 527 0
DWIDTH 19 0
BBX 16 20 2 0
BITMAP
FFFF
FFFF
FFFF
001F
003E
007C
00F8
01F8
01F0
03E0
07C0
0FC0
0F80
1F00
3E00
7E00
FC00
FFFF
FFFF
FFFF
ENDCHAR
STARTCHAR 007B
ENCODING 123
SWIDTH 638 0
DWIDTH 23 0
BBX 14 33 5 -6
BITMAP
00FC
03FC
03FC
07C0
0780
0780
0780
0780
0780
0780
0780
0780
0780
0F80
0F00
FE00
F800
FE00
1F00
0F80
0780
0780
0780
0780
0780
0780
0780
0780
0780
07C0
03FC
03FC
00FC
ENDCHAR
STARTCHAR 007C
ENCODING 124
SWIDTH 333 0
DWIDTH 12 0
BBX 3 36 5 -9
BITMAP
E0
E0
E0
E0
E0
E0
E0
E0
E0
E0
E0
E0
E0
E0
E0
E0
E0
E0
E0
E0
E0
E0
E0
E0
E0
E0
E0
E0
E0
E0
E0
E0
E0
E0
E0
E0
ENDCHAR
STARTCHAR 007D
ENCODING 125
SWIDTH 638 0
DWIDTH 23 0
BBX 14 33 5 -6
BITMAP
FC00
FF00
FF00
0F80
0780
0780
0780
0780
0780
0780
0780
0780
0780
0780
03C0
01FC
007C
01FC
03E0
07C0
0780
0780
0780
0780
0780
0780
0780
0780
0780
0F80
FF00
FF00
FC00
ENDCHAR
STARTCHAR 007E
ENCODING 126
SWIDTH 833 0
DWIDTH 30 0
BBX 23 5 4 9
BITMAP
0FC002
7FF81E
FFFFFE
F07FFC
C007E0
ENDCHAR
STARTCHAR 00A0
ENCODING 160
SWIDTH 305 0
DWIDTH 11 0
BBX 0 0 0 0
BITMAP
ENDCHAR
STARTCHAR 00A1
ENCODING 161
SWIDTH 388 0
DWIDTH 14 0
BBX 4 26 5 0
BITMAP
F0
F0
F0
F0
00
00
00
00
F0
F0
F0
F0
F0
F0
F0
F0
F0
F0
F0
F0
F0
F0
F0
F0
F0
F0
ENDCHAR
STARTCHAR 00A2
ENCODING 162
SWIDTH 638 0
DWIDTH 23 0
BBX 16 30 3 -5
BITMAP
0060
0060
0060
0060
0060
03F8
0FFE
1FFF
3F67
7C61
7860
F860
F060
F060
F060
F060
F060
F060
F860
7860
7C61
3E67
1FFF
0FFE
03F8
0060
0060
0060
0060
0060
ENDCHAR
STARTCHAR 00A3
ENCODING 163
SWIDTH 638 0
DWIDTH 23 0
BBX 18 26 2 0
BITMAP
007F00
01FFC0
03FFC0
07C0C0
0F8000
0F0000
0F0000
0F0000
0F0000
0F0000
0F0000
0F0000
FFFE00
FFFE00
FFFE00
0F0000
0F0000
0F0000
0F0000
0F0000
0F0000
0F0000
0F0000
FFFFC0
FFFFC0
FFFFC0
ENDCHAR
STARTCHAR 00A4
ENCODING 164
SWIDTH 638 0
DWIDTH 23 0
BBX 19 19 2 3
BITMAP
400040
E000E0
79F3C0
3FFF80
1FFF80
1E0F00
1C0700
380380
380380
380380
380380
380380
1C0700
1E0F00
3FFF00
3FFF80
79F1C0
E000E0
400040
ENDCHAR
STARTCHAR 00A5
ENCODING 165
SWIDTH 638 0
DWIDTH 23 0
BBX 20 26 2 0
BITMAP
F801F0
7801E0
7C03E0
3C03C0
3E07C0
1E0F80
0F0F00
0F9F00
079E00
07FE00
7FFFE0
7FFFE0
01F800
01F800
00F000
00F000
7FFFE0
7FFFE0
00F000
00F000
00F000
00F000
00F000
00F000
00F000
00F000
ENDCHAR
STARTCHAR 00A6
ENCODING 166
SWIDTH 333 0
DWIDTH 12 0
BBX 3 31 5 -6
BITMAP
E0
E0
E0
E0
E0
E0
E0
E0
E0
E0
E0
E0
E0
00
00
00
00
00
E0
E0
E0
E0
E0
E0
E0
E0
E0
E0
E0
E0
E0
ENDCHAR
STARTCHAR 00A7
ENCODING 167
SWIDTH 500 0
DWIDTH 18 0
BBX 15 29 2 -3
BITMAP
0FE0
1FF8
3FF8
7818
7000
7000
7800
3C00
1F00
3FC0
73F0
E0F8
E07C
E01E
E00E
F00E
7C0E
3F1C
0FFC
03F0
00F8
0078
001C
001C
001C
603C
7FF8
7FF0
1FC0
ENDCHAR
STARTCHAR 00A8
ENCODING 168
SWIDTH 500 0
DWIDTH 18 0
BBX 11 4 4 23
BITMAP
F1E0
F1E0
F1E0
F1E0
ENDCHAR
STARTCHAR 00A9
ENCODING 169
SWIDTH 1000 0
DWIDTH 36 0
BBX 26 26 5 0
BITMAP
007F8000
01FFE000
07C0F800
0E001C00
1C000E00
381F8700
307FC300
70F04180
61C00180
E1C001C0
C38000C0
C38000C0
C38000C0
C38000C0
C38000C0
C38000C0
E1C001C0
61C00180
60F04180
307FC300
381F8700
1C000E00
0E001C00
07C0F800
01FFE000
007F8000
ENDCHAR
STARTCHAR 00AA
ENCODING 170
SWIDTH 472 0
DWIDTH 17 0
BBX 12 18 2 8
BITMAP
3F80
7FC0
40E0
0070
0070
1FF0
7FF0
F070
E070
E070
E0F0
F1F0
7F70
3E70
0000
0000
FFF0
FFF0
ENDCHAR
STARTCHAR 00AB
ENCODING 171
SWIDTH 611 0
DWIDTH 22 0
BBX 15 16 3 3
BITMAP
0102
0306
070E
0F1E
1F3E
3C78
78F0
F1E0
F1E0
78F0
3C78
1F3E
0F1E
070E
0306
0102
ENDCHAR
STARTCHAR 00AC
ENCODING 172
SWIDTH 833 0
DWIDTH 30 0
BBX 23 10 4 5
BITMAP
FFFFFE
FFFFFE
FFFFFE
00000E
00000E
00000E
00000E
00000E
00000E
00000E
ENDCHAR
STARTCHAR 00AD
ENCODING 173
SWIDTH 361 0
DWIDTH 13 0
BBX 9 3 2 8
BITMAP
FF80
FF80
FF80
ENDCHAR
STARTCHAR 00AE
ENCODING 174
SWIDTH 1000 0
DWIDTH 36 0
BBX 26 26 5 0
BITMAP
007F8000
01FFE000
07C0F800
0E001C00
1C000E00
38FF0700
30FFC300
70E1E180
60E0E180
E0E0E1C0
C0E1E0C0
C0FFC0C0
C0FE00C0
C0E700C0
C0E380C0
C0E1C0C0
E0E1C1C0
60E0C180
60E0E180
30E0E300
38E07700
1C000E00
0E001C00
07C0F800
01FFE000
007F8000
ENDCHAR
STARTCHAR 00AF
ENCODING 175
SWIDTH 500 0
DWIDTH 18 0
BBX 11 3 4 24
BITMAP
FFE0
FFE0
FFE0
ENDCHAR
STARTCHAR 00B0
ENCODING 176
SWIDTH 500 0
DWIDTH 18 0
BBX 11 11 3 15
BITMAP
1F00
3F80
71C0
E0E0
C060
C060
C060
E0E0
71C0
3F80
1F00
ENDCHAR
STARTCHAR 00B1
ENCODING 177
SWIDTH 833 0
DWIDTH 30 0
BBX 23 23 4 0
BITMAP
003800
003800
003800
003800
003800
003800
003800
FFFFFE
FFFFFE
FFFFFE
003800
003800
003800
003800
003800
003800
003800
000000
000000
000000
FFFFFE
FFFFFE
FFFFFE
ENDCHAR
STARTCHAR 00B2
ENCODING 178
SWIDTH 388 0
DWIDTH 14 0
BBX 10 15 2 11
BITMAP
7E00
FF80
83C0
01C0
01C0
01C0
0380
0780
0F00
0E00
1E00
3C00
7000
FFC0
FFC0
ENDCHAR
STARTCHAR 00B3
ENCODING 179
SWIDTH 388 0
DWIDTH 14 0
BBX 11 15 2 11
BITMAP
1F00
7FC0
41E0
00E0
00E0
01C0
1F80
1F80
01C0
00E0
00E0
00E0
81E0
FFC0
7F00
ENDCHAR
STARTCHAR 00B4
ENCODING 180
SWIDTH 500 0
DWIDTH 18 0
BBX 8 7 7 22
BITMAP
0F
0E
1C
38
38
70
E0
ENDCHAR
STARTCHAR 00B5
ENCODING 181
SWIDTH 638 0
DWIDTH 23 0
BBX 18 27 3 -7
BITMAP
F00F00
F00F00
F00F00
F00F00
F00F00
F00F00
F00F00
F00F00
F00F00
F00F00
F00F00
F00F00
F00F00
F00F00
F00F00
F81F00
FC3F00
FFFFC0
F7E7C0
F3C380
F00000
F00000
F00000
F00000
F00000
F00000
F00000
ENDCHAR
STARTCHAR 00B6
ENCODING 182
SWIDTH 638 0
DWIDTH 23 0
BBX 16 29 3 -3
BITMAP
0FFF
1FFF
3FC7
7FC7
FFC7
FFC7
FFC7
FFC7
FFC7
FFC7
7FC7
7FC7
3FC7
1FC7
01C7
01C7
01C7
01C7
01C7
01C7
01C7
01C7
01C7
01C7
01C7
01C7
01C7
01C7
01C7
ENDCHAR
STARTCHAR 00B7
ENCODING 183
SWIDTH 305 0
DWIDTH 11 0
BBX 4 4 4 11
BITMAP
F0
F0
F0
F0
ENDCHAR
STARTCHAR 00B8
ENCODING 184
SWIDTH 500 0
DWIDTH 18 0
BBX 7 7 5 -7
BITMAP
18
0C
0E
8E
FE
FE
FC
ENDCHAR
STARTCHAR 00B9
ENCODING 185
SWIDTH 388 0
DWIDTH 14 0
BBX 11 15 3 11
BITMAP
3E00
FE00
CE00
0E00
0E00
0E00
0E00
0E00
0E00
0E00
0E00
0E00
0E00
FFE0
FFE0
ENDCHAR
STARTCHAR 00BA
ENCODING 186
SWIDTH 472 0
DWIDTH 17 0
BBX 14 18 2 8
BITMAP
0FC0
3FF0
7878
7038
E01C
E01C
E01C
E01C
E01C
E01C
7038
7878
3FF0
0FC0
0000
0000
7FF8
7FF8
ENDCHAR
STARTCHAR 00BB
ENCODING 187
SWIDTH 611 0
DWIDTH 22 0
BBX 15 16 3 3
BITMAP
8100
C180
E1C0
F1E0
F9F0
3C78
1E3C
0F1E
0F1E
1E3C
3C78
F9F0
F1E0
E1C0
C180
8100
ENDCHAR
STARTCHAR 00BC
ENCODING 188
SWIDTH 972 0
DWIDTH 35 0
BBX 30 27 3 -1
BITMAP
3E000E00
FE000C00
CE001800
0E003800
0E003000
0E007000
0E00E000
0E00C000
0E01C000
0E018000
0E030000
0E070000
0E060070
FFEC00F0
FFFC01F0
00180370
00300270
00700670
00600C70
00E00870
01C01870
01803070
03803FFC
03003FFC
06000070
0E000070
00000070
ENDCHAR
STARTCHAR 00BD
ENCODING 189
SWIDTH 972 0
DWIDTH 35 0
BBX 29 27 3 -1
BITMAP
3E000E00
FE000C00
CE001800
0E003800
0E003000
0E007000
0E00E000
0E00C000
0E01C000
0E018000
0E030000
0E070000
0E060FC0
FFEC1FF0
FFFC1078
00180038
00300038
00700038
00600070
00E000F0
01C001E0
018001C0
038003C0
03000780
06000E00
0E001FF8
00001FF8
ENDCHAR
STARTCHAR 00BE
ENCODING 190
SWIDTH 972 0
DWIDTH 35 0
BBX 31 27 2 -1
BITMAP
1F000700
7FC00600
41E00C00
00E01C00
00E01800
01C03800
1F807000
1F806000
01C0E000
00E0C000
00E18000
00E38000
81E30038
FFC60078
7F0E00F8
000C01B8
00180138
00380338
00300638
00700438
00E00C38
00C01838
01C01FFE
01801FFE
03000038
07000038
00000038
ENDCHAR
STARTCHAR 00BF
ENCODING 191
SWIDTH 527 0
DWIDTH 19 0
BBX 14 26 3 0
BITMAP
03C0
03C0
03C0
03C0
0000
0000
0000
03C0
03C0
03C0
03C0
03C0
0780
0780
0F00
1E00
3C00
7800
F000
F000
F000
F804
7C1C
7FFC
3FF8
0FE0
ENDCHAR
STARTCHAR 00C0
ENCODING 192
SWIDTH 694 0
DWIDTH 25 0
BBX 24 34 0 0
BITMAP
00F000
007000
003800
001C00
000C00
000000
000000
000000
003C00
007E00
007E00
007E00
00FF00
00FF00
01FF80
01E780
01E780
03E7C0
03C3C0
03C3C0
07C1E0
0781E0
0F81F0
0F00F0
0FFFF0
1FFFF8
1FFFF8
3E0078
3C003C
3C003C
7C003E
78001E
78001E
F0000F
ENDCHAR
STARTCHAR 00C1
ENCODING 193
SWIDTH 694 0
DWIDTH 25 0
BBX 24 34 0 0
BITMAP
000700
000F00
000E00
001C00
003800
000000
000000
000000
003C00
007E00
007E00
007E00
00FF00
00FF00
01FF80
01E780
01E780
03E7C0
03C3C0
03C3C0
07C1E0
0781E0
0F81F0
0F00F0
0FFFF0
1FFFF8
1FFFF8
3E0078
3C003C
3C003C
7C003E
78001E
78001E
F0000F
ENDCHAR
STARTCHAR 00C2
ENCODING 194
SWIDTH 694 0
DWIDTH 25 0
BBX 24 34 0 0
BITMAP
003C00
007E00
006600
00E300
01C380
000000
000000
000000
003C00
007E00
007E00
007E00
00FF00
00FF00
01FF80
01E780
01E780
03E7C0
03C3C0
03C3C0
07C1E0
0781E0
0F81F0
0F00F0
0FFFF0
1FFFF8
1FFFF8
3E0078
3C003C
3C003C
7C003E
78001E
78001E
F0000F
ENDCHAR
STARTCHAR 00C3
ENCODING 195
SWIDTH 694 0
DWIDTH 25 0
BBX 24 34 0 0
BITMAP
00E0C0
01F8C0
031F80
030700
000000
000000
000000
000000
003C00
007E00
007E00
007E00
00FF00
00FF00
01FF80
01E780
01E780
03E7C0
03C3C0
03C3C0
07C1E0
0781E0
0F81F0
0F00F0
0FFFF0
1FFFF8
1FFFF8
3E0078
3C003C
3C003C
7C003E
78001E
78001E
F0000F
ENDCHAR
STARTCHAR 00C4
ENCODING 196
SWIDTH 694 0
DWIDTH 25 0
BBX 24 34 0 0
BITMAP
01E780
01E780
01E780
01E780
000000
000000
000000
000000
003C00
007E00
007E00
007E00
00FF00
00FF00
01FF80
01E780
01E780
03E7C0
03C3C0
03C3C0
07C1E0
0781E0
0F81F0
0F00F0
0FFFF0
1FFFF8
1FFFF8
3E0078
3C003C
3C003C
7C003E
78001E
78001E
F0000F
ENDCHAR
STARTCHAR 00C5
ENCODING 197
SWIDTH 694 0
DWIDTH 25 0
BBX 24 34 0 0
BITMAP
003C00
00FF00
00C300
018180
018180
018180
018180
01C300
00FF00
007E00
007E00
00FF00
00FF00
01FF80
01E780
01E780
03E7C0
03C3C0
03C3C0
07C3E0
0781E0
0781E0
0F00F0
0F00F0
1FFFF8
1FFFF8
1FFFF8
3E007C
3C003C
3C003C
7C003E
78001E
78001E
F0000F
ENDCHAR
STARTCHAR 00C6
ENCODING 198
SWIDTH 972 0
DWIDTH 35 0
BBX 33 26 0 0
BITMAP
001FFFFF80
001FFFFF80
003FFFFF80
003CF00000
007CF00000
0078F00000
00F8F00000
00F0F00000
00F0F00000
01E0F00000
01E0F00000
03E0FFFF00
03C0FFFF00
07C0FFFF00
0780F00000
0780F00000
0FFFF00000
0FFFF00000
1FFFF00000
1E00F00000
3E00F00000
3C00F00000
7C00F00000
7800FFFF80
7800FFFF80
F800FFFF80
ENDCHAR
STARTCHAR 00C7
ENCODING 199
SWIDTH 694 0
DWIDTH 25 0
BBX 21 33 2 -7
BITMAP
007F00
03FFE0
0FFFF0
1FC0F8
3F0038
3C0018
7C0000
780000
780000
F00000
F00000
F00000
F00000
F00000
F00000
F00000
F00000
780000
780000
7C0000
3C0018
3F0038
1FC0F8
0FFFF0
03FFE0
007F00
001800
000C00
000E00
008E00
00FE00
00FE00
00FC00
ENDCHAR
STARTCHAR 00C8
ENCODING 200
SWIDTH 638 0
DWIDTH 23 0
BBX 17 34 3 0
BITMAP
078000
038000
01C000
00E000
006000
000000
000000
000000
FFFF80
FFFF80
FFFF80
F00000
F00000
F00000
F00000
F00000
F00000
F00000
F00000
FFFF00
FFFF00
FFFF00
F00000
F00000
F00000
F00000
F00000
F00000
F00000
F00000
F00000
FFFF80
FFFF80
FFFF80
ENDCHAR
STARTCHAR 00C9
ENCODING 201
SWIDTH 638 0
DWIDTH 23 0
BBX 17 34 3 0
BITMAP
003800
007800
007000
00E000
01C000
000000
000000
000000
FFFF80
FFFF80
FFFF80
F00000
F00000
F00000
F00000
F00000
F00000
F00000
F00000
FFFF00
FFFF00
FFFF00
F00000
F00000
F00000
F00000
F00000
F00000
F00000
F00000
F00000
FFFF80
FFFF80
FFFF80
ENDCHAR
STARTCHAR 00CA
ENCODING 202
SWIDTH 638 0
DWIDTH 23 0
BBX 17 34 3 0
BITMAP
01F000
01F000
03B800
071C00
0E0E00
000000
000000
000000
FFFF80
FFFF80
FFFF80
F00000
F00000
F00000
F00000
F00000
F00000
F00000
F00000
FFFF00
FFFF00
FFFF00
F00000
F00000
F00000
F00000
F00000
F00000
F00000
F00000
F00000
FFFF80
FFFF80
FFFF80
ENDCHAR
STARTCHAR 00CB
ENCODING 203
SWIDTH 638 0
DWIDTH 23 0
BBX 17 34 3 0
BITMAP
0F1E00
0F1E00
0F1E00
0F1E00
000000
000000
000000
000000
FFFF80
FFFF80
FFFF80
F00000
F00000
F00000
F00000
F00000
F00000
F00000
F00000
FFFF00
FFFF00
FFFF00
F00000
F00000
F00000
F00000
F00000
F00000
F00000
F00000
F00000
FFFF80
FFFF80
FFFF80
ENDCHAR
STARTCHAR 00CC
ENCODING 204
SWIDTH 305 0
DWIDTH 11 0
BBX 6 34 1 0
BITMAP
F0
70
38
1C
0C
00
00
00
3C
3C
3C
3C
3C
3C
3C
3C
3C
3C
3C
3C
3C
3C
3C
3C
3C
3C
3C
3C
3C
3C
3C
3C
3C
3C
ENDCHAR
STARTCHAR 00CD
ENCODING 205
SWIDTH 305 0
DWIDTH 11 0
BBX 6 34 3 0
BITMAP
1C
3C
38
70
E0
00
00
00
F0
F0
F0
F0
F0
F0
F0
F0
F0
F0
F0
F0
F0
F0
F0
F0
F0
F0
F0
F0
F0
F0
F0
F0
F0
F0
ENDCHAR
STARTCHAR 00CE
ENCODING 206
SWIDTH 305 0
DWIDTH 11 0
BBX 12 34 -1 0
BITMAP
0F00
1F80
39C0
70E0
E070
0000
0000
0000
0F00
0F00
0F00
0F00
0F00
0F00
0F00
0F00
0F00
0F00
0F00
0F00
0F00
0F00
0F00
0F00
0F00
0F00
0F00
0F00
0F00
0F00
0F00
0F00
0F00
0F00
ENDCHAR
STARTCHAR 00CF
ENCODING 207
SWIDTH 305 0
DWIDTH 11 0
BBX 10 34 0 0
BITMAP
F3C0
F3C0
F3C0
F3C0
0000
0000
0000
0000
1E00
1E00
1E00
1E00
1E00
1E00
1E00
1E00
1E00
1E00
1E00
1E00
1E00
1E00
1E00
1E00
1E00
1E00
1E00
1E00
1E00
1E00
1E00
1E00
1E00
1E00
ENDCHAR
STARTCHAR 00D0
ENCODING 208
SWIDTH 777 0
DWIDTH 28 0
BBX 26 26 0 0
BITMAP
0FFF8000
0FFFF000
0FFFFC00
0F00FE00
0F001F00
0F000F00
0F000F80
0F000780
0F0007C0
0F0003C0
0F0003C0
FFFC03C0
FFFC03C0
FFFC03C0
0F0003C0
0F0003C0
0F0003C0
0F0007C0
0F000780
0F000F80
0F000F00
0F001F00
0F00FE00
0FFFFC00
0FFFF000
0FFF8000
ENDCHAR
STARTCHAR 00D1
ENCODING 209
SWIDTH 750 0
DWIDTH 27 0
BBX 20 34 3 0
BITMAP
038300
07E300
0C7E00
0C1C00
000000
000000
000000
000000
FC00F0
FC00F0
FE00F0
FE00F0
FF00F0
FF00F0
FF80F0
F780F0
F7C0F0
F3C0F0
F3E0F0
F1F0F0
F1F0F0
F0F8F0
F078F0
F07CF0
F03CF0
F03EF0
F01EF0
F01FF0
F00FF0
F00FF0
F007F0
F007F0
F003F0
F003F0
ENDCHAR
STARTCHAR 00D2
ENCODING 210
SWIDTH 777 0
DWIDTH 28 0
BBX 24 34 2 0
BITMAP
00F000
007000
003800
001C00
000C00
000000
000000
000000
00FF00
03FFC0
0FFFF0
1F81F8
3E0078
3C003C
7C003E
78001E
78001E
F0000F
F0000F
F0000F
F0000F
F0000F
F0000F
F0000F
F0000F
78001E
78001E
7C003E
3C003C
3E007C
1F81F8
0FFFF0
03FFC0
00FF00
ENDCHAR
STARTCHAR 00D3
ENCODING 211
SWIDTH 777 0
DWIDTH 28 0
BBX 24 34 2 0
BITMAP
000700
000F00
000E00
001C00
003800
000000
000000
000000
00FF00
03FFC0
0FFFF0
1F81F8
3E0078
3C003C
7C003E
78001E
78001E
F0000F
F0000F
F0000F
F0000F
F0000F
F0000F
F0000F
F0000F
78001E
78001E
7C003E
3C003C
3E007C
1F81F8
0FFFF0
03FFC0
00FF00
ENDCHAR
STARTCHAR 00D4
ENCODING 212
SWIDTH 777 0
DWIDTH 28 0
BBX 24 34 2 0
BITMAP
003C00
007E00
006600
00E300
01C380
000000
000000
000000
00FF00
03FFC0
0FFFF0
1F81F8
3E0078
3C003C
7C003E
78001E
78001E
F0000F
F0000F
F0000F
F0000F
F0000F
F0000F
F0000F
F0000F
78001E
78001E
7C003E
3C003C
3E007C
1F81F8
0FFFF0
03FFC0
00FF00
ENDCHAR
STARTCHAR 00D5
ENCODING 213
SWIDTH 777 0
DWIDTH 28 0
BBX 24 34 2 0
BITMAP
00E0C0
01F8C0
031F80
030700
000000
000000
000000
000000
00FF00
03FFC0
0FFFF0
1F81F8
3E0078
3C003C
7C003E
78001E
78001E
F0000F
F0000F
F0000F
F0000F
F0000F
F0000F
F0000F
F0000F
78001E
78001E
7C003E
3C003C
3E007C
1F81F8
0FFFF0
03FFC0
00FF00
ENDCHAR
STARTCHAR 00D6
ENCODING 214
SWIDTH 777 0
DWIDTH 28 0
BBX 24 34 2 0
BITMAP
01E780
01E780
01E780
01E780
000000
000000
000000
000000
00FF00
03FFC0
0FFFF0
1F81F8
3E0078
3C003C
7C003E
78001E
78001E
F0000F
F0000F
F0000F
F0000F
F0000F
F0000F
F0000F
F0000F
78001E
78001E
7C003E
3C003C
3E007C
1F81F8
0FFFF0
03FFC0
00FF00
ENDCHAR
STARTCHAR 00D7
ENCODING 215
SWIDTH 833 0
DWIDTH 30 0
BBX 20 20 5 1
BITMAP
200040
7000E0
F801F0
7C03E0
3E07C0
1F0F80
0F9F00
07FE00
03FC00
01F800
01F800
03FC00
07FE00
0F9F00
1F0F80
3E07C0
7C03E0
F801F0
7000E0
200040
ENDCHAR
STARTCHAR 00D8
ENCODING 216
SWIDTH 777 0
DWIDTH 28 0
BBX 24 28 2 -1
BITMAP
000002
00FE07
03FFCF
0FFFEE
1F81FC
3E0078
3C007C
7C00FC
7801DE
F8039E
F0038F
F0070F
F00E0F
F01C0F
F0380F
F0700F
F0E00F
F1C00F
79C01E
7B801E
7F003E
3E003C
1E007C
3F81F8
77FFF0
73FFC0
E07F00
400000
ENDCHAR
STARTCHAR 00D9
ENCODING 217
SWIDTH 722 0
DWIDTH 26 0
BBX 20 34 4 0
BITMAP
078000
038000
01C000
00E000
006000
000000
000000
000000
F000F0
F000F0
F000F0
F000F0
F000F0
F000F0
F000F0
F000F0
F000F0
F000F0
F000F0
F000F0
F000F0
F000F0
F000F0
F000F0
F000F0
F000F0
F000F0
F801F0
7801E0
7C03E0
3E07C0
1FFF80
0FFF00
03FC00
ENDCHAR
STARTCHAR 00DA
ENCODING 218
SWIDTH 722 0
DWIDTH 26 0
BBX 20 34 4 0
BITMAP
003800
007800
007000
00E000
01C000
000000
000000
000000
F000F0
F000F0
F000F0
F000F0
F000F0
F000F0
F000F0
F000F0
F000F0
F000F0
F000F0
F000F0
F000F0
F000F0
F000F0
F000F0
F000F0
F000F0
F000F0
F801F0
7801E0
7C03E0
3E07C0
1FFF80
0FFF00
03FC00
ENDCHAR
STARTCHAR 00DB
ENCODING 219
SWIDTH 722 0
DWIDTH 26 0
BBX 20 34 4 0
BITMAP
00F000
01F800
019800
038C00
070E00
000000
000000
000000
F000F0
F000F0
F000F0
F000F0
F000F0
F000F0
F000F0
F000F0
F000F0
F000F0
F000F0
F000F0
F000F0
F000F0
F000F0
F000F0
F000F0
F000F0
F000F0
F801F0
7801E0
7C03E0
3E07C0
1FFF80
0FFF00
03FC00
ENDCHAR
STARTCHAR 00DC
ENCODING 220
SWIDTH 722 0
DWIDTH 26 0
BBX 20 34 4 0
BITMAP
079E00
079E00
079E00
079E00
000000
000000
000000
000000
F000F0
F000F0
F000F0
F000F0
F000F0
F000F0
F000F0
F000F0
F000F0
F000F0
F000F0
F000F0
F000F0
F000F0
F000F0
F000F0
F000F0
F000F0
F000F0
F801F0
7801E0
7C03E0
3E07C0
1FFF80
0FFF00
03FC00
ENDCHAR
STARTCHAR 00DD
ENCODING 221
SWIDTH 611 0
DWIDTH 22 0
BBX 22 34 0 0
BITMAP
000E00
001E00
001C00
003800
007000
000000
000000
000000
F8007C
7C00F8
3C00F0
3E01F0
1F03E0
0F03C0
0F87C0
07CF80
03CF00
03FF00
01FE00
00FC00
00FC00
007800
007800
007800
007800
007800
007800
007800
007800
007800
007800
007800
007800
007800
ENDCHAR
STARTCHAR 00DE
ENCODING 222
SWIDTH 611 0
DWIDTH 22 0
BBX 17 26 3 0
BITMAP
F00000
F00000
F00000
F00000
F00000
FFF000
FFFC00
FFFE00
F01F00
F00F00
F00780
F00780
F00780
F00780
F00780
F00780
F00F00
F01F00
FFFE00
FFFC00
FFF000
F00000
F00000
F00000
F00000
F00000
ENDCHAR
STARTCHAR 00DF
ENCODING 223
SWIDTH 638 0
DWIDTH 23 0
BBX 18 27 3 0
BITMAP
07E000
1FF800
3FFC00
7C3E00
F81E00
F00F00
F00F00
F07F00
F0F800
F0F000
F1E000
F1E000
F1E000
F1E000
F0F000
F07C00
F01E00
F00F80
F00780
F003C0
F003C0
F003C0
F003C0
F207C0
F3FF80
F3FF00
F1FC00
ENDCHAR
STARTCHAR 00E0
ENCODING 224
SWIDTH 611 0
DWIDTH 22 0
BBX 17 29 2 0
BITMAP
3C0000
1C0000
0E0000
070000
030000
038000
01C000
000000
000000
07F000
3FFC00
7FFE00
703F00
400F00
000780
000780
000780
07FF80
3FFF80
7FFF80
7C0780
F00780
F00780
F00F80
F00F80
F83F80
7FF780
3FE780
0F8780
ENDCHAR
STARTCHAR 00E1
ENCODING 225
SWIDTH 611 0
DWIDTH 22 0
BBX 17 29 2 0
BITMAP
003C00
003800
007000
00E000
00E000
01C000
038000
000000
000000
07F000
3FFC00
7FFE00
703F00
400F00
000780
000780
000780
07FF80
3FFF80
7FFF80
7C0780
F00780
F00780
F00F80
F00F80
F83F80
7FF780
3FE780
0F8780
ENDCHAR
STARTCHAR 00E2
ENCODING 226
SWIDTH 611 0
DWIDTH 22 0
BBX 17 29 2 0
BITMAP
01C000
03E000
036000
077000
0E3000
0C1800
1C1C00
000000
000000
07F000
3FFC00
7FFE00
703F00
400F00
000780
000780
000780
07FF80
3FFF80
7FFF80
7C0780
F00780
F00780
F00F80
F00F80
F83F80
7FF780
3FE780
0F8780
ENDCHAR
STARTCHAR 00E3
ENCODING 227
SWIDTH 611 0
DWIDTH 22 0
BBX 17 28 2 0
BITMAP
070C00
0F8C00
19CC00
18F800
187000
000000
000000
000000
07F000
3FFC00
7FFE00
703F00
400F00
000780
000780
000780
07FF80
3FFF80
7FFF80
7C0780
F00780
F00780
F00F80
F00F80
F83F80
7FF780
3FE780
0F8780
ENDCHAR
STARTCHAR 00E4
ENCODING 228
SWIDTH 611 0
DWIDTH 22 0
BBX 17 27 2 0
BITMAP
1E3C00
1E3C00
1E3C00
1E3C00
000000
000000
000000
07F000
3FFC00
7FFE00
703F00
400F00
000780
000780
000780
07FF80
3FFF80
7FFF80
7C0780
F00780
F00780
F00F80
F00F80
F83F80
7FF780
3FE780
0F8780
ENDCHAR
STARTCHAR 00E5
ENCODING 229
SWIDTH 611 0
DWIDTH 22 0
BBX 17 32 2 0
BITMAP
01E000
07F800
061800
0C0C00
0C0C00
0C0C00
0C0C00
061800
07F800
01E000
000000
000000
07F000
3FFC00
7FFE00
703F00
400F00
000780
000780
000780
07FF80
3FFF80
7FFF80
7C0780
F00780
F00780
F00F80
F00F80
F83F80
7FF780
3FE780
0F8780
ENDCHAR
STARTCHAR 00E6
ENCODING 230
SWIDTH 972 0
DWIDTH 35 0
BBX 30 20 2 0
BITMAP
0FE03F80
3FF8FFE0
7FFDFFF0
707FE0F0
401FC078
000F8078
000F003C
000F003C
0FFFFFFC
3FFFFFFC
7FFFFFFC
7C0F0000
F00F0000
F00F8000
F01F8000
F01FC008
F87BF038
7FF1FFF8
3FE0FFF0
0FC03F80
ENDCHAR
STARTCHAR 00E7
ENCODING 231
SWIDTH 555 0
DWIDTH 20 0
BBX 16 27 2 -7
BITMAP
01F8
0FFE
1FFF
3F07
7C01
7800
F800
F000
F000
F000
F000
F000
F000
F800
7800
7C01
3F07
1FFF
0FFE
03F8
0060
0030
0038
0238
03F8
03F8
03F0
ENDCHAR
STARTCHAR 00E8
ENCODING 232
SWIDTH 611 0
DWIDTH 22 0
BBX 18 29 2 0
BITMAP
1E0000
0E0000
070000
038000
018000
01C000
00E000
000000
000000
03F800
0FFE00
1FFF00
3E0F00
7C0780
780780
F003C0
F003C0
FFFFC0
FFFFC0
FFFFC0
F00000
F00000
F80000
780000
7C0080
3F0380
1FFF80
0FFF00
03F800
ENDCHAR
STARTCHAR 00E9
ENCODING 233
SWIDTH 611 0
DWIDTH 22 0
BBX 18 29 2 0
BITMAP
001E00
001C00
003800
007000
007000
00E000
01C000
000000
000000
03F800
0FFE00
1FFF00
3E0F00
7C0780
780780
F003C0
F003C0
FFFFC0
FFFFC0
FFFFC0
F00000
F00000
F80000
780000
7C0080
3F0380
1FFF80
0FFF00
03F800
ENDCHAR
STARTCHAR 00EA
ENCODING 234
SWIDTH 611 0
DWIDTH 22 0
BBX 18 29 2 0
BITMAP
01E000
01E000
03F000
073800
071800
0E1C00
1C0E00
000000
000000
03F800
0FFE00
1FFF00
3E0F00
7C0780
780780
F003C0
F003C0
FFFFC0
FFFFC0
FFFFC0
F00000
F00000
F80000
780000
7C0080
3F0380
1FFF80
0FFF00
03F800
ENDCHAR
STARTCHAR 00EB
ENCODING 235
SWIDTH 611 0
DWIDTH 22 0
BBX 18 27 2 0
BITMAP
0F1E00
0F1E00
0F1E00
0F1E00
000000
000000
000000
03F800
0FFE00
1FFF00
3E0F00
7C0780
780780
F003C0
F003C0
FFFFC0
FFFFC0
FFFFC0
F00000
F00000
F80000
780000
7C0080
3F0380
1FFF80
0FFF00
03F800
ENDCHAR
STARTCHAR 00EC
ENCODING 236
SWIDTH 277 0
DWIDTH 10 0
BBX 8 29 -1 0
BITMAP
F0
70
38
1C
0C
0E
07
00
00
0F
0F
0F
0F
0F
0F
0F
0F
0F
0F
0F
0F
0F
0F
0F
0F
0F
0F
0F
0F
ENDCHAR
STARTCHAR 00ED
ENCODING 237
SWIDTH 277 0
DWIDTH 10 0
BBX 8 29 3 0
BITMAP
0F
0E
1C
38
38
70
E0
00
00
F0
F0
F0
F0
F0
F0
F0
F0
F0
F0
F0
F0
F0
F0
F0
F0
F0
F0
F0
F0
ENDCHAR
STARTCHAR 00EE
ENCODING 238
SWIDTH 277 0
DWIDTH 10 0
BBX 12 29 -1 0
BITMAP
0F00
0F00
1F80
39C0
30C0
70E0
E070
0000
0000
0F00
0F00
0F00
0F00
0F00
0F00
0F00
0F00
0F00
0F00
0F00
0F00
0F00
0F00
0F00
0F00
0F00
0F00
0F00
0F00
ENDCHAR
STARTCHAR 00EF
ENCODING 239
SWIDTH 277 0
DWIDTH 10 0
BBX 10 27 0 0
BITMAP
F3C0
F3C0
F3C0
F3C0
0000
0000
0000
1E00
1E00
1E00
1E00
1E00
1E00
1E00
1E00
1E00
1E00
1E00
1E00
1E00
1E00
1E00
1E00
1E00
1E00
1E00
1E00
ENDCHAR
STARTCHAR 00F0
ENCODING 240
SWIDTH 611 0
DWIDTH 22 0
BBX 18 27 2 0
BITMAP
0F0000
078600
03FE00
01F000
0FE000
3EF000
107800
003C00
03FE00
0FFE00
3FFF00
3E0F80
7C0780
780780
F003C0
F003C0
F003C0
F003C0
F003C0
F003C0
F003C0
780780
7C0F80
3E1F00
1FFE00
0FFC00
03F000
ENDCHAR
STARTCHAR 00F1
ENCODING 241
SWIDTH 638 0
DWIDTH 23 0
BBX 16 28 3 0
BITMAP
0706
0FC6
1DEE
18FC
1838
0000
0000
0000
F1F0
F3FC
F7FE
FE3E
F81E
F80F
F00F
F00F
F00F
F00F
F00F
F00F
F00F
F00F
F00F
F00F
F00F
F00F
F00F
F00F
ENDCHAR
STARTCHAR 00F2
ENCODING 242
SWIDTH 611 0
DWIDTH 22 0
BBX 18 29 2 0
BITMAP
1E0000
0E0000
070000
038000
018000
01C000
00E000
000000
000000
03F000
0FFC00
1FFE00
3E1F00
7C0F80
780780
F807C0
F003C0
F003C0
F003C0
F003C0
F003C0
F003C0
F807C0
780780
7C0F80
3E1F00
1FFE00
0FFC00
03F000
ENDCHAR
STARTCHAR 00F3
ENCODING 243
SWIDTH 611 0
DWIDTH 22 0
BBX 18 29 2 0
BITMAP
001E00
001C00
003800
007000
007000
00E000
01C000
000000
000000
03F000
0FFC00
1FFE00
3E1F00
7C0F80
780780
F807C0
F003C0
F003C0
F003C0
F003C0
F003C0
F003C0
F807C0
780780
7C0F80
3E1F00
1FFE00
0FFC00
03F000
ENDCHAR
STARTCHAR 00F4
ENCODING 244
SWIDTH 611 0
DWIDTH 22 0
BBX 18 29 2 0
BITMAP
00C000
01E000
03F000
033000
073800
061800
0E0C00
000000
000000
03F000
0FFC00
1FFE00
3E1F00
7C0F80
780780
F807C0
F003C0
F003C0
F003C0
F003C0
F003C0
F003C0
F807C0
780780
7C0F80
3E1F00
1FFE00
0FFC00
03F000
ENDCHAR
STARTCHAR 00F5
ENCODING 245
SWIDTH 611 0
DWIDTH 22 0
BBX 18 28 2 0
BITMAP
070600
0FC600
1DEE00
18FC00
183800
000000
000000
000000
03F000
0FFC00
1FFE00
3E1F00
7C0F80
780780
F807C0
F003C0
F003C0
F003C0
F003C0
F003C0
F003C0
F807C0
780780
7C0F80
3E1F00
1FFE00
0FFC00
03F000
ENDCHAR
STARTCHAR 00F6
ENCODING 246
SWIDTH 611 0
DWIDTH 22 0
BBX 18 27 2 0
BITMAP
1E1E00
1E1E00
1E1E00
1E1E00
000000
000000
000000
03F000
0FFC00
1FFE00
3E1F00
7C0F80
780780
F807C0
F003C0
F003C0
F003C0
F003C0
F003C0
F003C0
F807C0
780780
7C0F80
3E1F00
1FFE00
0FFC00
03F000
ENDCHAR
STARTCHAR 00F7
ENCODING 247
SWIDTH 833 0
DWIDTH 30 0
BBX 22 17 4 3
BITMAP
007800
007800
007800
007800
000000
000000
000000
FFFFFC
FFFFFC
FFFFFC
000000
000000
000000
007800
007800
007800
007800
ENDCHAR
STARTCHAR 00F8
ENCODING 248
SWIDTH 611 0
DWIDTH 22 0
BBX 18 22 2 -1
BITMAP
0000C0
03F1C0
1FFBC0
3FFF80
3E1F00
7C0F00
781F80
F83B80
F033C0
F063C0
F0E3C0
F1C3C0
F183C0
F303C0
7607C0
7E0780
3C0F80
3E1F00
7FFF00
F7FC00
E3F000
C00000
ENDCHAR
STARTCHAR 00F9
ENCODING 249
SWIDTH 638 0
DWIDTH 23 0
BBX 16 29 3 0
BITMAP
3C00
1C00
0E00
0700
0300
0380
01C0
0000
0000
F00F
F00F
F00F
F00F
F00F
F00F
F00F
F00F
F00F
F00F
F00F
F00F
F00F
F00F
F01F
F81F
7C7F
7FEF
3FCF
0F8F
ENDCHAR
STARTCHAR 00FA
ENCODING 250
SWIDTH 638 0
DWIDTH 23 0
BBX 16 29 3 0
BITMAP
003C
0038
0070
00E0
00E0
01C0
0380
0000
0000
F00F
F00F
F00F
F00F
F00F
F00F
F00F
F00F
F00F
F00F
F00F
F00F
F00F
F00F
F01F
F81F
7C7F
7FEF
3FCF
0F8F
ENDCHAR
STARTCHAR 00FB
ENCODING 251
SWIDTH 638 0
DWIDTH 23 0
BBX 16 29 3 0
BITMAP
0180
03C0
07E0
0660
0E70
0C30
1C18
0000
0000
F00F
F00F
F00F
F00F
F00F
F00F
F00F
F00F
F00F
F00F
F00F
F00F
F00F
F00F
F01F
F81F
7C7F
7FEF
3FCF
0F8F
ENDCHAR
STARTCHAR 00FC
ENCODING 252
SWIDTH 638 0
DWIDTH 23 0
BBX 16 27 3 0
BITMAP
1E78
1E78
1E78
1E78
0000
0000
0000
F00F
F00F
F00F
F00F
F00F
F00F
F00F
F00F
F00F
F00F
F00F
F00F
F00F
F00F
F01F
F81F
7C7F
7FEF
3FCF
0F8F
ENDCHAR
STARTCHAR 00FD
ENCODING 253
SWIDTH 583 0
DWIDTH 21 0
BBX 19 36 1 -7
BITMAP
000F00
000E00
001C00
003800
003800
007000
00E000
000000
000000
F803E0
7803C0
7803C0
7C07C0
3C0780
3E0F80
1E0F00
1E0F00
0F1F00
0F1E00
0FBE00
07BC00
07BC00
03FC00
03F800
03F800
01F000
01F000
01F000
01E000
03E000
03C000
07C000
07C000
3F8000
3F0000
3E0000
ENDCHAR
STARTCHAR 00FE
ENCODING 254
SWIDTH 638 0
DWIDTH 23 0
BBX 18 34 3 -7
BITMAP
F00000
F00000
F00000
F00000
F00000
F00000
F00000
F1F800
F7FE00
FFFF00
FE1F00
FC0F80
F80780
F807C0
F003C0
F003C0
F003C0
F003C0
F003C0
F003C0
F007C0
F80780
FC0F80
FE1F00
FFFF00
F7FE00
F1F800
F00000
F00000
F00000
F00000
F00000
F00000
F00000
ENDCHAR
STARTCHAR 00FF
ENCODING 255
SWIDTH 583 0
DWIDTH 21 0
BBX 19 34 1 -7
BITMAP
0F1E00
0F1E00
0F1E00
0F1E00
000000
000000
000000
F803E0
7803C0
7803C0
7C07C0
3C0780
3E0F80
1E0F00
1E0F00
0F1F00
0F1E00
0FBE00
07BC00
07BC00
03FC00
03F800
03F800
01F000
01F000
01F000
01E000
03E000
03C000
07C000
07C000
3F8000
3F0000
3E0000
ENDCHAR
STARTCHAR 0100
ENCODING 256
SWIDTH 694 0
DWIDTH 25 0
BBX 24 33 0 0
BITMAP
01FF80
01FF80
01FF80
000000
000000
000000
000000
003C00
007E00
007E00
007E00
00FF00
00FF00
01FF80
01E780
01E780
03E7C0
03C3C0
03C3C0
07C1E0
0781E0
0F81F0
0F00F0
0FFFF0
1FFFF8
1FFFF8
3E0078
3C003C
3C003C
7C003E
78001E
78001E
F0000F
ENDCHAR
STARTCHAR 0101
ENCODING 257
SWIDTH 611 0
DWIDTH 22 0
BBX 17 27 2 0
BITMAP
1FFC00
1FFC00
1FFC00
000000
000000
000000
000000
07F000
3FFC00
7FFE00
703F00
400F00
000780
000780
000780
07FF80
3FFF80
7FFF80
7C0780
F00780
F00780
F00F80
F00F80
F83F80
7FF780
3FE780
0F8780
ENDCHAR
STARTCHAR 0102
ENCODING 258
SWIDTH 694 0
DWIDTH 25 0
BBX 24 35 0 0
BITMAP
018180
018180
01C380
00FF00
00FF00
003C00
000000
000000
000000
003C00
007E00
007E00
007E00
00FF00
00FF00
01FF80
01E780
01E780
03E7C0
03C3C0
03C3C0
07C1E0
0781E0
0F81F0
0F00F0
0FFFF0
1FFFF8
1FFFF8
3E0078
3C003C
3C003C
7C003E
78001E
78001E
F0000F
ENDCHAR
STARTCHAR 0103
ENCODING 259
SWIDTH 611 0
DWIDTH 22 0
BBX 17 28 2 0
BITMAP
180C00
181C00
1C1C00
0FF800
07F000
03E000
000000
000000
07F000
3FFC00
7FFE00
703F00
400F00
000780
000780
000780
07FF80
3FFF80
7FFF80
7C0780
F00780
F00780
F00F80
F00F80
F83F80
7FF780
3FE780
0F8780
ENDCHAR
STARTCHAR 0104
ENCODING 260
SWIDTH 694 0
DWIDTH 25 0
BBX 26 33 0 -7
BITMAP
003C0000
007E0000
007E0000
007E0000
00FF0000
00FF0000
01FF8000
01E78000
01E78000
03E7C000
03C3C000
03C3C000
07C1E000
0781E000
0F81F000
0F00F000
0FFFF000
1FFFF800
1FFFF800
3E007800
3C003C00
3C003C00
7C003E00
78001E00
78001E00
F0000F00
00000600
00000C00
00001C00
00001C40
00001FC0
00001FC0
000007C0
ENDCHAR
STARTCHAR 0105
ENCODING 261
SWIDTH 611 0
DWIDTH 22 0
BBX 19 27 2 -7
BITMAP
07F000
3FFC00
7FFE00
703F00
400F00
000780
000780
000780
07FF80
3FFF80
7FFF80
7C0780
F00780
F00780
F00F80
F00F80
F83F80
7FF780
3FE780
0F8780
000300
000600
000E00
000E20
000FE0
000FE0
0003E0
ENDCHAR
STARTCHAR 0106
ENCODING 262
SWIDTH 694 0
DWIDTH 25 0
BBX 21 34 2 0
BITMAP
000700
000F00
000E00
001C00
003800
000000
000000
000000
007F00
03FFE0
0FFFF0
1FC0F8
3F0038
3C0018
7C0000
780000
780000
F00000
F00000
F00000
F00000
F00000
F00000
F00000
F00000
780000
780000
7C0000
3C0018
3F0038
1FC0F8
0FFFF0
03FFE0
007F00
ENDCHAR
STARTCHAR 0107
ENCODING 263
SWIDTH 555 0
DWIDTH 20 0
BBX 16 29 2 0
BITMAP
001E
001C
0038
0070
0070
00E0
01C0
0000
0000
01F8
0FFE
1FFF
3F07
7C01
7800
F800
F000
F000
F000
F000
F000
F000
F800
7800
7C01
3F07
1FFF
0FFE
03F8
ENDCHAR
STARTCHAR 0108
ENCODING 264
SWIDTH 694 0
DWIDTH 25 0
BBX 21 34 2 0
BITMAP
003E00
003E00
007700
00E380
01C1C0
000000
000000
000000
007F00
03FFE0
0FFFF0
1FC0F8
3F0038
3C0018
7C0000
780000
780000
F00000
F00000
F00000
F00000
F00000
F00000
F00000
F00000
780000
780000
7C0000
3C0018
3F0038
1FC0F8
0FFFF0
03FFE0
007F00
ENDCHAR
STARTCHAR 0109
ENCODING 265
SWIDTH 555 0
DWIDTH 20 0
BBX 16 29 2 0
BITMAP
00E0
01F0
01B0
03B8
0718
060C
0E0E
0000
0000
01F8
0FFE
1FFF
3F07
7C01
7800
F800
F000
F000
F000
F000
F000
F000
F800
7800
7C01
3F07
1FFF
0FFE
03F8
ENDCHAR
STARTCHAR 010A
ENCODING 266
SWIDTH 694 0
DWIDTH 25 0
BBX 21 34 2 0
BITMAP
001E00
001E00
001E00
001E00
000000
000000
000000
000000
007F00
03FFE0
0FFFF0
1FC0F8
3F0038
3C0018
7C0000
780000
780000
F00000
F00000
F00000
F00000
F00000
F00000
F00000
F00000
780000
780000
7C0000
3C0018
3F0038
1FC0F8
0FFFF0
03FFE0
007F00
ENDCHAR
STARTCHAR 010B
ENCODING 267
SWIDTH 555 0
DWIDTH 20 0
BBX 16 27 2 0
BITMAP
00F0
00F0
00F0
00F0
0000
0000
0000
01F8
0FFE
1FFF
3F07
7C01
7800
F800
F000
F000
F000
F000
F000
F000
F800
7800
7C01
3F07
1FFF
0FFE
03F8
ENDCHAR
STARTCHAR 010C
ENCODING 268
SWIDTH 694 0
DWIDTH 25 0
BBX 21 34 2 0
BITMAP
01C1C0
00E380
007700
003E00
003E00
000000
000000
000000
007F00
03FFE0
0FFFF0
1FC0F8
3F0038
3C0018
7C0000
780000
780000
F00000
F00000
F00000
F00000
F00000
F00000
F00000
F00000
780000
780000
7C0000
3C0018
3F0038
1FC0F8
0FFFF0
03FFE0
007F00
ENDCHAR
STARTCHAR 010D
ENCODING 269
SWIDTH 555 0
DWIDTH 20 0
BBX 16 29 2 0
BITMAP
1C1C
0C18
0638
0770
0360
03E0
01C0
0000
0000
01F8
0FFE
1FFF
3F07
7C01
7800
F800
F000
F000
F000
F000
F000
F000
F800
7800
7C01
3F07
1FFF
0FFE
03F8
ENDCHAR
STARTCHAR 010E
ENCODING 270
SWIDTH 777 0
DWIDTH 28 0
BBX 22 34 3 0
BITMAP
070700
038E00
01DC00
00F800
00F800
000000
000000
000000
FFF800
FFFF00
FFFFC0
F00FE0
F003F0
F000F0
F000F8
F00078
F0007C
F0003C
F0003C
F0003C
F0003C
F0003C
F0003C
F0003C
F0003C
F0007C
F00078
F000F8
F000F0
F003F0
F00FE0
FFFFC0
FFFF00
FFF800
ENDCHAR
STARTCHAR 010F
ENCODING 271
SWIDTH 638 0
DWIDTH 23 0
BBX 24 28 2 0
BITMAP
000007
0003C7
0003C7
0003CE
0003CE
0003CE
0003CE
0003C0
07E3C0
1FFBC0
3FFFC0
3E1FC0
7C0FC0
7807C0
F807C0
F003C0
F003C0
F003C0
F003C0
F003C0
F003C0
F007C0
7807C0
7C0FC0
3E1FC0
3FFFC0
1FFBC0
07E3C0
ENDCHAR
STARTCHAR 0110
ENCODING 272
SWIDTH 777 0
DWIDTH 28 0
BBX 26 26 0 0
BITMAP
0FFF8000
0FFFF000
0FFFFC00
0F00FE00
0F001F00
0F000F00
0F000F80
0F000780
0F0007C0
0F0003C0
0F0003C0
FFFC03C0
FFFC03C0
FFFC03C0
0F0003C0
0F0003C0
0F0003C0
0F0007C0
0F000780
0F000F80
0F000F00
0F001F00
0F00FE00
0FFFFC00
0FFFF000
0FFF8000
ENDCHAR
STARTCHAR 0111
ENCODING 273
SWIDTH 638 0
DWIDTH 23 0
BBX 21 27 2 0
BITMAP
0003C0
0003C0
0003C0
00FFF8
00FFF8
0003C0
0003C0
07E3C0
1FFBC0
3FFFC0
3E1FC0
7C0FC0
7807C0
F807C0
F003C0
F003C0
F003C0
F003C0
F003C0
F003C0
F007C0
7807C0
7C0FC0
3E1FC0
3FFFC0
1FFBC0
07E3C0
ENDCHAR
STARTCHAR 0112
ENCODING 274
SWIDTH 638 0
DWIDTH 23 0
BBX 17 33 3 0
BITMAP
0FFE00
0FFE00
0FFE00
000000
000000
000000
000000
FFFF80
FFFF80
FFFF80
F00000
F00000
F00000
F00000
F00000
F00000
F00000
F00000
FFFF00
FFFF00
FFFF00
F00000
F00000
F00000
F00000
F00000
F00000
F00000
F00000
F00000
FFFF80
FFFF80
FFFF80
ENDCHAR
STARTCHAR 0113
ENCODING 275
SWIDTH 611 0
DWIDTH 22 0
BBX 18 27 2 0
BITMAP
07FF00
07FF00
07FF00
000000
000000
000000
000000
03F800
0FFE00
1FFF00
3E0F00
7C0780
780780
F003C0
F003C0
FFFFC0
FFFFC0
FFFFC0
F00000
F00000
F80000
780000
7C0080
3F0380
1FFF80
0FFF00
03F800
ENDCHAR
STARTCHAR 0114
ENCODING 276
SWIDTH 638 0
DWIDTH 23 0
BBX 17 34 3 0
BITMAP
180C00
1C1C00
0FF800
03E000
000000
000000
000000
000000
FFFF80
FFFF80
FFFF80
F00000
F00000
F00000
F00000
F00000
F00000
F00000
F00000
FFFF00
FFFF00
FFFF00
F00000
F00000
F00000
F00000
F00000
F00000
F00000
F00000
F00000
FFFF80
FFFF80
FFFF80
ENDCHAR
STARTCHAR 0115
ENCODING 277
SWIDTH 611 0
DWIDTH 22 0
BBX 18 29 2 0
BITMAP
060300
060700
070700
03FE00
01FC00
00F800
000000
000000
000000
03F800
0FFE00
1FFF00
3E0F00
7C0780
780780
F003C0
F003C0
FFFFC0
FFFFC0
FFFFC0
F00000
F00000
F80000
780000
7C0080
3F0380
1FFF80
0FFF00
03F800
ENDCHAR
STARTCHAR 0116
ENCODING 278
SWIDTH 638 0
DWIDTH 23 0
BBX 17 34 3 0
BITMAP
01E000
01E000
01E000
01E000
000000
000000
000000
000000
FFFF80
FFFF80
FFFF80
F00000
F00000
F00000
F00000
F00000
F00000
F00000
F00000
FFFF00
FFFF00
FFFF00
F00000
F00000
F00000
F00000
F00000
F00000
F00000
F00000
F00000
FFFF80
FFFF80
FFFF80
ENDCHAR
STARTCHAR 0117
ENCODING 279
SWIDTH 611 0
DWIDTH 22 0
BBX 18 27 2 0
BITMAP
00F000
00F000
00F000
00F000
000000
000000
000000
03F800
0FFE00
1FFF00
3E0F00
7C0780
780780
F003C0
F003C0
FFFFC0
FFFFC0
FFFFC0
F00000
F00000
F80000
780000
7C0080
3F0380
1FFF80
0FFF00
03F800
ENDCHAR
STARTCHAR 0118
ENCODING 280
SWIDTH 638 0
DWIDTH 23 0
BBX 18 33 3 -7
BITMAP
FFFF80
FFFF80
FFFF80
F00000
F00000
F00000
F00000
F00000
F00000
F00000
F00000
FFFF00
FFFF00
FFFF00
F00000
F00000
F00000
F00000
F00000
F00000
F00000
F00000
F00000
FFFF80
FFFF80
FFFF80
000600
000C00
001C00
001C40
001FC0
001FC0
0007C0
ENDCHAR
STARTCHAR 0119
ENCODING 281
SWIDTH 611 0
DWIDTH 22 0
BBX 18 27 2 -7
BITMAP
03F800
0FFE00
1FFF00
3E0F00
7C0780
780780
F003C0
F003C0
FFFFC0
FFFFC0
FFFFC0
F00000
F00000
F80000
780000
7C0080
3F0380
1FFF80
0FFF00
03F800
000600
000C00
001C00
001C40
001FC0
001FC0
0007C0
ENDCHAR
STARTCHAR 011A
ENCODING 282
SWIDTH 638 0
DWIDTH 23 0
BBX 17 33 3 0
BITMAP
0E0E00
071C00
03B800
01F000
01F000
000000
000000
FFFF80
FFFF80
FFFF80
F00000
F00000
F00000
F00000
F00000
F00000
F00000
F00000
FFFF00
FFFF00
FFFF00
F00000
F00000
F00000
F00000
F00000
F00000
F00000
F00000
F00000
FFFF80
FFFF80
FFFF80
ENDCHAR
STARTCHAR 011B
ENCODING 283
SWIDTH 611 0
DWIDTH 22 0
BBX 18 29 2 0
BITMAP
0E1C00
061800
073800
033000
03F000
01E000
00C000
000000
000000
03F800
0FFE00
1FFF00
3E0F00
7C0780
780780
F003C0
F003C0
FFFFC0
FFFFC0
FFFFC0
F00000
F00000
F80000
780000
7C0080
3F0380
1FFF80
0FFF00
03F800
ENDCHAR
STARTCHAR 011C
ENCODING 284
SWIDTH 777 0
DWIDTH 28 0
BBX 23 34 2 0
BITMAP
001E00
003F00
007380
006180
00C0C0
000000
000000
000000
007F80
03FFF0
0FFFF8
1FC07C
3F001C
3C000C
7C0004
780000
780000
F00000
F00000
F00000
F007FE
F007FE
F007FE
F0001E
F0001E
78001E
78001E
7C001E
3C001E
1E001E
1FC07E
07FFFC
03FFF0
007F80
ENDCHAR
STARTCHAR 011D
ENCODING 285
SWIDTH 638 0
DWIDTH 23 0
BBX 18 36 2 -7
BITMAP
01E000
01E000
03F000
033000
073800
0E1C00
0C0C00
000000
000000
07E3C0
1FFBC0
3FFFC0
3E1FC0
7C0FC0
7807C0
F007C0
F003C0
F003C0
F003C0
F003C0
F003C0
F003C0
F007C0
7807C0
7C0FC0
3E1FC0
3FFFC0
1FFBC0
07E3C0
0003C0
000780
200F80
381F80
3FFF00
1FFE00
07F000
ENDCHAR
STARTCHAR 011E
ENCODING 286
SWIDTH 777 0
DWIDTH 28 0
BBX 23 34 2 0
BITMAP
030180
038380
01FF00
007C00
000000
000000
000000
000000
007F80
03FFF0
0FFFF8
1FC07C
3F001C
3C000C
7C0004
780000
780000
F00000
F00000
F00000
F007FE
F007FE
F007FE
F0001E
F0001E
78001E
78001E
7C001E
3C001E
1E001E
1FC07E
07FFFC
03FFF0
007F80
ENDCHAR
STARTCHAR 011F
ENCODING 287
SWIDTH 638 0
DWIDTH 23 0
BBX 18 36 2 -7
BITMAP
0C0600
0C0E00
0E0E00
07FC00
03F800
01F000
000000
000000
000000
07E3C0
1FFBC0
3FFFC0
3E1FC0
7C0FC0
7807C0
F007C0
F003C0
F003C0
F003C0
F003C0
F003C0
F003C0
F007C0
7807C0
7C0FC0
3E1FC0
3FFFC0
1FFBC0
07E3C0
0003C0
000780
200F80
381F80
3FFF00
1FFE00
07F000
ENDCHAR
STARTCHAR 0120
ENCODING 288
SWIDTH 777 0
DWIDTH 28 0
BBX 23 34 2 0
BITMAP
001E00
001E00
001E00
001E00
000000
000000
000000
000000
007F80
03FFF0
0FFFF8
1FC07C
3F001C
3C000C
7C0004
780000
780000
F00000
F00000
F00000
F007FE
F007FE
F007FE
F0001E
F0001E
78001E
78001E
7C001E
3C001E
1E001E
1FC07E
07FFFC
03FFF0
007F80
ENDCHAR
STARTCHAR 0121
ENCODING 289
SWIDTH 638 0
DWIDTH 23 0
BBX 18 34 2 -7
BITMAP
01E000
01E000
01E000
01E000
000000
000000
000000
07E3C0
1FFBC0
3FFFC0
3E1FC0
7C0FC0
7807C0
F007C0
F003C0
F003C0
F003C0
F003C0
F003C0
F003C0
F007C0
7807C0
7C0FC0
3E1FC0
3FFFC0
1FFBC0
07E3C0
0003C0
000780
200F80
381F80
3FFF00
1FFE00
07F000
ENDCHAR
STARTCHAR 0122
ENCODING 290
SWIDTH 777 0
DWIDTH 28 0
BBX 23 35 2 -9
BITMAP
007F80
03FFF0
0FFFF8
1FC07C
3F001C
3C000C
7C0004
780000
780000
F00000
F00000
F00000
F007FE
F007FE
F007FE
F0001E
F0001E
78001E
78001E
7C001E
3C001E
1E001E
1FC07E
07FFFC
03FFF0
007F80
000000
000000
000000
000E00
001E00
001C00
001C00
001800
003800
ENDCHAR
STARTCHAR 0123
ENCODING 291
SWIDTH 638 0
DWIDTH 23 0
BBX 18 36 2 -7
BITMAP
007000
006000
00E000
00E000
01E000
01C000
000000
000000
000000
07E3C0
1FFBC0
3FFFC0
3E1FC0
7C0FC0
7807C0
F007C0
F003C0
F003C0
F003C0
F003C0
F003C0
F003C0
F007C0
7807C0
7C0FC0
3E1FC0
3FFFC0
1FFBC0
07E3C0
0003C0
000780
200F80
381F80
3FFF00
1FFE00
07F000
ENDCHAR
STARTCHAR 0124
ENCODING 292
SWIDTH 750 0
DWIDTH 27 0
BBX 20 34 3 0
BITMAP
00F000
01F800
019800
038C00
070E00
000000
000000
000000
F000F0
F000F0
F000F0
F000F0
F000F0
F000F0
F000F0
F000F0
F000F0
F000F0
F000F0
FFFFF0
FFFFF0
FFFFF0
F000F0
F000F0
F000F0
F000F0
F000F0
F000F0
F000F0
F000F0
F000F0
F000F0
F000F0
F000F0
ENDCHAR
STARTCHAR 0125
ENCODING 293
SWIDTH 638 0
DWIDTH 23 0
BBX 20 34 -1 0
BITMAP
0F0000
1F8000
39C000
70E000
E07000
000000
000000
0F0000
0F0000
0F0000
0F0000
0F0000
0F0000
0F0000
0F1F00
0F3FC0
0F7FE0
0FE3E0
0F81E0
0F80F0
0F00F0
0F00F0
0F00F0
0F00F0
0F00F0
0F00F0
0F00F0
0F00F0
0F00F0
0F00F0
0F00F0
0F00F0
0F00F0
0F00F0
ENDCHAR
STARTCHAR 0126
ENCODING 294
SWIDTH 916 0
DWIDTH 33 0
BBX 26 26 3 0
BITMAP
1E001E00
1E001E00
1E001E00
1E001E00
FFFFFFC0
FFFFFFC0
FFFFFFC0
1E001E00
1E001E00
1E001E00
1E001E00
1FFFFE00
1FFFFE00
1FFFFE00
1E001E00
1E001E00
1E001E00
1E001E00
1E001E00
1E001E00
1E001E00
1E001E00
1E001E00
1E001E00
1E001E00
1E001E00
ENDCHAR
STARTCHAR 0127
ENCODING 295
SWIDTH 694 0
DWIDTH 25 0
BBX 18 27 2 0
BITMAP
3C0000
3C0000
FFE000
FFE000
FFE000
3C0000
3C0000
3C7C00
3CFF00
3DFF80
3F8F80
3E0780
3E03C0
3C03C0
3C03C0
3C03C0
3C03C0
3C03C0
3C03C0
3C03C0
3C03C0
3C03C0
3C03C0
3C03C0
3C03C0
3C03C0
3C03C0
ENDCHAR
STARTCHAR 0128
ENCODING 296
SWIDTH 305 0
DWIDTH 11 0
BBX 12 34 -1 0
BITMAP
3830
7E30
C7E0
C1C0
0000
0000
0000
0000
0F00
0F00
0F00
0F00
0F00
0F00
0F00
0F00
0F00
0F00
0F00
0F00
0F00
0F00
0F00
0F00
0F00
0F00
0F00
0F00
0F00
0F00
0F00
0F00
0F00
0F00
ENDCHAR
STARTCHAR 0129
ENCODING 297
SWIDTH 277 0
DWIDTH 10 0
BBX 12 28 -1 0
BITMAP
3830
7E30
EF70
C7E0
C1C0
0000
0000
0000
0F00
0F00
0F00
0F00
0F00
0F00
0F00
0F00
0F00
0F00
0F00
0F00
0F00
0F00
0F00
0F00
0F00
0F00
0F00
0F00
ENDCHAR
STARTCHAR 012A
ENCODING 298
SWIDTH 305 0
DWIDTH 11 0
BBX 12 33 -1 0
BITMAP
FFF0
FFF0
FFF0
0000
0000
0000
0000
0F00
0F00
0F00
0F00
0F00
0F00
0F00
0F00
0F00
0F00
0F00
0F00
0F00
0F00
0F00
0F00
0F00
0F00
0F00
0F00
0F00
0F00
0F00
0F00
0F00
0F00
ENDCHAR
STARTCHAR 012B
ENCODING 299
SWIDTH 277 0
DWIDTH 10 0
BBX 12 27 -1 0
BITMAP
FFF0
FFF0
FFF0
0000
0000
0000
0000
0F00
0F00
0F00
0F00
0F00
0F00
0F00
0F00
0F00
0F00
0F00
0F00
0F00
0F00
0F00
0F00
0F00
0F00
0F00
0F00
ENDCHAR
STARTCHAR 012C
ENCODING 300
SWIDTH 305 0
DWIDTH 11 0
BBX 12 34 -1 0
BITMAP
C030
E070
7FE0
1F80
0000
0000
0000
0000
0F00
0F00
0F00
0F00
0F00
0F00
0F00
0F00
0F00
0F00
0F00
0F00
0F00
0F00
0F00
0F00
0F00
0F00
0F00
0F00
0F00
0F00
0F00
0F00
0F00
0F00
ENDCHAR
STARTCHAR 012D
ENCODING 301
SWIDTH 277 0
DWIDTH 10 0
BBX 12 29 -1 0
BITMAP
C030
E070
F0F0
7FE0
3FC0
1F80
0000
0000
0000
0F00
0F00
0F00
0F00
0F00
0F00
0F00
0F00
0F00
0F00
0F00
0F00
0F00
0F00
0F00
0F00
0F00
0F00
0F00
0F00
ENDCHAR
STARTCHAR 012E
ENCODING 302
SWIDTH 305 0
DWIDTH 11 0
BBX 7 33 3 -7
BITMAP
F0
F0
F0
F0
F0
F0
F0
F0
F0
F0
F0
F0
F0
F0
F0
F0
F0
F0
F0
F0
F0
F0
F0
F0
F0
F0
30
60
E0
E2
FE
FE
3E
ENDCHAR
STARTCHAR 012F
ENCODING 303
SWIDTH 277 0
DWIDTH 10 0
BBX 7 34 3 -7
BITMAP
F0
F0
F0
F0
00
00
00
F0
F0
F0
F0
F0
F0
F0
F0
F0
F0
F0
F0
F0
F0
F0
F0
F0
F0
F0
F0
30
60
E0
E2
FE
FE
3E
ENDCHAR
STARTCHAR 0130
ENCODING 304
SWIDTH 305 0
DWIDTH 11 0
BBX 4 34 3 0
BITMAP
F0
F0
F0
F0
00
00
00
00
F0
F0
F0
F0
F0
F0
F0
F0
F0
F0
F0
F0
F0
F0
F0
F0
F0
F0
F0
F0
F0
F0
F0
F0
F0
F0
ENDCHAR
STARTCHAR 0131
ENCODING 305
SWIDTH 277 0
DWIDTH 10 0
BBX 4 20 3 0
BITMAP
F0
F0
F0
F0
F0
F0
F0
F0
F0
F0
F0
F0
F0
F0
F0
F0
F0
F0
F0
F0
ENDCHAR
STARTCHAR 0132
ENCODING 306
SWIDTH 583 0
DWIDTH 21 0
BBX 15 33 3 -7
BITMAP
F01E
F01E
F01E
F01E
F01E
F01E
F01E
F01E
F01E
F01E
F01E
F01E
F01E
F01E
F01E
F01E
F01E
F01E
F01E
F01E
F01E
F01E
F01E
F01E
F01E
F01E
001E
001E
003C
007C
03F8
03F0
03E0
ENDCHAR
STARTCHAR 0133
ENCODING 307
SWIDTH 555 0
DWIDTH 20 0
BBX 14 34 3 -7
BITMAP
F03C
F03C
F03C
F03C
0000
0000
0000
F03C
F03C
F03C
F03C
F03C
F03C
F03C
F03C
F03C
F03C
F03C
F03C
F03C
F03C
F03C
F03C
F03C
F03C
F03C
F03C
003C
003C
003C
0078
03F8
03F0
03C0
ENDCHAR
STARTCHAR 0134
ENCODING 308
SWIDTH 305 0
DWIDTH 11 0
BBX 13 41 -2 -7
BITMAP
0780
0FC0
1CE0
3870
7038
0000
0000
0000
0780
0780
0780
0780
0780
0780
0780
0780
0780
0780
0780
0780
0780
0780
0780
0780
0780
0780
0780
0780
0780
0780
0780
0780
0780
0780
0780
0780
0F00
1F00
FE00
FC00
F800
ENDCHAR
STARTCHAR 0135
ENCODING 309
SWIDTH 277 0
DWIDTH 10 0
BBX 12 36 -1 -7
BITMAP
0F00
0F00
1F80
39C0
30C0
70E0
E070
0000
0000
0F00
0F00
0F00
0F00
0F00
0F00
0F00
0F00
0F00
0F00
0F00
0F00
0F00
0F00
0F00
0F00
0F00
0F00
0F00
0F00
0F00
0F00
0F00
1E00
FE00
FC00
F000
ENDCHAR
STARTCHAR 0136
ENCODING 310
SWIDTH 666 0
DWIDTH 24 0
BBX 21 35 3 -9
BITMAP
F003E0
F007C0
F00F80
F03F00
F07E00
F0FC00
F1F800
F3F000
F7E000
FFC000
FF8000
FF0000
FF0000
FF8000
FFC000
F7E000
F3F000
F1F800
F0FC00
F07E00
F03F00
F01F80
F00FC0
F007E0
F003F0
F001F8
000000
000000
000000
003800
007800
007000
007000
006000
00E000
ENDCHAR
STARTCHAR 0137
ENCODING 311
SWIDTH 583 0
DWIDTH 21 0
BBX 17 36 3 -9
BITMAP
F00000
F00000
F00000
F00000
F00000
F00000
F00000
F01F00
F03E00
F07C00
F1F800
F3F000
F7E000
FFC000
FF8000
FF0000
FE0000
FF0000
FF8000
F7C000
F3E000
F3F000
F1F800
F0FC00
F07E00
F03F00
F01F80
000000
000000
000000
00E000
01E000
01C000
01C000
018000
038000
ENDCHAR
STARTCHAR 0138
ENCODING 312
SWIDTH 583 0
DWIDTH 21 0
BBX 17 20 3 0
BITMAP
F01F00
F03E00
F07C00
F0F800
F3F000
F7E000
FFC000
FF8000
FF0000
FE0000
FF0000
FF8000
F7C000
F3E000
F3F000
F1F800
F0FC00
F07E00
F03F00
F01F80
ENDCHAR
STARTCHAR 0139
ENCODING 313
SWIDTH 555 0
DWIDTH 20 0
BBX 16 34 3 0
BITMAP
0E00
1E00
1C00
3800
7000
0000
0000
0000
F000
F000
F000
F000
F000
F000
F000
F000
F000
F000
F000
F000
F000
F000
F000
F000
F000
F000
F000
F000
F000
F000
F000
FFFF
FFFF
FFFF
ENDCHAR
STARTCHAR 013A
ENCODING 314
SWIDTH 277 0
DWIDTH 10 0
BBX 6 34 3 0
BITMAP
1C
3C
38
70
E0
00
00
F0
F0
F0
F0
F0
F0
F0
F0
F0
F0
F0
F0
F0
F0
F0
F0
F0
F0
F0
F0
F0
F0
F0
F0
F0
F0
F0
ENDCHAR
STARTCHAR 013B
ENCODING 315
SWIDTH 555 0
DWIDTH 20 0
BBX 16 35 3 -9
BITMAP
F000
F000
F000
F000
F000
F000
F000
F000
F000
F000
F000
F000
F000
F000
F000
F000
F000
F000
F000
F000
F000
F000
F000
FFFF
FFFF
FFFF
0000
0000
0000
00E0
01E0
01C0
01C0
0180
0380
ENDCHAR
STARTCHAR 013C
ENCODING 316
SWIDTH 277 0
DWIDTH 10 0
BBX 5 36 2 -9
BITMAP
78
78
78
78
78
78
78
78
78
78
78
78
78
78
78
78
78
78
78
78
78
78
78
78
78
78
78
00
00
00
38
78
70
70
60
E0
ENDCHAR
STARTCHAR 013D
ENCODING 317
SWIDTH 555 0
DWIDTH 20 0
BBX 16 27 3 0
BITMAP
0070
F070
F070
F0E0
F0E0
F0E0
F0E0
F000
F000
F000
F000
F000
F000
F000
F000
F000
F000
F000
F000
F000
F000
F000
F000
F000
FFFF
FFFF
FFFF
ENDCHAR
STARTCHAR 013E
ENCODING 318
SWIDTH 388 0
DWIDTH 14 0
BBX 10 28 3 0
BITMAP
01C0
F1C0
F1C0
F380
F380
F380
F380
F000
F000
F000
F000
F000
F000
F000
F000
F000
F000
F000
F000
F000
F000
F000
F000
F000
F000
F000
F000
F000
ENDCHAR
STARTCHAR 013F
ENCODING 319
SWIDTH 555 0
DWIDTH 20 0
BBX 16 26 3 0
BITMAP
F000
F000
F000
F000
F000
F000
F000
F000
F000
F01E
F01E
F01E
F01E
F000
F000
F000
F000
F000
F000
F000
F000
F000
F000
FFFF
FFFF
FFFF
ENDCHAR
STARTCHAR 0140
ENCODING 320
SWIDTH 333 0
DWIDTH 12 0
BBX 9 27 3 0
BITMAP
F000
F000
F000
F000
F000
F000
F000
F000
F000
F000
F780
F780
F780
F780
F000
F000
F000
F000
F000
F000
F000
F000
F000
F000
F000
F000
F000
ENDCHAR
STARTCHAR 0141
ENCODING 321
SWIDTH 555 0
DWIDTH 20 0
BBX 20 26 0 0
BITMAP
0F0000
0F0000
0F0000
0F0000
0F0000
0F0000
0F0000
0F0400
0F1E00
0F3C00
0FF800
0FE000
0FC000
0F0000
3F0000
7F0000
EF0000
4F0000
0F0000
0F0000
0F0000
0F0000
0F0000
0FFFF0
0FFFF0
0FFFF0
ENDCHAR
STARTCHAR 0142
ENCODING 322
SWIDTH 277 0
DWIDTH 10 0
BBX 12 27 0 0
BITMAP
0F00
0F00
0F00
0F00
0F00
0F00
0F00
0F00
0F00
0F60
0FF0
0FE0
0F80
1F00
7F00
FF00
4F00
0F00
0F00
0F00
0F00
0F00
0F00
0F00
0F00
0F00
0F00
ENDCHAR
STARTCHAR 0143
ENCODING 323
SWIDTH 750 0
DWIDTH 27 0
BBX 20 34 3 0
BITMAP
003800
007800
007000
00E000
01C000
000000
000000
000000
FC00F0
FC00F0
FE00F0
FE00F0
FF00F0
FF00F0
FF80F0
F780F0
F7C0F0
F3C0F0
F3E0F0
F1F0F0
F1F0F0
F0F8F0
F078F0
F07CF0
F03CF0
F03EF0
F01EF0
F01FF0
F00FF0
F00FF0
F007F0
F007F0
F003F0
F003F0
ENDCHAR
STARTCHAR 0144
ENCODING 324
SWIDTH 638 0
DWIDTH 23 0
BBX 16 29 3 0
BITMAP
0078
0070
00E0
01C0
01C0
0380
0700
0000
0000
F1F0
F3FC
F7FE
FE3E
F81E
F80F
F00F
F00F
F00F
F00F
F00F
F00F
F00F
F00F
F00F
F00F
F00F
F00F
F00F
F00F
ENDCHAR
STARTCHAR 0145
ENCODING 325
SWIDTH 750 0
DWIDTH 27 0
BBX 20 35 3 -9
BITMAP
FC00F0
FC00F0
FE00F0
FE00F0
FF00F0
FF00F0
FF80F0
F780F0
F7C0F0
F3C0F0
F3E0F0
F1F0F0
F1F0F0
F0F8F0
F078F0
F07CF0
F03CF0
F03EF0
F01EF0
F01FF0
F00FF0
F00FF0
F007F0
F007F0
F003F0
F003F0
000000
000000
000000
003800
007800
007000
007000
006000
00E000
ENDCHAR
STARTCHAR 0146
ENCODING 326
SWIDTH 638 0
DWIDTH 23 0
BBX 16 29 3 -9
BITMAP
F1F0
F3FC
F7FE
FE3E
F81E
F80F
F00F
F00F
F00F
F00F
F00F
F00F
F00F
F00F
F00F
F00F
F00F
F00F
F00F
F00F
0000
0000
0000
00E0
01E0
01C0
01C0
0180
0380
ENDCHAR
STARTCHAR 0147
ENCODING 327
SWIDTH 750 0
DWIDTH 27 0
BBX 20 33 3 0
BITMAP
070E00
031C00
019800
01F800
00F000
000000
000000
FC00F0
FC00F0
FE00F0
FE00F0
FF00F0
FF00F0
FF80F0
F780F0
F7C0F0
F3C0F0
F3E0F0
F1F0F0
F1F0F0
F0F8F0
F078F0
F07CF0
F03CF0
F03EF0
F01EF0
F01FF0
F00FF0
F00FF0
F007F0
F007F0
F003F0
F003F0
ENDCHAR
STARTCHAR 0148
ENCODING 328
SWIDTH 638 0
DWIDTH 23 0
BBX 16 29 3 0
BITMAP
1C38
0C30
0E70
0660
07E0
03C0
0180
0000
0000
F1F0
F3FC
F7FE
FE3E
F81E
F80F
F00F
F00F
F00F
F00F
F00F
F00F
F00F
F00F
F00F
F00F
F00F
F00F
F00F
F00F
ENDCHAR
STARTCHAR 0149
ENCODING 329
SWIDTH 805 0
DWIDTH 29 0
BBX 21 26 4 0
BITMAP
780000
780000
780000
780000
700000
700000
E78F80
E79FE0
C7BFF0
07F1F0
07C0F0
07C078
078078
078078
078078
078078
078078
078078
078078
078078
078078
078078
078078
078078
078078
078078
ENDCHAR
STARTCHAR 014A
ENCODING 330
SWIDTH 750 0
DWIDTH 27 0
BBX 19 33 4 -7
BITMAP
F0FC00
F3FF00
F7FF80
FF0FC0
FC03C0
F803C0
F801E0
F801E0
F001E0
F001E0
F001E0
F001E0
F001E0
F001E0
F001E0
F001E0
F001E0
F001E0
F001E0
F001E0
F001E0
F001E0
F001E0
F001E0
F001E0
F001E0
0001E0
0001E0
0001E0
0003E0
001FC0
001F80
001F00
ENDCHAR
STARTCHAR 014B
ENCODING 331
SWIDTH 638 0
DWIDTH 23 0
BBX 16 28 3 -8
BITMAP
F1F0
F3FC
F7FE
FE3E
F81E
F80F
F00F
F00F
F00F
F00F
F00F
F00F
F00F
F00F
F00F
F00F
F00F
F00F
F00F
F00F
000F
000F
000F
000F
001E
07FE
07FC
07F8
ENDCHAR
STARTCHAR 014C
ENCODING 332
SWIDTH 777 0
DWIDTH 28 0
BBX 24 33 2 0
BITMAP
01FF80
01FF80
01FF80
000000
000000
000000
000000
00FF00
03FFC0
0FFFF0
1F81F8
3E0078
3C003C
7C003E
78001E
78001E
F0000F
F0000F
F0000F
F0000F
F0000F
F0000F
F0000F
F0000F
78001E
78001E
7C003E
3C003C
3E007C
1F81F8
0FFFF0
03FFC0
00FF00
ENDCHAR
STARTCHAR 014D
ENCODING 333
SWIDTH 611 0
DWIDTH 22 0
BBX 18 27 2 0
BITMAP
0FFC00
0FFC00
0FFC00
000000
000000
000000
000000
03F000
0FFC00
1FFE00
3E1F00
7C0F80
780780
F807C0
F003C0
F003C0
F003C0
F003C0
F003C0
F003C0
F807C0
780780
7C0F80
3E1F00
1FFE00
0FFC00
03F000
ENDCHAR
STARTCHAR 014E
ENCODING 334
SWIDTH 777 0
DWIDTH 28 0
BBX 24 34 2 0
BITMAP
018180
01C380
00FF00
007E00
000000
000000
000000
000000
00FF00
03FFC0
0FFFF0
1F81F8
3E0078
3C003C
7C003E
78001E
78001E
F0000F
F0000F
F0000F
F0000F
F0000F
F0000F
F0000F
F0000F
78001E
78001E
7C003E
3C003C
3E007C
1F81F8
0FFFF0
03FFC0
00FF00
ENDCHAR
STARTCHAR 014F
ENCODING 335
SWIDTH 611 0
DWIDTH 22 0
BBX 18 29 2 0
BITMAP
0C0C00
0C0C00
0E1C00
07F800
07F800
01E000
000000
000000
000000
03F000
0FFC00
1FFE00
3E1F00
7C0F80
780780
F807C0
F003C0
F003C0
F003C0
F003C0
F003C0
F003C0
F807C0
780780
7C0F80
3E1F00
1FFE00
0FFC00
03F000
ENDCHAR
STARTCHAR 0150
ENCODING 336
SWIDTH 777 0
DWIDTH 28 0
BBX 24 34 2 0
BITMAP
0038E0
0079E0
0071C0
00E380
01C700
000000
000000
000000
00FF00
03FFC0
0FFFF0
1F81F8
3E0078
3C003C
7C003E
78001E
78001E
F0000F
F0000F
F0000F
F0000F
F0000F
F0000F
F0000F
F0000F
78001E
78001E
7C003E
3C003C
3E007C
1F81F8
0FFFF0
03FFC0
00FF00
ENDCHAR
STARTCHAR 0151
ENCODING 337
SWIDTH 611 0
DWIDTH 22 0
BBX 18 29 2 0
BITMAP
00E380
01C700
01CE00
038E00
039C00
031800
073800
000000
000000
03F000
0FFC00
1FFE00
3E1F00
7C0F80
780780
F807C0
F003C0
F003C0
F003C0
F003C0
F003C0
F003C0
F807C0
780780
7C0F80
3E1F00
1FFE00
0FFC00
03F000
ENDCHAR
STARTCHAR 0152
ENCODING 338
SWIDTH 1083 0
DWIDTH 39 0
BBX 34 26 2 0
BITMAP
003FFFFFC0
01FFFFFFC0
07FFFFFFC0
0FE0780000
1F00780000
3E00780000
7C00780000
7800780000
7800780000
F000780000
F000780000
F0007FFF80
F0007FFF80
F0007FFF80
F000780000
F000780000
F000780000
7800780000
7800780000
7C00780000
3E00780000
1F00780000
0FE0780000
07FFFFFFC0
01FFFFFFC0
003FFFFFC0
ENDCHAR
STARTCHAR 0153
ENCODING 339
SWIDTH 1027 0
DWIDTH 37 0
BBX 32 20 2 0
BITMAP
03F007E0
0FFC3FF8
3FFE7FFC
3E1FF83E
7C0FF01E
7807E01E
F807C00F
F003C00F
F003FFFF
F003FFFF
F003FFFF
F003C000
F003C000
F807E000
7807E000
7C0FF002
3E1FFC0E
3FFE7FFE
0FFC1FFC
03F007F0
ENDCHAR
STARTCHAR 0154
ENCODING 340
SWIDTH 694 0
DWIDTH 25 0
BBX 21 34 3 0
BITMAP
003800
007800
007000
00E000
01C000
000000
000000
000000
FFF000
FFFC00
FFFE00
F01F00
F00F80
F00780
F00780
F00780
F00780
F00780
F00F00
F01F00
FFFE00
FFF800
FFFC00
F07E00
F01E00
F01F00
F00F80
F00780
F007C0
F003C0
F003E0
F001F0
F000F0
F000F8
ENDCHAR
STARTCHAR 0155
ENCODING 341
SWIDTH 416 0
DWIDTH 15 0
BBX 13 29 3 0
BITMAP
0078
0070
00E0
01C0
01C0
0380
0700
0000
0000
F0F0
F3F0
F7F0
FE00
FC00
F800
F800
F000
F000
F000
F000
F000
F000
F000
F000
F000
F000
F000
F000
F000
ENDCHAR
STARTCHAR 0156
ENCODING 342
SWIDTH 694 0
DWIDTH 25 0
BBX 21 35 3 -9
BITMAP
FFF000
FFFC00
FFFE00
F01F00
F00F80
F00780
F00780
F00780
F00780
F00780
F00F00
F01F00
FFFE00
FFF800
FFFC00
F07E00
F01E00
F01F00
F00F80
F00780
F007C0
F003C0
F003E0
F001F0
F000F0
F000F8
000000
000000
000000
003800
007800
007000
007000
006000
00E000
ENDCHAR
STARTCHAR 0157
ENCODING 343
SWIDTH 416 0
DWIDTH 15 0
BBX 13 29 2 -9
BITMAP
7878
79F8
7BF8
7F00
7E00
7C00
7C00
7800
7800
7800
7800
7800
7800
7800
7800
7800
7800
7800
7800
7800
0000
0000
0000
3800
7800
7000
7000
6000
E000
ENDCHAR
STARTCHAR 0158
ENCODING 344
SWIDTH 694 0
DWIDTH 25 0
BBX 21 33 3 0
BITMAP
1C1C00
0E3800
077000
03E000
03E000
000000
000000
FFF000
FFFC00
FFFE00
F01F00
F00F80
F00780
F00780
F00780
F00780
F00780
F00F00
F01F00
FFFE00
FFF800
FFFC00
F07E00
F01E00
F01F00
F00F80
F00780
F007C0
F003C0
F003E0
F001F0
F000F0
F000F8
ENDCHAR
STARTCHAR 0159
ENCODING 345
SWIDTH 416 0
DWIDTH 15 0
BBX 12 29 3 0
BITMAP
70E0
30C0
39C0
1980
1F80
0F00
0600
0000
0000
F0F0
F3F0
F7F0
FE00
FC00
F800
F800
F000
F000
F000
F000
F000
F000
F000
F000
F000
F000
F000
F000
F000
ENDCHAR
STARTCHAR 015A
ENCODING 346
SWIDTH 638 0
DWIDTH 23 0
BBX 18 34 2 0
BITMAP
001C00
003C00
003800
007000
00E000
000000
000000
000000
07FC00
1FFF00
3FFF00
7C0300
F80000
F00000
F00000
F00000
F80000
FE0000
7FE000
3FFC00
1FFF00
03FF80
003F80
0007C0
0007C0
0003C0
0003C0
0003C0
0003C0
800780
F01F80
FFFF00
FFFE00
1FF000
ENDCHAR
STARTCHAR 015B
ENCODING 347
SWIDTH 527 0
DWIDTH 19 0
BBX 15 29 2 0
BITMAP
003C
0038
0070
00E0
00E0
01C0
0380
0000
0000
0FF0
3FFC
7FFC
FC0C
F000
F000
F000
FC00
7FC0
1FF0
03FC
007C
001E
001E
001E
801E
E07E
FFFC
7FF8
0FE0
ENDCHAR
STARTCHAR 015C
ENCODING 348
SWIDTH 638 0
DWIDTH 23 0
BBX 18 34 2 0
BITMAP
01E000
03F000
073800
061800
0C0C00
000000
000000
000000
07FC00
1FFF00
3FFF00
7C0300
F80000
F00000
F00000
F00000
F80000
FE0000
7FE000
3FFC00
1FFF00
03FF80
003F80
0007C0
0007C0
0003C0
0003C0
0003C0
0003C0
800780
F01F80
FFFF00
FFFE00
1FF000
ENDCHAR
STARTCHAR 015D
ENCODING 349
SWIDTH 527 0
DWIDTH 19 0
BBX 15 29 2 0
BITMAP
0380
07C0
06C0
0EE0
1C60
1830
3838
0000
0000
0FF0
3FFC
7FFC
FC0C
F000
F000
F000
FC00
7FC0
1FF0
03FC
007C
001E
001E
001E
801E
E07E
FFFC
7FF8
0FE0
ENDCHAR
STARTCHAR 015E
ENCODING 350
SWIDTH 638 0
DWIDTH 23 0
BBX 18 33 2 -7
BITMAP
07FC00
1FFF00
3FFF00
7C0300
F80000
F00000
F00000
F00000
F80000
FE0000
7FE000
3FFC00
1FFF00
03FF80
003F80
0007C0
0007C0
0003C0
0003C0
0003C0
0003C0
800780
F01F80
FFFF00
FFFE00
1FF800
00C000
006000
007000
047000
07F000
07F000
07E000
ENDCHAR
STARTCHAR 015F
ENCODING 351
SWIDTH 527 0
DWIDTH 19 0
BBX 15 27 2 -7
BITMAP
0FF0
3FFC
7FFC
FC0C
F000
F000
F000
FC00
7FC0
1FF0
03FC
007C
001E
001E
001E
801E
E07E
FFFC
7FF8
0FE0
0300
0180
01C0
11C0
1FC0
1FC0
1F80
ENDCHAR
STARTCHAR 0160
ENCODING 352
SWIDTH 638 0
DWIDTH 23 0
BBX 18 34 2 0
BITMAP
0C0C00
061800
073800
03F000
01E000
000000
000000
000000
07FC00
1FFF00
3FFF00
7C0300
F80000
F00000
F00000
F00000
F80000
FE0000
7FE000
3FFC00
1FFF00
03FF80
003F80
0007C0
0007C0
0003C0
0003C0
0003C0
0003C0
800780
F01F80
FFFF00
FFFE00
1FF000
ENDCHAR
STARTCHAR 0161
ENCODING 353
SWIDTH 527 0
DWIDTH 19 0
BBX 15 29 2 0
BITMAP
3838
1830
0C70
0EE0
06C0
07C0
0380
0000
0000
0FF0
3FFC
7FFC
FC0C
F000
F000
F000
FC00
7FC0
1FF0
03FC
007C
001E
001E
001E
801E
E07E
FFFC
7FF8
0FE0
ENDCHAR
STARTCHAR 0162
ENCODING 354
SWIDTH 611 0
DWIDTH 22 0
BBX 22 33 0 -7
BITMAP
FFFFFC
FFFFFC
FFFFFC
007800
007800
007800
007800
007800
007800
007800
007800
007800
007800
007800
007800
007800
007800
007800
007800
007800
007800
007800
007800
007800
007800
007800
006000
003000
003800
023800
03F800
03F800
03F000
ENDCHAR
STARTCHAR 0163
ENCODING 355
SWIDTH 388 0
DWIDTH 14 0
BBX 13 33 1 -7
BITMAP
3C00
3C00
3C00
3C00
3C00
3C00
FFF8
FFF8
FFF8
3C00
3C00
3C00
3C00
3C00
3C00
3C00
3C00
3C00
3C00
3C00
3C00
3C00
3E00
1FF8
0FF8
07F8
0300
0180
01C0
11C0
1FC0
1FC0
1F80
ENDCHAR
STARTCHAR 0164
ENCODING 356
SWIDTH 611 0
DWIDTH 22 0
BBX 22 33 0 0
BITMAP
038700
018E00
00CC00
00FC00
007800
000000
000000
FFFFFC
FFFFFC
FFFFFC
007800
007800
007800
007800
007800
007800
007800
007800
007800
007800
007800
007800
007800
007800
007800
007800
007800
007800
007800
007800
007800
007800
007800
ENDCHAR
STARTCHAR 0165
ENCODING 357
SWIDTH 388 0
DWIDTH 14 0
BBX 13 30 1 0
BITMAP
0070
0070
0070
00E0
3CE0
3CE0
3CE0
3C00
3C00
3C00
FFF8
FFF8
FFF8
3C00
3C00
3C00
3C00
3C00
3C00
3C00
3C00
3C00
3C00
3C00
3C00
3C00
3E00
1FF8
0FF8
07F8
ENDCHAR
STARTCHAR 0166
ENCODING 358
SWIDTH 611 0
DWIDTH 22 0
BBX 22 26 0 0
BITMAP
FFFFFC
FFFFFC
FFFFFC
007800
007800
007800
007800
007800
007800
007800
007800
007800
007800
0FFFC0
0FFFC0
0FFFC0
007800
007800
007800
007800
007800
007800
007800
007800
007800
007800
ENDCHAR
STARTCHAR 0167
ENCODING 359
SWIDTH 388 0
DWIDTH 14 0
BBX 13 26 1 0
BITMAP
3C00
3C00
3C00
3C00
3C00
3C00
FFF8
FFF8
FFF8
3C00
3C00
3C00
3C00
FF80
FF80
FF80
3C00
3C00
3C00
3C00
3C00
3C00
3E00
1FF8
1FF8
07F8
ENDCHAR
STARTCHAR 0168
ENCODING 360
SWIDTH 722 0
DWIDTH 26 0
BBX 20 34 4 0
BITMAP
038300
07E300
0C7E00
0C1C00
000000
000000
000000
000000
F000F0
F000F0
F000F0
F000F0
F000F0
F000F0
F000F0
F000F0
F000F0
F000F0
F000F0
F000F0
F000F0
F000F0
F000F0
F000F0
F000F0
F000F0
F000F0
F801F0
7801E0
7C03E0
3E07C0
1FFF80
0FFF00
03FC00
ENDCHAR
STARTCHAR 0169
ENCODING 361
SWIDTH 638 0
DWIDTH 23 0
BBX 16 28 3 0
BITMAP
0E0C
1F8C
3BDC
31F8
3070
0000
0000
0000
F00F
F00F
F00F
F00F
F00F
F00F
F00F
F00F
F00F
F00F
F00F
F00F
F00F
F00F
F01F
F81F
7C7F
7FEF
3FCF
0F8F
ENDCHAR
STARTCHAR 016A
ENCODING 362
SWIDTH 722 0
DWIDTH 26 0
BBX 20 33 4 0
BITMAP
07FE00
07FE00
07FE00
000000
000000
000000
000000
F000F0
F000F0
F000F0
F000F0
F000F0
F000F0
F000F0
F000F0
F000F0
F000F0
F000F0
F000F0
F000F0
F000F0
F000F0
F000F0
F000F0
F000F0
F000F0
F801F0
7801E0
7C03E0
3E07C0
1FFF80
0FFF00
03FC00
ENDCHAR
STARTCHAR 016B
ENCODING 363
SWIDTH 638 0
DWIDTH 23 0
BBX 16 27 3 0
BITMAP
3FFC
3FFC
3FFC
0000
0000
0000
0000
F00F
F00F
F00F
F00F
F00F
F00F
F00F
F00F
F00F
F00F
F00F
F00F
F00F
F00F
F01F
F81F
7C7F
7FEF
3FCF
0F8F
ENDCHAR
STARTCHAR 016C
ENCODING 364
SWIDTH 722 0
DWIDTH 26 0
BBX 20 34 4 0
BITMAP
060600
070E00
03FC00
01F800
000000
000000
000000
000000
F000F0
F000F0
F000F0
F000F0
F000F0
F000F0
F000F0
F000F0
F000F0
F000F0
F000F0
F000F0
F000F0
F000F0
F000F0
F000F0
F000F0
F000F0
F000F0
F801F0
7801E0
7C03E0
3E07C0
1FFF80
0FFF00
03FC00
ENDCHAR
STARTCHAR 016D
ENCODING 365
SWIDTH 638 0
DWIDTH 23 0
BBX 16 29 3 0
BITMAP
300C
381C
3C3C
1FF8
0FF0
07E0
0000
0000
0000
F00F
F00F
F00F
F00F
F00F
F00F
F00F
F00F
F00F
F00F
F00F
F00F
F00F
F00F
F01F
F81F
7C7F
7FEF
3FCF
0F8F
ENDCHAR
STARTCHAR 016E
ENCODING 366
SWIDTH 722 0
DWIDTH 26 0
BBX 20 34 4 0
BITMAP
01E000
07F800
061800
0C0C00
0C0C00
0C0C00
0C0C00
061800
F7F8F0
F1E0F0
F000F0
F000F0
F000F0
F000F0
F000F0
F000F0
F000F0
F000F0
F000F0
F000F0
F000F0
F000F0
F000F0
F000F0
F000F0
F000F0
F000F0
F801F0
7801E0
7C03E0
3E07C0
1FFF80
0FFF00
03FC00
ENDCHAR
STARTCHAR 016F
ENCODING 367
SWIDTH 638 0
DWIDTH 23 0
BBX 16 31 3 0
BITMAP
03C0
0FF0
0C30
1818
1818
1818
1818
0C30
0FF0
03C0
0000
F00F
F00F
F00F
F00F
F00F
F00F
F00F
F00F
F00F
F00F
F00F
F00F
F00F
F00F
F01F
F81F
7C7F
7FEF
3FCF
0F8F
ENDCHAR
STARTCHAR 0170
ENCODING 368
SWIDTH 722 0
DWIDTH 26 0
BBX 20 34 4 0
BITMAP
01C700
03CF00
038E00
071C00
0E3800
000000
000000
000000
F000F0
F000F0
F000F0
F000F0
F000F0
F000F0
F000F0
F000F0
F000F0
F000F0
F000F0
F000F0
F000F0
F000F0
F000F0
F000F0
F000F0
F000F0
F000F0
F801F0
7801E0
7C03E0
3E07C0
1FFF80
0FFF00
03FC00
ENDCHAR
STARTCHAR 0171
ENCODING 369
SWIDTH 638 0
DWIDTH 23 0
BBX 16 29 3 0
BITMAP
01C7
038E
039C
071C
0738
0630
0E70
0000
0000
F00F
F00F
F00F
F00F
F00F
F00F
F00F
F00F
F00F
F00F
F00F
F00F
F00F
F00F
F01F
F81F
7C7F
7FEF
3FCF
0F8F
ENDCHAR
STARTCHAR 0172
ENCODING 370
SWIDTH 722 0
DWIDTH 26 0
BBX 20 33 4 -7
BITMAP
F000F0
F000F0
F000F0
F000F0
F000F0
F000F0
F000F0
F000F0
F000F0
F000F0
F000F0
F000F0
F000F0
F000F0
F000F0
F000F0
F000F0
F000F0
F000F0
F801F0
7801E0
7C03E0
3E07C0
1FFF80
0FFF00
03FC00
00C000
018000
038000
038800
03F800
03F800
00F800
ENDCHAR
STARTCHAR 0173
ENCODING 371
SWIDTH 638 0
DWIDTH 23 0
BBX 20 27 3 -7
BITMAP
F00F00
F00F00
F00F00
F00F00
F00F00
F00F00
F00F00
F00F00
F00F00
F00F00
F00F00
F00F00
F00F00
F00F00
F01F00
F81F00
7C7F00
7FEF00
3FCF00
0F8F00
000180
000300
000700
000710
0007F0
0007F0
0001F0
ENDCHAR
STARTCHAR 0174
ENCODING 372
SWIDTH 1000 0
DWIDTH 36 0
BBX 33 34 1 0
BITMAP
0001E00000
0003F00000
0003300000
0007180000
000E1C0000
0000000000
0000000000
0000000000
F003E00780
F803E00F80
7803E00F00
7807F00F00
7807700F00
7C07701F00
3C07701E00
3C0F381E00
3C0E381E00
3E0E383E00
1E0E383C00
1E1E3C3C00
1E1C1C3C00
1F1C1C7C00
0F1C1C7800
0F3C1E7800
0F380E7800
0FB80EF800
07B80EF000
07F80FF000
07F007F000
07F007F000
03F007E000
03F007E000
03E003E000
03E003E000
ENDCHAR
STARTCHAR 0175
ENCODING 373
SWIDTH 805 0
DWIDTH 29 0
BBX 26 29 2 0
BITMAP
001C0000
003E0000
00360000
00770000
00E30000
00C18000
01C1C000
00000000
00000000
F01E03C0
F83F07C0
783F0780
783F0780
783F0780
7C7F8F80
3C738F00
3C738F00
3C738F00
3EF1DF00
1EE1DE00
1EE1DE00
1EE1DE00
1FE0FE00
0FC0FC00
0FC0FC00
0FC0FC00
0F807C00
07807800
07807800
ENDCHAR
STARTCHAR 0176
ENCODING 374
SWIDTH 611 0
DWIDTH 22 0
BBX 22 34 0 0
BITMAP
007800
00FC00
00CC00
01C600
038700
000000
000000
000000
F8007C
7C00F8
3C00F0
3E01F0
1F03E0
0F03C0
0F87C0
07CF80
03CF00
03FF00
01FE00
00FC00
00FC00
007800
007800
007800
007800
007800
007800
007800
007800
007800
007800
007800
007800
007800
ENDCHAR
STARTCHAR 0177
ENCODING 375
SWIDTH 583 0
DWIDTH 21 0
BBX 19 36 1 -7
BITMAP
00E000
01F000
01B000
03B800
071800
060C00
0E0E00
000000
000000
F803E0
7803C0
7803C0
7C07C0
3C0780
3E0F80
1E0F00
1E0F00
0F1F00
0F1E00
0FBE00
07BC00
07BC00
03FC00
03F800
03F800
01F000
01F000
01F000
01E000
03E000
03C000
07C000
07C000
3F8000
3F0000
3E0000
ENDCHAR
STARTCHAR 0178
ENCODING 376
SWIDTH 611 0
DWIDTH 22 0
BBX 22 34 0 0
BITMAP
03CF00
03CF00
03CF00
03CF00
000000
000000
000000
000000
F8007C
7C00F8
3C00F0
3E01F0
1F03E0
0F03C0
0F87C0
07CF80
03CF00
03FF00
01FE00
00FC00
00FC00
007800
007800
007800
007800
007800
007800
007800
007800
007800
007800
007800
007800
007800
ENDCHAR
STARTCHAR 0179
ENCODING 377
SWIDTH 694 0
DWIDTH 25 0
BBX 21 34 2 0
BITMAP
001C00
003C00
003800
007000
00E000
000000
000000
000000
FFFFF0
FFFFF0
FFFFF0
0003E0
0003E0
0007C0
000F80
001F00
001F00
003E00
007C00
007C00
00F800
01F000
03E000
03E000
07C000
0F8000
1F0000
1F0000
3E0000
7C0000
7C0000
FFFFF8
FFFFF8
FFFFF8
ENDCHAR
STARTCHAR 017A
ENCODING 378
SWIDTH 527 0
DWIDTH 19 0
BBX 16 29 2 0
BITMAP
003C
0038
0070
00E0
00E0
01C0
0380
0000
0000
FFFF
FFFF
FFFF
001F
003E
007C
00F8
01F8
01F0
03E0
07C0
0FC0
0F80
1F00
3E00
7E00
FC00
FFFF
FFFF
FFFF
ENDCHAR
STARTCHAR 017B
ENCODING 379
SWIDTH 694 0
DWIDTH 25 0
BBX 21 34 2 0
BITMAP
00F000
00F000
00F000
00F000
000000
000000
000000
000000
FFFFF0
FFFFF0
FFFFF0
0003E0
0003E0
0007C0
000F80
001F00
001F00
003E00
007C00
007C00
00F800
01F000
03E000
03E000
07C000
0F8000
1F0000
1F0000
3E0000
7C0000
7C0000
FFFFF8
FFFFF8
FFFFF8
ENDCHAR
STARTCHAR 017C
ENCODING 380
SWIDTH 527 0
DWIDTH 19 0
BBX 16 27 2 0
BITMAP
0780
0780
0780
0780
0000
0000
0000
FFFF
FFFF
FFFF
001F
003E
007C
00F8
01F8
01F0
03E0
07C0
0FC0
0F80
1F00
3E00
7E00
FC00
FFFF
FFFF
FFFF
ENDCHAR
STARTCHAR 017D
ENCODING 381
SWIDTH 694 0
DWIDTH 25 0
BBX 21 34 2 0
BITMAP
070700
038E00
01DC00
00F800
00F800
000000
000000
000000
FFFFF0
FFFFF0
FFFFF0
0003E0
0003E0
0007C0
000F80
001F00
001F00
003E00
007C00
007C00
00F800
01F000
03E000
03E000
07C000
0F8000
1F0000
1F0000
3E0000
7C0000
7C0000
FFFFF8
FFFFF8
FFFFF8
ENDCHAR
STARTCHAR 017E
ENCODING 382
SWIDTH 527 0
DWIDTH 19 0
BBX 16 29 2 0
BITMAP
1C38
0C30
0E70
0660
07E0
03C0
0180
0000
0000
FFFF
FFFF
FFFF
001F
003E
007C
00F8
01F8
01F0
03E0
07C0
0FC0
0F80
1F00
3E00
7E00
FC00
FFFF
FFFF
FFFF
ENDCHAR
STARTCHAR 017F
ENCODING 383
SWIDTH 361 0
DWIDTH 13 0
BBX 13 27 1 0
BITMAP
03F8
0FF8
0FF8
1F00
1E00
1E00
1E00
FE00
FE00
FE00
1E00
1E00
1E00
1E00
1E00
1E00
1E00
1E00
1E00
1E00
1E00
1E00
1E00
1E00
1E00
1E00
1E00
ENDCHAR
STARTCHAR 0180
ENCODING 384
SWIDTH 638 0
DWIDTH 23 0
BBX 21 27 0 0
BITMAP
1E0000
1E0000
FFF000
FFF000
FFF000
1E0000
1E0000
1E3F00
1EFFC0
1FFFE0
1FC3E0
1F81F0
1F00F0
1F00F8
1E0078
1E0078
1E0078
1E0078
1E0078
1E0078
1F00F8
1F00F0
1F81F0
1FC3E0
1FFFE0
1EFFC0
1E3F00
ENDCHAR
STARTCHAR 0181
ENCODING 385
SWIDTH 722 0
DWIDTH 26 0
BBX 26 26 -4 0
BITMAP
1FFFF000
7FFFFC00
7FFFFF00
F1E01F00
E1E00F80
E1E00780
E1E00780
01E00780
01E00780
01E00F00
01E01F00
01FFFE00
01FFF800
01FFFE00
01E00F00
01E00780
01E003C0
01E003C0
01E003C0
01E003C0
01E003C0
01E007C0
01E00F80
01FFFF00
01FFFE00
01FFF800
ENDCHAR
STARTCHAR 0182
ENCODING 386
SWIDTH 694 0
DWIDTH 25 0
BBX 19 26 3 0
BITMAP
FFFF80
FFFF80
FFFF80
F00000
F00000
F00000
F00000
F00000
F00000
F00000
F00000
FFFC00
FFFF00
FFFF80
F007C0
F003E0
F001E0
F001E0
F001E0
F001E0
F001E0
F003E0
F007C0
FFFF80
FFFF00
FFFC00
ENDCHAR
STARTCHAR 0183
ENCODING 387
SWIDTH 638 0
DWIDTH 23 0
BBX 18 27 3 0
BITMAP
FFFE00
FFFE00
FFFE00
F00000
F00000
F00000
F00000
F1F800
F7FE00
FFFF00
FE1F00
FC0F80
F80780
F807C0
F003C0
F003C0
F003C0
F003C0
F003C0
F003C0
F007C0
F80780
FC0F80
FE1F00
FFFF00
F7FE00
F1F800
ENDCHAR
STARTCHAR 0184
ENCODING 388
SWIDTH 722 0
DWIDTH 26 0
BBX 23 26 0 0
BITMAP
030000
070000
0F0000
1F0000
3F0000
7F0000
FF0000
0F0000
0F0000
0F0000
0F0000
0FFFC0
0FFFF0
0FFFF8
0F007C
0F003E
0F001E
0F001E
0F001E
0F001E
0F001E
0F003E
0F007C
0FFFF8
0FFFF0
0FFFC0
ENDCHAR
STARTCHAR 0185
ENCODING 389
SWIDTH 638 0
DWIDTH 23 0
BBX 21 27 0 0
BITMAP
020000
060000
0E0000
1E0000
1E0000
3E0000
7E0000
FE3F00
1EFFC0
1FFFE0
1FC3E0
1F81F0
1F00F0
1F00F8
1E0078
1E0078
1E0078
1E0078
1E0078
1E0078
1E00F8
1F00F0
1F81F0
1FC3E0
1FFFE0
1EFFC0
1E3F00
ENDCHAR
STARTCHAR 0186
ENCODING 390
SWIDTH 694 0
DWIDTH 25 0
BBX 21 26 2 0
BITMAP
07F000
3FFE00
7FFF00
F01FC0
C007C0
8001E0
0001F0
0000F0
0000F0
000078
000078
000078
000078
000078
000078
000078
000078
0000F0
0000F0
0001F0
8001E0
C007C0
F01FC0
7FFF80
3FFE00
07F000
ENDCHAR
STARTCHAR 0187
ENCODING 391
SWIDTH 694 0
DWIDTH 25 0
BBX 27 33 2 0
BITMAP
000003E0
00000FE0
00001FE0
00003E00
00003C00
00007C00
00007800
00FF7800
03FFF800
0FFFF800
1FC0F800
3F003800
3C001800
7C000000
78000000
78000000
F0000000
F0000000
F0000000
F0000000
F0000000
F0000000
F0000000
F0000000
78000000
78000000
7C000000
3C001800
3F003800
1FC0F800
0FFFF000
03FFE000
007F0000
ENDCHAR
STARTCHAR 0188
ENCODING 392
SWIDTH 555 0
DWIDTH 20 0
BBX 20 27 2 0
BITMAP
0001F0
0003F0
0007F0
000FE0
000F80
000F00
000F00
03FF00
0FFF00
1FFF00
3F0700
7C0100
780000
F80000
F00000
F00000
F00000
F00000
F00000
F00000
F80000
780000
7C0100
3F0700
1FFF00
0FFE00
03F800
ENDCHAR
STARTCHAR 0189
ENCODING 393
SWIDTH 777 0
DWIDTH 28 0
BBX 26 26 0 0
BITMAP
0FFF8000
0FFFF000
0FFFFC00
0F00FE00
0F001F00
0F000F00
0F000F80
0F000780
0F0007C0
0F0003C0
0F0003C0
FFFC03C0
FFFC03C0
FFFC03C0
0F0003C0
0F0003C0
0F0003C0
0F0007C0
0F000780
0F000F80
0F000F00
0F001F00
0F00FE00
0FFFFC00
0FFFF000
0FFF8000
ENDCHAR
STARTCHAR 018A
ENCODING 394
SWIDTH 805 0
DWIDTH 29 0
BBX 29 26 -4 0
BITMAP
1FFFF000
7FFFFE00
7FFFFF80
F1E01FC0
E1E007E0
E1E001E0
E1E001F0
01E000F0
01E000F8
01E00078
01E00078
01E00078
01E00078
01E00078
01E00078
01E00078
01E00078
01E000F8
01E000F0
01E001F0
01E001E0
01E007E0
01E01FC0
01FFFF80
01FFFE00
01FFF000
ENDCHAR
STARTCHAR 018B
ENCODING 395
SWIDTH 666 0
DWIDTH 24 0
BBX 19 26 2 0
BITMAP
0FFFE0
0FFFE0
0FFFE0
0001E0
0001E0
0001E0
0001E0
0001E0
0001E0
0001E0
0001E0
07FFE0
1FFFE0
3FFFE0
7C01E0
F801E0
F001E0
F001E0
F001E0
F001E0
F001E0
F801E0
7C01E0
3FFFE0
1FFFE0
07FFE0
ENDCHAR
STARTCHAR 018C
ENCODING 396
SWIDTH 638 0
DWIDTH 23 0
BBX 18 27 2 0
BITMAP
1FFFC0
1FFFC0
1FFFC0
0003C0
0003C0
0003C0
0003C0
07E3C0
1FFBC0
3FFFC0
3E1FC0
7C0FC0
7807C0
F807C0
F003C0
F003C0
F003C0
F003C0
F003C0
F003C0
F007C0
7807C0
7C0FC0
3E1FC0
3FFFC0
1FFBC0
07E3C0
ENDCHAR
STARTCHAR 018D
ENCODING 397
SWIDTH 611 0
DWIDTH 22 0
BBX 18 27 2 -7
BITMAP
03F000
0FFC00
1FFE00
3E1F00
7C0F80
780780
F807C0
F003C0
F003C0
F003C0
F003C0
F003C0
F003C0
F80380
780780
7C0700
3F0F00
1FFE00
0FFC00
01FE00
001F00
000F00
000F00
201F00
3FFE00
3FFC00
1FF000
ENDCHAR
STARTCHAR 018E
ENCODING 398
SWIDTH 638 0
DWIDTH 23 0
BBX 17 26 2 0
BITMAP
FFFF80
FFFF80
FFFF80
000780
000780
000780
000780
000780
000780
000780
000780
7FFF80
7FFF80
7FFF80
000780
000780
000780
000780
000780
000780
000780
000780
000780
FFFF80
FFFF80
FFFF80
ENDCHAR
STARTCHAR 018F
ENCODING 399
SWIDTH 777 0
DWIDTH 28 0
BBX 24 26 2 0
BITMAP
03FE00
1FFFC0
3FFFE0
3E03F8
3000F8
20003C
00003E
00001E
00001E
00000F
00000F
00000F
00000F
FFFFFF
FFFFFF
FFFFFF
F0000F
70000E
78001E
78001E
3C003C
3E007C
1F81F8
0FFFF0
03FFC0
00FF00
ENDCHAR
STARTCHAR 0190
ENCODING 400
SWIDTH 611 0
DWIDTH 22 0
BBX 18 26 2 0
BITMAP
03FE00
0FFF80
1FFF80
3E0180
7C0000
780000
780000
780000
780000
3C0000
3E0000
0FF800
07F800
1FF800
3E0000
780000
F00000
F00000
F00000
F00000
F00000
780000
7E00C0
3FFFC0
0FFFC0
03FF00
ENDCHAR
STARTCHAR 0191
ENCODING 401
SWIDTH 583 0
DWIDTH 21 0
BBX 20 33 -2 -7
BITMAP
07FFF0
07FFF0
07FFF0
078000
078000
078000
078000
078000
078000
078000
07FFE0
07FFE0
07FFE0
078000
078000
078000
078000
078000
078000
078000
078000
078000
078000
078000
078000
078000
078000
078000
0F0000
1F0000
FE0000
FE0000
F80000
ENDCHAR
STARTCHAR 0192
ENCODING 402
SWIDTH 361 0
DWIDTH 13 0
BBX 16 34 -2 -7
BITMAP
007F
00FF
01FF
03E0
03C0
03C0
03C0
1FFE
1FFE
1FFE
03C0
03C0
03C0
03C0
03C0
03C0
03C0
03C0
03C0
03C0
03C0
03C0
03C0
03C0
03C0
03C0
03C0
03C0
03C0
03C0
0780
FF80
FF00
FC00
ENDCHAR
STARTCHAR 0193
ENCODING 403
SWIDTH 777 0
DWIDTH 28 0
BBX 27 33 3 0
BITMAP
000003E0
00000FE0
00000FE0
00001F00
00001E00
00003C00
00003C00
00FFBC00
03FFFC00
0FFFFC00
1FC07C00
3F001C00
3C000C00
7C000400
78000000
78000000
F0000000
F0000000
F0000000
F007FE00
F007FE00
F007FE00
F0001E00
F0001E00
78001E00
78001E00
7C001E00
3C001E00
1E001E00
1FC07E00
07FFFC00
03FFF000
007F8000
ENDCHAR
STARTCHAR 0194
ENCODING 404
SWIDTH 666 0
DWIDTH 24 0
BBX 24 33 0 -7
BITMAP
F8001F
78001E
7C003E
3C007C
3E007C
1F00F8
0F00F0
0F81F0
0781E0
07C3E0
03C3C0
03E7C0
01E780
01FF80
00FF00
00FF00
007E00
003C00
007E00
007E00
00FF00
00FF00
00FF00
01E780
01E780
03E7C0
03C3C0
03C3C0
03C3C0
03E7C0
03FFC0
01FF80
007E00
ENDCHAR
STARTCHAR 0195
ENCODING 405
SWIDTH 1000 0
DWIDTH 36 0
BBX 30 27 3 0
BITMAP
F0000000
F0000000
F0000000
F0000000
F0000000
F0000000
F0000000
F1F00600
F3FC07C0
F7FE07E0
FE3E03F0
F81E00F8
F80F0078
F00F0078
F00F003C
F00F003C
F00F003C
F00F003C
F00F003C
F00F003C
F00F003C
F00F0078
F00F00F8
F00F81F0
F007FFE0
F003FFC0
F001FF00
ENDCHAR
STARTCHAR 0196
ENCODING 406
SWIDTH 361 0
DWIDTH 13 0
BBX 9 26 3 0
BITMAP
F000
F000
F000
F000
F000
F000
F000
F000
F000
F000
F000
F000
F000
F000
F000
F000
F000
F000
F000
F000
F000
7800
7C00
3F80
3F80
0F80
ENDCHAR
STARTCHAR 0197
ENCODING 407
SWIDTH 305 0
DWIDTH 11 0
BBX 10 26 0 0
BITMAP
1E00
1E00
1E00
1E00
1E00
1E00
1E00
1E00
1E00
1E00
1E00
1E00
1E00
FFC0
FFC0
FFC0
1E00
1E00
1E00
1E00
1E00
1E00
1E00
1E00
1E00
1E00
ENDCHAR
STARTCHAR 0198
ENCODING 408
SWIDTH 750 0
DWIDTH 27 0
BBX 25 26 3 0
BITMAP
F000FC00
F007FE00
F00FFF00
F01F8F80
F03F0780
F07E0780
F0FC0780
F1F80000
F7E00000
FFC00000
FF800000
FF000000
FF000000
FF800000
FFC00000
F7E00000
F3F00000
F1F80000
F0FC0000
F07E0000
F03F0000
F01F8000
F00FC000
F007E000
F003F000
F001F800
ENDCHAR
STARTCHAR 0199
ENCODING 409
SWIDTH 583 0
DWIDTH 21 0
BBX 18 27 3 0
BITMAP
1FC000
3FC000
7FC000
F80000
F00000
F00000
F00000
F01F80
F03F00
F07E00
F0FC00
F1F800
F3F000
F7E000
FFC000
FF0000
FF0000
FF8000
FFC000
F7E000
F3F000
F1F800
F0FC00
F07E00
F03E00
F01F00
F00FC0
ENDCHAR
STARTCHAR 019A
ENCODING 410
SWIDTH 277 0
DWIDTH 10 0
BBX 10 27 0 0
BITMAP
1E00
1E00
1E00
1E00
1E00
1E00
1E00
1E00
1E00
1E00
1E00
1E00
FFC0
FFC0
FFC0
1E00
1E00
1E00
1E00
1E00
1E00
1E00
1E00
1E00
1E00
1E00
1E00
ENDCHAR
STARTCHAR 019B
ENCODING 411
SWIDTH 583 0
DWIDTH 21 0
BBX 19 27 1 0
BITMAP
07C000
03C600
03FE00
03FF00
1FFC00
7FE000
7FF000
20F000
00F000
00F800
01F800
01FC00
03FC00
03FC00
03FE00
07DE00
079E00
0F9F00
0F0F00
1F0F00
1E0F80
3E0780
3C0780
3C07C0
7C03C0
7803C0
F801E0
ENDCHAR
STARTCHAR 019C
ENCODING 412
SWIDTH 944 0
DWIDTH 34 0
BBX 28 26 3 0
BITMAP
F00F00F0
F00F00F0
F00F00F0
F00F00F0
F00F00F0
F00F00F0
F00F00F0
F00F00F0
F00F00F0
F00F00F0
F00F00F0
F00F00F0
F00F00F0
F00F00F0
F00F00F0
F00F00F0
F00F00F0
F00F00F0
F00F00F0
F00F00F0
F01F01F0
F81F81F0
7877C7F0
7FE3FEF0
3FC3FCF0
0F80F8F0
ENDCHAR
STARTCHAR 019D
ENCODING 413
SWIDTH 750 0
DWIDTH 27 0
BBX 25 33 -2 -7
BITMAP
07E00780
07E00780
07F00780
07F00780
07F80780
07F80780
07FC0780
07BC0780
07BE0780
079E0780
079F0780
078F8780
078F8780
0787C780
0783C780
0783E780
0781E780
0781F780
0780F780
0780FF80
07807F80
07807F80
07803F80
07803F80
07801F80
07801F80
07800000
07800000
0F000000
1F000000
FE000000
FC000000
F8000000
ENDCHAR
STARTCHAR 019E
ENCODING 414
SWIDTH 638 0
DWIDTH 23 0
BBX 16 27 3 -7
BITMAP
F1F0
F3FC
F7FE
FE3E
F81F
F80F
F00F
F00F
F00F
F00F
F00F
F00F
F00F
F00F
F00F
F00F
F00F
F00F
F00F
F00F
000F
000F
000F
000F
000F
000F
000F
ENDCHAR
STARTCHAR 019F
ENCODING 415
SWIDTH 777 0
DWIDTH 28 0
BBX 24 26 2 0
BITMAP
00FF00
03FFC0
0FFFF0
1F81F8
3E0078
3C003C
7C003E
78001E
78001E
F0000F
F0000F
FFFFFF
FFFFFF
FFFFFF
F0000F
F0000F
F0000F
78001E
78001E
78001E
3C003C
3E007C
1F81F8
0FFFF0
03FFC0
00FF00
ENDCHAR
STARTCHAR 01A0
ENCODING 416
SWIDTH 916 0
DWIDTH 33 0
BBX 25 26 2 0
BITMAP
00FF0180
03FFC180
0FFFF180
1F81F980
3E007F80
3C003F00
7C003E00
78001E00
78001E00
F0000F00
F0000F00
F0000F00
F0000F00
F0000F00
F0000F00
F0000F00
F0000F00
78001E00
78001E00
7C003E00
3C003C00
3E007C00
1F81F800
0FFFF000
03FFC000
00FF0000
ENDCHAR
STARTCHAR 01A1
ENCODING 417
SWIDTH 611 0
DWIDTH 22 0
BBX 20 21 2 0
BITMAP
000030
03F030
0FFC30
1FFE30
3E1FF0
7C0FE0
780780
F807C0
F003C0
F003C0
F003C0
F003C0
F003C0
F003C0
F807C0
780780
7C0F80
3E1F00
1FFE00
0FFC00
03F000
ENDCHAR
STARTCHAR 01A2
ENCODING 418
SWIDTH 944 0
DWIDTH 34 0
BBX 29 26 2 0
BITMAP
00FFFF00
03FFFFC0
0FFFFFE0
1F81F9F0
1E0078F0
3C007878
7C007878
78007878
78007878
F0007878
F0007878
F0007878
F0007878
F0007878
F0007878
F0007878
F0007878
78007878
78007878
7C007878
3C007878
3E007878
1F81F878
0FFFF078
03FFC078
00FF0078
ENDCHAR
STARTCHAR 01A3
ENCODING 419
SWIDTH 777 0
DWIDTH 28 0
BBX 23 27 2 -7
BITMAP
03FFF0
0FFFF8
1FFFFC
3E1F3C
7C0F1E
780F1E
F80F1E
F00F1E
F00F1E
F00F1E
F00F1E
F00F1E
F00F1E
F00F1E
780F1E
7C0F1E
3E1F1E
1FFF1E
0FFE1E
03F81E
00001E
00001E
00001E
00001E
00001E
00001E
00001E
ENDCHAR
STARTCHAR 01A4
ENCODING 420
SWIDTH 638 0
DWIDTH 23 0
BBX 24 26 -4 0
BITMAP
1FFFE0
7FFFF8
7FFFFC
F1E03E
E1E01E
E1E00F
E1E00F
01E00F
01E00F
01E00F
01E00F
01E01E
01E03E
01FFFC
01FFF8
01FFE0
01E000
01E000
01E000
01E000
01E000
01E000
01E000
01E000
01E000
01E000
ENDCHAR
STARTCHAR 01A5
ENCODING 421
SWIDTH 638 0
DWIDTH 23 0
BBX 18 34 3 -7
BITMAP
1FE000
3FE000
7FE000
780000
F00000
F00000
F00000
F1F800
F3FE00
F7FF00
FE1F00
FC0F80
F80780
F807C0
F003C0
F003C0
F003C0
F003C0
F003C0
F003C0
F007C0
F80780
FC0F80
FE1F00
FFFF00
F7FE00
F1F800
F00000
F00000
F00000
F00000
F00000
F00000
F00000
ENDCHAR
STARTCHAR 01A6
ENCODING 422
SWIDTH 694 0
DWIDTH 25 0
BBX 21 31 3 -5
BITMAP
F00000
F00000
F00000
F00000
F00000
FFF000
FFFC00
FFFE00
F01F00
F00F80
F00780
F00780
F00780
F00780
F00780
F00F00
F01F00
FFFE00
FFF000
FFFC00
F03E00
F01F00
F00F00
F00780
F00780
F003C0
0003C0
0001E0
0001F0
0000F0
0000F8
ENDCHAR
STARTCHAR 01A7
ENCODING 423
SWIDTH 638 0
DWIDTH 23 0
BBX 18 26 2 0
BITMAP
0FF800
3FFE00
3FFF00
300F80
0007C0
0003C0
0003C0
0003C0
0003C0
000FC0
01FF80
07FF00
1FFE00
3FF000
7F0000
780000
F80000
F00000
F00000
F00000
F00000
780040
7E03C0
3FFFC0
1FFFC0
03FE00
ENDCHAR
STARTCHAR 01A8
ENCODING 424
SWIDTH 527 0
DWIDTH 19 0
BBX 15 20 2 0
BITMAP
1FE0
7FF8
7FFC
607E
001E
001E
001E
007E
07FC
1FF0
7F80
7C00
F000
F000
F000
F002
FC0E
7FFE
3FFC
0FE0
ENDCHAR
STARTCHAR 01A9
ENCODING 425
SWIDTH 638 0
DWIDTH 23 0
BBX 17 26 3 0
BITMAP
FFFF80
FFFF80
FFFF80
FC0000
7E0000
3F0000
1F8000
0FC000
07C000
03E000
01F000
00F800
00F800
01F000
01F000
03E000
07C000
0F8000
1F8000
1F0000
3E0000
7C0000
F80000
FFFF80
FFFF80
FFFF80
ENDCHAR
STARTCHAR 01AA
ENCODING 426
SWIDTH 333 0
DWIDTH 12 0
BBX 18 34 -4 -7
BITMAP
3F8000
7FC000
FFE000
E1E000
E0F000
FFFE00
7FFE00
3FFE00
00F000
00F000
00F000
00F000
00F000
00F000
00F000
00F000
00F000
00F000
00F000
00F000
00F000
00F000
00F000
00F000
00F000
00F000
00F000
00F000
00F000
00F000
00F800
007FC0
003FC0
001FC0
ENDCHAR
STARTCHAR 01AB
ENCODING 427
SWIDTH 388 0
DWIDTH 14 0
BBX 13 33 1 -7
BITMAP
3C00
3C00
3C00
3C00
3C00
3C00
FFF8
FFF8
FFF8
3C00
3C00
3C00
3C00
3C00
3C00
3C00
3C00
3C00
3C00
3C00
3C00
3C00
3E00
1FF8
1FF8
07F8
0078
0078
0078
00F0
07F0
07E0
07C0
ENDCHAR
STARTCHAR 01AC
ENCODING 428
SWIDTH 611 0
DWIDTH 22 0
BBX 22 26 0 0
BITMAP
0FFFFC
3FFFFC
7FFFFC
F87800
F07800
F07800
F07800
007800
007800
007800
007800
007800
007800
007800
007800
007800
007800
007800
007800
007800
007800
007800
007800
007800
007800
007800
ENDCHAR
STARTCHAR 01AD
ENCODING 429
SWIDTH 388 0
DWIDTH 14 0
BBX 13 27 1 0
BITMAP
03F8
0FF8
1FF8
3E00
3C00
3C00
3C00
FFF8
FFF8
FFF8
3C00
3C00
3C00
3C00
3C00
3C00
3C00
3C00
3C00
3C00
3C00
3C00
3C00
3E00
1FF8
0FF8
07F8
ENDCHAR
STARTCHAR 01AE
ENCODING 430
SWIDTH 611 0
DWIDTH 22 0
BBX 22 33 0 -7
BITMAP
FFFFFC
FFFFFC
FFFFFC
007800
007800
007800
007800
007800
007800
007800
007800
007800
007800
007800
007800
007800
007800
007800
007800
007800
007800
007800
007800
007800
007800
007800
007800
007800
003C00
003E00
003FC0
001FC0
0007C0
ENDCHAR
STARTCHAR 01AF
ENCODING 431
SWIDTH 861 0
DWIDTH 31 0
BBX 25 26 4 0
BITMAP
F000F180
F000F180
F000F180
F000F180
F000FF80
F000FF00
F000F000
F000F000
F000F000
F000F000
F000F000
F000F000
F000F000
F000F000
F000F000
F000F000
F000F000
F000F000
F000F000
F801F000
7801E000
7C03E000
3E07C000
1FFF8000
0FFF0000
03FC0000
ENDCHAR
STARTCHAR 01B0
ENCODING 432
SWIDTH 638 0
DWIDTH 23 0
BBX 21 21 3 0
BITMAP
000018
F00F18
F00F18
F00F18
F00FF8
F00FF0
F00F00
F00F00
F00F00
F00F00
F00F00
F00F00
F00F00
F00F00
F00F00
F01F00
F81F00
7C7F00
7FEF00
3FCF00
0F8F00
ENDCHAR
STARTCHAR 01B1
ENCODING 433
SWIDTH 777 0
DWIDTH 28 0
BBX 25 26 1 0
BITMAP
FFF3FF80
FFF3FF80
FFF3FF80
07E1F000
0FC0F800
0F807C00
1F003E00
3E001E00
3C000F00
3C000F00
78000780
78000780
78000780
78000780
78000780
78000780
78000780
7C000F80
3C000F00
3C000F00
1E001E00
1F003E00
0FC0FC00
07FFF800
01FFE000
007F8000
ENDCHAR
STARTCHAR 01B2
ENCODING 434
SWIDTH 722 0
DWIDTH 26 0
BBX 21 26 3 0
BITMAP
F00000
F00000
F00000
F00700
F00780
F003C0
F001E0
F000F0
F000F0
F000F0
F00078
F00078
F00078
F00078
F00078
F00078
F00078
F000F8
F000F0
F000F0
F001E0
7803E0
7C0FC0
7FFF80
3FFE00
07F800
ENDCHAR
STARTCHAR 01B3
ENCODING 435
SWIDTH 750 0
DWIDTH 27 0
BBX 28 26 0 0
BITMAP
F8001F80
7C007FC0
3C00FFE0
3E01F9F0
1F01F0F0
0F03E0F0
0F87C0F0
07C7C000
03CF8000
03FF0000
01FE0000
00FE0000
00FC0000
00780000
00780000
00780000
00780000
00780000
00780000
00780000
00780000
00780000
00780000
00780000
00780000
00780000
ENDCHAR
STARTCHAR 01B4
ENCODING 436
SWIDTH 722 0
DWIDTH 26 0
BBX 25 27 1 -7
BITMAP
F8007C00
7800FE00
7801FF00
7C07CF80
3C078780
3E0F8780
1E0F0780
1E0F0780
1F1E0000
0F1E0000
0FBE0000
07BC0000
07FC0000
07F80000
03F80000
03F80000
01F00000
01F00000
01E00000
01E00000
03E00000
03C00000
07C00000
0F800000
3F800000
3F000000
3E000000
ENDCHAR
STARTCHAR 01B5
ENCODING 437
SWIDTH 694 0
DWIDTH 25 0
BBX 21 26 2 0
BITMAP
FFFFF0
FFFFF0
FFFFF0
0003E0
0003E0
0007C0
000F80
001F00
001F00
003E00
007C00
3FFFC0
3FFFC0
3FFFC0
03E000
03E000
07C000
0F8000
1F0000
1F0000
3E0000
7C0000
7C0000
FFFFF8
FFFFF8
FFFFF8
ENDCHAR
STARTCHAR 01B6
ENCODING 438
SWIDTH 527 0
DWIDTH 19 0
BBX 16 20 2 0
BITMAP
FFFF
FFFF
FFFF
001F
003E
007C
00F8
01F8
3FFE
3FFE
3FFE
0FC0
0F80
1F00
3E00
7E00
FC00
FFFF
FFFF
FFFF
ENDCHAR
STARTCHAR 01B7
ENCODING 439
SWIDTH 666 0
DWIDTH 24 0
BBX 19 26 3 0
BITMAP
FFFF80
FFFF80
FFFF80
001F00
001F00
003E00
007C00
007C00
00F800
01F000
01E000
03F800
03FE00
03FF80
000FC0
0003C0
0001E0
0001E0
0001E0
0001E0
C003E0
E003C0
F80FC0
7FFF80
1FFF00
07F800
ENDCHAR
STARTCHAR 01B8
ENCODING 440
SWIDTH 666 0
DWIDTH 24 0
BBX 19 26 2 0
BITMAP
3FFFE0
3FFFE0
3FFFE0
1F0000
1F0000
0F8000
07C000
07C000
03E000
01F000
00F000
03F800
0FF800
3FF800
7E0000
780000
F00000
F00000
F00000
F00020
F00060
7800E0
7E03E0
3FFFC0
1FFF00
03FC00
ENDCHAR
STARTCHAR 01B9
ENCODING 441
SWIDTH 583 0
DWIDTH 21 0
BBX 18 27 1 -7
BITMAP
3FFF80
3FFF80
3FFF80
1F0000
1F8000
0F8000
07C000
03E000
01F000
00F800
007800
03F800
0FF800
1FF800
3E0000
780000
F80000
F00000
F00000
F00000
F00000
F80000
7C0000
7E00C0
3FFFC0
0FFFC0
03FF00
ENDCHAR
STARTCHAR 01BA
ENCODING 442
SWIDTH 527 0
DWIDTH 19 0
BBX 16 27 2 -8
BITMAP
FFFE
FFFE
FFFE
001E
003C
0078
0078
00F0
01E0
03C0
0780
0FFC
1FFE
001E
000F
000E
001E
01FE
1FF8
3FE0
7C00
F000
E000
F000
7C0E
7FFE
1FFE
ENDCHAR
STARTCHAR 01BB
ENCODING 443
SWIDTH 638 0
DWIDTH 23 0
BBX 16 27 3 0
BITMAP
03C0
7FF0
FFFC
F87E
C01E
000F
000F
0007
0007
000F
000F
001E
001E
003C
7FFF
7FFF
01E0
03C0
0780
0F00
1E00
3C00
7800
F000
FFFF
FFFF
FFFF
ENDCHAR
STARTCHAR 01BC
ENCODING 444
SWIDTH 666 0
DWIDTH 24 0
BBX 21 27 1 -1
BITMAP
3FFFC0
3FFFC0
3FFFC0
3C0000
3C0000
3C0000
3C0000
3C0000
3C0000
3C0000
3C0000
3FFE00
3FFF80
3FFFE0
0003E0
0000F0
0000F8
000078
000078
F00078
F00078
F800F8
7800F0
7E03F0
3FFFE0
0FFF80
03FE00
ENDCHAR
STARTCHAR 01BD
ENCODING 445
SWIDTH 583 0
DWIDTH 21 0
BBX 17 27 2 -7
BITMAP
7FFE00
7FFE00
7FFE00
780000
780000
780000
780000
780000
780000
780000
780000
7FE000
7FF800
7FFE00
003F00
000F00
000F80
000780
000780
000780
000780
000F80
000F00
C03F00
FFFE00
FFF800
3FE000
ENDCHAR
STARTCHAR 01BE
ENCODING 446
SWIDTH 500 0
DWIDTH 18 0
BBX 14 25 2 0
BITMAP
0F00
0F00
0F00
0F00
0F00
FFF0
FFF0
0F00
0F00
0F00
0FC0
0FF0
01F8
0078
003C
001C
001C
001C
001C
001C
003C
0078
E1F8
FFF0
FFC0
ENDCHAR
STARTCHAR 01BF
ENCODING 447
SWIDTH 638 0
DWIDTH 23 0
BBX 18 27 3 -7
BITMAP
F0FE00
F3FF00
FFFF80
FF0F80
FC07C0
F803C0
F003C0
F003C0
F003C0
F00380
F00780
F00F00
F00F00
F01E00
F07C00
F0F800
F1F000
F3E000
FF8000
FF0000
FC0000
F80000
F00000
F00000
F00000
F00000
F00000
ENDCHAR
STARTCHAR 01C0
ENCODING 448
SWIDTH 305 0
DWIDTH 11 0
BBX 4 34 3 -7
BITMAP
F0
F0
F0
F0
F0
F0
F0
F0
F0
F0
F0
F0
F0
F0
F0
F0
F0
F0
F0
F0
F0
F0
F0
F0
F0
F0
F0
F0
F0
F0
F0
F0
F0
F0
ENDCHAR
STARTCHAR 01C1
ENCODING 449
SWIDTH 500 0
DWIDTH 18 0
BBX 11 34 3 -7
BITMAP
F1E0
F1E0
F1E0
F1E0
F1E0
F1E0
F1E0
F1E0
F1E0
F1E0
F1E0
F1E0
F1E0
F1E0
F1E0
F1E0
F1E0
F1E0
F1E0
F1E0
F1E0
F1E0
F1E0
F1E0
F1E0
F1E0
F1E0
F1E0
F1E0
F1E0
F1E0
F1E0
F1E0
F1E0
ENDCHAR
STARTCHAR 01C2
ENCODING 450
SWIDTH 472 0
DWIDTH 17 0
BBX 16 34 1 -7
BITMAP
03C0
03C0
03C0
03C0
03C0
03C0
03C0
03C0
03C0
03C0
03C0
FFFF
FFFF
FFFF
03C0
03C0
03C0
03C0
FFFF
FFFF
FFFF
03C0
03C0
03C0
03C0
03C0
03C0
03C0
03C0
03C0
03C0
03C0
03C0
03C0
ENDCHAR
STARTCHAR 01C3
ENCODING 451
SWIDTH 305 0
DWIDTH 11 0
BBX 4 26 3 0
BITMAP
F0
F0
F0
F0
F0
F0
F0
F0
F0
F0
F0
F0
F0
F0
F0
F0
F0
F0
00
00
00
00
F0
F0
F0
F0
ENDCHAR
STARTCHAR 01C4
ENCODING 452
SWIDTH 1416 0
DWIDTH 51 0
BBX 46 34 3 0
BITMAP
000000038380
00000001C700
00000000EE00
000000007C00
000000007C00
000000000000
000000000000
000000000000
FFF8007FFFF8
FFFF007FFFF8
FFFFC07FFFF8
F00FE00001F0
F003F00001F0
F000F00003E0
F000F80007C0
F00078000F80
F0007C000F80
F0003C001F00
F0003C003E00
F0003C003E00
F0003C007C00
F0003C00F800
F0003C01F000
F0003C01F000
F0003C03E000
F0007C07C000
F000780F8000
F000F80F8000
F000F01F0000
F003F03E0000
F00FE03E0000
FFFFC07FFFFC
FFFF007FFFFC
FFF8007FFFFC
ENDCHAR
STARTCHAR 01C5
ENCODING 453
SWIDTH 1305 0
DWIDTH 47 0
BBX 41 29 3 0
BITMAP
0000000E1C00
000000061800
000000073800
FFF800033000
FFFF0003F000
FFFFC001E000
F00FE000C000
F003F0000000
F000F0000000
F000F87FFF80
F000787FFF80
F0007C7FFF80
F0003C000F80
F0003C001F00
F0003C003E00
F0003C007C00
F0003C00FC00
F0003C00F800
F0003C01F000
F0003C03E000
F0007C07E000
F0007807C000
F000F80F8000
F000F01F0000
F003F03F0000
F00FE07E0000
FFFFC07FFF80
FFFF007FFF80
FFF8007FFF80
ENDCHAR
STARTCHAR 01C6
ENCODING 454
SWIDTH 1166 0
DWIDTH 42 0
BBX 37 29 2 0
BITMAP
000000E1C0
0000006180
0003C07380
0003C03300
0003C03F00
0003C01E00
0003C00C00
0003C00000
0003C00000
07E3C7FFF8
1FFBC7FFF8
3FFFC7FFF8
3E1FC000F8
7C0FC001F0
7807C003E0
F807C007C0
F003C00FC0
F003C00F80
F003C01F00
F003C03E00
F003C07E00
F003C07C00
F007C0F800
7807C1F000
7C0FC3F000
3E1FC7E000
3FFFC7FFF8
1FFBC7FFF8
07E3C7FFF8
ENDCHAR
STARTCHAR 01C7
ENCODING 455
SWIDTH 833 0
DWIDTH 30 0
BBX 25 33 3 -7
BITMAP
F0000780
F0000780
F0000780
F0000780
F0000780
F0000780
F0000780
F0000780
F0000780
F0000780
F0000780
F0000780
F0000780
F0000780
F0000780
F0000780
F0000780
F0000780
F0000780
F0000780
F0000780
F0000780
F0000780
FFFF0780
FFFF0780
FFFF0780
00000780
00000780
00000F00
00001F00
0000FE00
0000FC00
0000F800
ENDCHAR
STARTCHAR 01C8
ENCODING 456
SWIDTH 777 0
DWIDTH 28 0
BBX 24 34 3 -7
BITMAP
00000F
F0000F
F0000F
F0000F
F00000
F00000
F00000
F0000F
F0000F
F0000F
F0000F
F0000F
F0000F
F0000F
F0000F
F0000F
F0000F
F0000F
F0000F
F0000F
F0000F
F0000F
F0000F
F0000F
FFFF0F
FFFF0F
FFFF0F
00000F
00000F
00000F
00001E
0000FE
0000FC
0000F0
ENDCHAR
STARTCHAR 01C9
ENCODING 457
SWIDTH 444 0
DWIDTH 16 0
BBX 11 34 3 -7
BITMAP
F1E0
F1E0
F1E0
F1E0
F000
F000
F000
F1E0
F1E0
F1E0
F1E0
F1E0
F1E0
F1E0
F1E0
F1E0
F1E0
F1E0
F1E0
F1E0
F1E0
F1E0
F1E0
F1E0
F1E0
F1E0
F1E0
01E0
01E0
01E0
03C0
1FC0
1F80
1E00
ENDCHAR
STARTCHAR 01CA
ENCODING 458
SWIDTH 944 0
DWIDTH 34 0
BBX 28 33 3 -7
BITMAP
FC00F0F0
FC00F0F0
FE00F0F0
FE00F0F0
FF00F0F0
FF00F0F0
FF80F0F0
F780F0F0
F7C0F0F0
F3C0F0F0
F3E0F0F0
F1F0F0F0
F1F0F0F0
F0F8F0F0
F078F0F0
F07CF0F0
F03CF0F0
F03EF0F0
F01EF0F0
F01FF0F0
F00FF0F0
F00FF0F0
F007F0F0
F007F0F0
F003F0F0
F003F0F0
000000F0
000000F0
000001E0
000003E0
00001FC0
00001F80
00001F00
ENDCHAR
STARTCHAR 01CB
ENCODING 459
SWIDTH 916 0
DWIDTH 33 0
BBX 28 34 3 -7
BITMAP
000000F0
FC00F0F0
FC00F0F0
FE00F0F0
FE00F000
FF00F000
FF00F000
FF80F0F0
F780F0F0
F7C0F0F0
F3C0F0F0
F3E0F0F0
F1F0F0F0
F1F0F0F0
F0F8F0F0
F078F0F0
F07CF0F0
F03CF0F0
F03EF0F0
F01EF0F0
F01FF0F0
F00FF0F0
F00FF0F0
F007F0F0
F007F0F0
F003F0F0
F003F0F0
000000F0
000000F0
000000F0
000001E0
00000FE0
00000FC0
00000F00
ENDCHAR
STARTCHAR 01CC
ENCODING 460
SWIDTH 805 0
DWIDTH 29 0
BBX 24 34 3 -7
BITMAP
00000F
00000F
00000F
00000F
000000
000000
000000
F1F00F
F3FC0F
F7FE0F
FE3E0F
F81E0F
F80F0F
F00F0F
F00F0F
F00F0F
F00F0F
F00F0F
F00F0F
F00F0F
F00F0F
F00F0F
F00F0F
F00F0F
F00F0F
F00F0F
F00F0F
00000F
00000F
00000F
00001E
0000FE
0000FC
0000F0
ENDCHAR
STARTCHAR 01CD
ENCODING 461
SWIDTH 694 0
DWIDTH 25 0
BBX 24 34 0 0
BITMAP
018180
00C300
00E700
007E00
003C00
000000
000000
000000
003C00
007E00
007E00
007E00
00FF00
00FF00
01FF80
01E780
01E780
03E7C0
03C3C0
03C3C0
07C1E0
0781E0
0F81F0
0F00F0
0FFFF0
1FFFF8
1FFFF8
3E0078
3C003C
3C003C
7C003E
78001E
78001E
F0000F
ENDCHAR
STARTCHAR 01CE
ENCODING 462
SWIDTH 611 0
DWIDTH 22 0
BBX 17 29 2 0
BITMAP
1C1C00
0C1800
063800
077000
036000
03E000
01C000
000000
000000
07F000
3FFC00
7FFE00
703F00
400F00
000780
000780
000780
07FF80
3FFF80
7FFF80
7C0780
F00780
F00780
F00F80
F00F80
F83F80
7FF780
3FE780
0F8780
ENDCHAR
STARTCHAR 01CF
ENCODING 463
SWIDTH 305 0
DWIDTH 11 0
BBX 10 34 0 0
BITMAP
C0C0
6180
7380
3F00
1E00
0000
0000
0000
1E00
1E00
1E00
1E00
1E00
1E00
1E00
1E00
1E00
1E00
1E00
1E00
1E00
1E00
1E00
1E00
1E00
1E00
1E00
1E00
1E00
1E00
1E00
1E00
1E00
1E00
ENDCHAR
STARTCHAR 01D0
ENCODING 464
SWIDTH 277 0
DWIDTH 10 0
BBX 10 29 0 0
BITMAP
C0C0
E1C0
7380
3300
3F00
1E00
1E00
0000
0000
1E00
1E00
1E00
1E00
1E00
1E00
1E00
1E00
1E00
1E00
1E00
1E00
1E00
1E00
1E00
1E00
1E00
1E00
1E00
1E00
ENDCHAR
STARTCHAR 01D1
ENCODING 465
SWIDTH 777 0
DWIDTH 28 0
BBX 24 34 2 0
BITMAP
01C1C0
00E380
007700
003E00
003E00
000000
000000
000000
00FF00
03FFC0
0FFFF0
1F81F8
3E0078
3C003C
7C003E
78001E
78001E
F0000F
F0000F
F0000F
F0000F
F0000F
F0000F
F0000F
F0000F
78001E
78001E
7C003E
3C003C
3E007C
1F81F8
0FFFF0
03FFC0
00FF00
ENDCHAR
STARTCHAR 01D2
ENCODING 466
SWIDTH 611 0
DWIDTH 22 0
BBX 18 29 2 0
BITMAP
0C0C00
0E1C00
073800
033000
03F000
01E000
01E000
000000
000000
03F000
0FFC00
1FFE00
3E1F00
7C0F80
780780
F807C0
F003C0
F003C0
F003C0
F003C0
F003C0
F003C0
F807C0
780780
7C0F80
3E1F00
1FFE00
0FFC00
03F000
ENDCHAR
STARTCHAR 01D3
ENCODING 467
SWIDTH 722 0
DWIDTH 26 0
BBX 20 34 4 0
BITMAP
060600
030C00
039C00
01F800
00F000
000000
000000
000000
F000F0
F000F0
F000F0
F000F0
F000F0
F000F0
F000F0
F000F0
F000F0
F000F0
F000F0
F000F0
F000F0
F000F0
F000F0
F000F0
F000F0
F000F0
F000F0
F801F0
7801E0
7C03E0
3E07C0
1FFF80
0FFF00
03FC00
ENDCHAR
STARTCHAR 01D4
ENCODING 468
SWIDTH 638 0
DWIDTH 23 0
BBX 16 29 3 0
BITMAP
1818
1C38
0E70
0660
07E0
03C0
03C0
0000
0000
F00F
F00F
F00F
F00F
F00F
F00F
F00F
F00F
F00F
F00F
F00F
F00F
F00F
F00F
F01F
F81F
7C7F
7FEF
3FCF
0F8F
ENDCHAR
STARTCHAR 01D5
ENCODING 469
SWIDTH 722 0
DWIDTH 26 0
BBX 20 37 4 0
BITMAP
0FFE00
0FFE00
0FFE00
000000
0F1E00
0F1E00
0F1E00
0F1E00
000000
000000
000000
F000F0
F000F0
F000F0
F000F0
F000F0
F000F0
F000F0
F000F0
F000F0
F000F0
F000F0
F000F0
F000F0
F000F0
F000F0
F000F0
F000F0
F000F0
F000F0
F801F0
7801E0
7C03E0
3E07C0
1FFF80
0FFF00
03FC00
ENDCHAR
STARTCHAR 01D6
ENCODING 470
SWIDTH 638 0
DWIDTH 23 0
BBX 16 33 3 0
BITMAP
1FFC
1FFC
1FFC
0000
0000
0000
1E3C
1E3C
1E7C
1E7C
0000
0000
0000
F00F
F00F
F00F
F00F
F00F
F00F
F00F
F00F
F00F
F00F
F00F
F00F
F00F
F00F
F01F
F81F
7C7F
7FEF
3FCF
0F8F
ENDCHAR
STARTCHAR 01D7
ENCODING 471
SWIDTH 722 0
DWIDTH 26 0
BBX 20 38 4 0
BITMAP
001C00
003C00
003800
007000
00E000
0F1E00
0F1E00
0F1E00
0F1E00
000000
000000
000000
F000F0
F000F0
F000F0
F000F0
F000F0
F000F0
F000F0
F000F0
F000F0
F000F0
F000F0
F000F0
F000F0
F000F0
F000F0
F000F0
F000F0
F000F0
F000F0
F801F0
7801E0
7C03E0
3E07C0
1FFF80
0FFF00
03FC00
ENDCHAR
STARTCHAR 01D8
ENCODING 472
SWIDTH 638 0
DWIDTH 23 0
BBX 16 33 3 0
BITMAP
0038
0078
0070
00E0
01C0
1E3C
1E3C
1E3C
1E3C
0000
0000
0000
0000
F00F
F00F
F00F
F00F
F00F
F00F
F00F
F00F
F00F
F00F
F00F
F00F
F00F
F00F
F01F
F81F
7C7F
7FEF
3FCF
0F8F
ENDCHAR
STARTCHAR 01D9
ENCODING 473
SWIDTH 722 0
DWIDTH 26 0
BBX 20 38 4 0
BITMAP
0E0E00
071C00
03B800
01F000
01F000
0F1E00
0F1E00
0F1E00
0F1E00
000000
000000
000000
F000F0
F000F0
F000F0
F000F0
F000F0
F000F0
F000F0
F000F0
F000F0
F000F0
F000F0
F000F0
F000F0
F000F0
F000F0
F000F0
F000F0
F000F0
F000F0
F801F0
7801E0
7C03E0
3E07C0
1FFF80
0FFF00
03FC00
ENDCHAR
STARTCHAR 01DA
ENCODING 474
SWIDTH 638 0
DWIDTH 23 0
BBX 16 33 3 0
BITMAP
1C1C
0E38
0770
03E0
03E0
1E3C
1E3C
1E3C
1E3C
0000
0000
0000
0000
F00F
F00F
F00F
F00F
F00F
F00F
F00F
F00F
F00F
F00F
F00F
F00F
F00F
F00F
F01F
F81F
7C7F
7FEF
3FCF
0F8F
ENDCHAR
STARTCHAR 01DB
ENCODING 475
SWIDTH 722 0
DWIDTH 26 0
BBX 20 38 4 0
BITMAP
0F0000
070000
038000
01C000
00C000
0F1E00
0F1E00
0F1E00
0F1E00
000000
000000
000000
F000F0
F000F0
F000F0
F000F0
F000F0
F000F0
F000F0
F000F0
F000F0
F000F0
F000F0
F000F0
F000F0
F000F0
F000F0
F000F0
F000F0
F000F0
F000F0
F801F0
7801E0
7C03E0
3E07C0
1FFF80
0FFF00
03FC00
ENDCHAR
STARTCHAR 01DC
ENCODING 476
SWIDTH 638 0
DWIDTH 23 0
BBX 16 33 3 0
BITMAP
1E00
0E00
0700
0380
0180
1E3C
1E3C
1E3C
1E3C
0000
0000
0000
0000
F00F
F00F
F00F
F00F
F00F
F00F
F00F
F00F
F00F
F00F
F00F
F00F
F00F
F00F
F01F
F81F
7C7F
7FEF
3FCF
0F8F
ENDCHAR
STARTCHAR 01DD
ENCODING 477
SWIDTH 611 0
DWIDTH 22 0
BBX 18 20 2 0
BITMAP
07F000
3FFC00
7FFE00
701F00
400F80
000780
0003C0
0003C0
FFFFC0
FFFFC0
FFFFC0
F003C0
F003C0
F007C0
780780
780F80
3E1F00
3FFE00
0FFC00
07F000
ENDCHAR
STARTCHAR 01DE
ENCODING 478
SWIDTH 694 0
DWIDTH 25 0
BBX 24 37 0 0
BITMAP
01FFC0
01FFC0
01FFC0
000000
01E3C0
01E3C0
01E3C0
01E3C0
000000
000000
000000
003C00
007E00
007E00
007E00
00FF00
00FF00
01FF80
01E780
01E780
03E7C0
03C3C0
03C3C0
07C1E0
0781E0
0F81F0
0F00F0
0FFFF0
1FFFF8
1FFFF8
3E0078
3C003C
3C003C
7C003E
78001E
78001E
F0000F
ENDCHAR
STARTCHAR 01DF
ENCODING 479
SWIDTH 611 0
DWIDTH 22 0
BBX 17 33 2 0
BITMAP
1FFC00
1FFC00
1FFC00
000000
000000
000000
1E3C00
1E3C00
1E3C00
1E3C00
000000
000000
000000
07F000
3FFC00
7FFE00
703F00
400F00
000780
000780
000780
07FF80
3FFF80
7FFF80
7C0780
F00780
F00780
F00F80
F00F80
F83F80
7FF780
3FE780
0F8780
ENDCHAR
STARTCHAR 01E0
ENCODING 480
SWIDTH 694 0
DWIDTH 25 0
BBX 24 37 0 0
BITMAP
01FFC0
01FFC0
01FFC0
000000
003C00
003C00
003C00
003C00
000000
000000
000000
003C00
007E00
007E00
007E00
00FF00
00FF00
01FF80
01E780
01E780
03E7C0
03C3C0
03C3C0
07C1E0
0781E0
0F81F0
0F00F0
0FFFF0
1FFFF8
1FFFF8
3E0078
3C003C
3C003C
7C003E
78001E
78001E
F0000F
ENDCHAR
STARTCHAR 01E1
ENCODING 481
SWIDTH 611 0
DWIDTH 22 0
BBX 17 31 2 0
BITMAP
1FFC00
1FFC00
1FFC00
000000
03C000
03C000
03C000
03C000
000000
000000
000000
07F000
3FFC00
7FFE00
703F00
400F00
000780
000780
000780
07FF80
3FFF80
7FFF80
7C0780
F00780
F00780
F00F80
F00F80
F83F80
7FF780
3FE780
0F8780
ENDCHAR
STARTCHAR 01E2
ENCODING 482
SWIDTH 972 0
DWIDTH 35 0
BBX 33 33 0 0
BITMAP
00007FF000
00007FF000
00007FF000
0000000000
0000000000
0000000000
0000000000
001FFFFF80
001FFFFF80
003FFFFF80
003CF00000
007CF00000
0078F00000
00F8F00000
00F0F00000
00F0F00000
01E0F00000
01E0F00000
03E0FFFF00
03C0FFFF00
07C0FFFF00
0780F00000
0780F00000
0FFFF00000
0FFFF00000
1FFFF00000
1E00F00000
3E00F00000
3C00F00000
7C00F00000
7800FFFF80
7800FFFF80
F800FFFF80
ENDCHAR
STARTCHAR 01E3
ENCODING 483
SWIDTH 972 0
DWIDTH 35 0
BBX 30 27 2 0
BITMAP
001FFC00
001FFC00
001FFC00
00000000
00000000
00000000
00000000
0FE03F80
3FF8FFE0
7FFDFFF0
707FE0F0
401FC078
000F8078
000F003C
000F003C
0FFFFFFC
3FFFFFFC
7FFFFFFC
7C0F0000
F00F0000
F00F8000
F01F8000
F01FC008
F87BF038
7FF1FFF8
3FE0FFF0
0FC03F80
ENDCHAR
STARTCHAR 01E4
ENCODING 484
SWIDTH 777 0
DWIDTH 28 0
BBX 25 26 2 0
BITMAP
007F8000
03FFF000
0FFFF800
1FC07C00
3F001C00
3C000C00
7C000400
78000000
78000000
F0000000
F0000000
F0000000
F007FE00
F007FE00
F007FE00
F0001E00
F0001E00
7801FF80
7801FF80
7C001E00
3C001E00
1E001E00
1FC07E00
07FFFC00
03FFF000
007F8000
ENDCHAR
STARTCHAR 01E5
ENCODING 485
SWIDTH 638 0
DWIDTH 23 0
BBX 21 27 2 -7
BITMAP
07E3C0
1FFBC0
3FFFC0
3E1FC0
7C0FC0
7807C0
F007C0
F003C0
F003C0
F003C0
F003C0
F003C0
F003C0
F007C0
7807C0
7C0FC0
3E1FC0
3FFFC0
1FFBC0
07E3C0
1FFFF8
000780
200F80
383F00
3FFE00
1FFC00
07F000
ENDCHAR
STARTCHAR 01E6
ENCODING 486
SWIDTH 777 0
DWIDTH 28 0
BBX 23 34 2 0
BITMAP
00C1C0
006180
007380
003F00
001E00
000000
000000
000000
007F80
03FFF0
0FFFF8
1FC07C
3F001C
3C000C
7C0004
780000
780000
F00000
F00000
F00000
F007FE
F007FE
F007FE
F0001E
F0001E
78001E
78001E
7C001E
3C001E
1E001E
1FC07E
07FFFC
03FFF0
007F80
ENDCHAR
STARTCHAR 01E7
ENCODING 487
SWIDTH 638 0
DWIDTH 23 0
BBX 18 36 2 -7
BITMAP
383800
183000
0C7000
0EE000
06C000
07C000
038000
000000
000000
07E3C0
1FFBC0
3FFFC0
3E1FC0
7C0FC0
7807C0
F007C0
F003C0
F003C0
F003C0
F003C0
F003C0
F003C0
F007C0
7807C0
7C0FC0
3E1FC0
3FFFC0
1FFBC0
07E3C0
0003C0
000780
200F80
381F80
3FFF00
1FFE00
07F000
ENDCHAR
STARTCHAR 01E8
ENCODING 488
SWIDTH 666 0
DWIDTH 24 0
BBX 21 34 3 0
BITMAP
0E0E00
071C00
03B800
01F000
01F000
000000
000000
000000
F003E0
F007C0
F00F80
F03F00
F07E00
F0FC00
F1F800
F3F000
F7E000
FFC000
FF8000
FF0000
FF0000
FF8000
FFC000
F7E000
F3F000
F1F800
F0FC00
F07E00
F03F00
F01F80
F00FC0
F007E0
F003F0
F001F8
ENDCHAR
STARTCHAR 01E9
ENCODING 489
SWIDTH 583 0
DWIDTH 21 0
BBX 21 34 -1 0
BITMAP
E07000
70E000
39C000
1F8000
0F0000
000000
000000
0F0000
0F0000
0F0000
0F0000
0F0000
0F0000
0F0000
0F01F0
0F03E0
0F07C0
0F1F80
0F3F00
0F7E00
0FFC00
0FF800
0FF000
0FE000
0FF000
0FF800
0F7C00
0F3E00
0F3F00
0F1F80
0F0FC0
0F07E0
0F03F0
0F01F8
ENDCHAR
STARTCHAR 01EA
ENCODING 490
SWIDTH 777 0
DWIDTH 28 0
BBX 24 33 2 -7
BITMAP
00FF00
03FFC0
0FFFF0
1F81F8
3E0078
3C003C
7C003E
78001E
78001E
F0000F
F0000F
F0000F
F0000F
F0000F
F0000F
F0000F
F0000F
78001E
78001E
7C003E
3C003C
3E007C
1F81F8
0FFFF0
03FFC0
00FF00
001800
003000
007000
007100
007F00
007F00
001F00
ENDCHAR
STARTCHAR 01EB
ENCODING 491
SWIDTH 611 0
DWIDTH 22 0
BBX 18 27 2 -7
BITMAP
03F000
0FFC00
1FFE00
3E1F00
7C0F80
780780
F807C0
F003C0
F003C0
F003C0
F003C0
F003C0
F003C0
F807C0
780780
7C0F80
3E1F00
1FFE00
0FFC00
03F000
00C000
018000
038000
038800
03F800
03F800
00F800
ENDCHAR
STARTCHAR 01EC
ENCODING 492
SWIDTH 777 0
DWIDTH 28 0
BBX 24 40 2 -7
BITMAP
01FFC0
01FFC0
01FFC0
000000
000000
000000
000000
00FF00
03FFC0
0FFFF0
1F81F8
3E0078
3C003C
7C003E
78001E
78001E
F0000F
F0000F
F0000F
F0000F
F0000F
F0000F
F0000F
F0000F
78001E
78001E
7C003E
3C003C
3E007C
1F81F8
0FFFF0
03FFC0
00FF00
001800
003000
007000
007100
007F00
007F00
001F00
ENDCHAR
STARTCHAR 01ED
ENCODING 493
SWIDTH 611 0
DWIDTH 22 0
BBX 18 34 2 -7
BITMAP
0FFE00
0FFE00
0FFE00
000000
000000
000000
000000
03F000
0FFC00
1FFE00
3E1F00
7C0F80
780780
F807C0
F003C0
F003C0
F003C0
F003C0
F003C0
F003C0
F807C0
780780
7C0F80
3E1F00
1FFE00
0FFC00
03F000
00C000
018000
038000
038800
03F800
03F800
00F800
ENDCHAR
STARTCHAR 01EE
ENCODING 494
SWIDTH 666 0
DWIDTH 24 0
BBX 19 34 3 0
BITMAP
0E0E00
071C00
03B800
01F000
01F000
000000
000000
000000
FFFF80
FFFF80
FFFF80
001F00
001F00
003E00
007C00
007C00
00F800
01F000
01E000
03F800
03FE00
03FF80
000FC0
0003C0
0001E0
0001E0
0001E0
0001E0
C003E0
E003C0
F80FC0
7FFF80
1FFF00
07F800
ENDCHAR
STARTCHAR 01EF
ENCODING 495
SWIDTH 583 0
DWIDTH 21 0
BBX 18 36 2 -7
BITMAP
707000
306000
18E000
1DC000
0D8000
0F8000
070000
000000
000000
7FFF00
7FFF00
7FFF00
003E00
007E00
007C00
00F800
01F000
03E000
07C000
078000
07F000
07FC00
07FE00
001F00
000780
0007C0
0003C0
0003C0
0003C0
0003C0
0007C0
000F80
C01F80
FFFF00
FFFC00
3FF000
ENDCHAR
STARTCHAR 01F0
ENCODING 496
SWIDTH 277 0
DWIDTH 10 0
BBX 11 36 -1 -7
BITMAP
6060
70E0
39C0
1980
1F80
0F00
0F00
0000
0000
0F00
0F00
0F00
0F00
0F00
0F00
0F00
0F00
0F00
0F00
0F00
0F00
0F00
0F00
0F00
0F00
0F00
0F00
0F00
0F00
0F00
0F00
0F00
1E00
FE00
FC00
F000
ENDCHAR
STARTCHAR 01F1
ENCODING 497
SWIDTH 1416 0
DWIDTH 51 0
BBX 46 26 3 0
BITMAP
FFF8007FFFF8
FFFF007FFFF8
FFFFC07FFFF8
F00FE00001F0
F003F00001F0
F000F00003E0
F000F80007C0
F00078000F80
F0007C000F80
F0003C001F00
F0003C003E00
F0003C003E00
F0003C007C00
F0003C00F800
F0003C01F000
F0003C01F000
F0003C03E000
F0007C07C000
F000780F8000
F000F80F8000
F000F01F0000
F003F03E0000
F00FE03E0000
FFFFC07FFFFC
FFFF007FFFFC
FFF8007FFFFC
ENDCHAR
STARTCHAR 01F2
ENCODING 498
SWIDTH 1305 0
DWIDTH 47 0
BBX 41 26 3 0
BITMAP
FFF800000000
FFFF00000000
FFFFC0000000
F00FE0000000
F003F0000000
F000F0000000
F000F87FFF80
F000787FFF80
F0007C7FFF80
F0003C000F80
F0003C001F00
F0003C003E00
F0003C007C00
F0003C00FC00
F0003C00F800
F0003C01F000
F0003C03E000
F0007C07E000
F0007807C000
F000F80F8000
F000F01F0000
F003F03F0000
F00FE07E0000
FFFFC07FFF80
FFFF007FFF80
FFF8007FFF80
ENDCHAR
STARTCHAR 01F3
ENCODING 499
SWIDTH 1166 0
DWIDTH 42 0
BBX 37 27 2 0
BITMAP
0003C00000
0003C00000
0003C00000
0003C00000
0003C00000
0003C00000
0003C00000
07E3C7FFF8
1FFBC7FFF8
3FFFC7FFF8
3E1FC000F8
7C0FC001F0
7807C003E0
F807C007C0
F003C00FC0
F003C00F80
F003C01F00
F003C03E00
F003C07E00
F003C07C00
F007C0F800
7807C1F000
7C0FC3F000
3E1FC7E000
3FFFC7FFF8
1FFBC7FFF8
07E3C7FFF8
ENDCHAR
STARTCHAR 01F4
ENCODING 500
SWIDTH 777 0
DWIDTH 28 0
BBX 23 34 2 0
BITMAP
000700
000F00
000E00
001C00
003800
000000
000000
000000
007F80
03FFF0
0FFFF8
1FC07C
3F001C
3C000C
7C0004
780000
780000
F00000
F00000
F00000
F007FE
F007FE
F007FE
F0001E
F0001E
78001E
78001E
7C001E
3C001E
1E001E
1FC07E
07FFFC
03FFF0
007F80
ENDCHAR
STARTCHAR 01F5
ENCODING 501
SWIDTH 638 0
DWIDTH 23 0
BBX 18 36 2 -7
BITMAP
007800
007000
00E000
01C000
01C000
038000
070000
000000
000000
07E3C0
1FFBC0
3FFFC0
3E1FC0
7C0FC0
7807C0
F007C0
F003C0
F003C0
F003C0
F003C0
F003C0
F003C0
F007C0
7807C0
7C0FC0
3E1FC0
3FFFC0
1FFBC0
07E3C0
0003C0
000780
200F80
381F80
3FFF00
1FFE00
07F000
ENDCHAR
STARTCHAR 01F6
ENCODING 502
SWIDTH 1111 0
DWIDTH 40 0
BBX 33 26 3 0
BITMAP
F000F00000
F000F00000
F000F00000
F000F00000
F000F00000
F000F00000
F000F00000
F000F00780
F000F00780
F000F00780
F000F00780
FFFFF00780
FFFFF00780
FFFFF00780
F000F00780
F000F00780
F000F00780
F000F00780
F000F00780
F000F00780
F000F00780
F000F80F80
F0007C1F00
F0007FFF00
F0003FFE00
F0000FF800
ENDCHAR
STARTCHAR 01F7
ENCODING 503
SWIDTH 666 0
DWIDTH 24 0
BBX 19 33 3 -7
BITMAP
F07F00
F1FF80
F7FFC0
FF87C0
FE03E0
FC01E0
F801E0
F001E0
F001E0
F001E0
F003C0
F003C0
F00780
F00F00
F01E00
F03E00
F07800
F1F000
F3E000
FFC000
FF0000
FE0000
F80000
F00000
F00000
F00000
F00000
F00000
F00000
F00000
F00000
F00000
F00000
ENDCHAR
STARTCHAR 01F8
ENCODING 504
SWIDTH 750 0
DWIDTH 27 0
BBX 20 34 3 0
BITMAP
01E000
00E000
007000
003800
001800
000000
000000
000000
FC00F0
FC00F0
FE00F0
FE00F0
FF00F0
FF00F0
FF80F0
F780F0
F7C0F0
F3C0F0
F3E0F0
F1F0F0
F1F0F0
F0F8F0
F078F0
F07CF0
F03CF0
F03EF0
F01EF0
F01FF0
F00FF0
F00FF0
F007F0
F007F0
F003F0
F003F0
ENDCHAR
STARTCHAR 01F9
ENCODING 505
SWIDTH 638 0
DWIDTH 23 0
BBX 16 29 3 0
BITMAP
0780
0380
01C0
00E0
0060
0070
0038
0000
0000
F1F0
F3FC
F7FE
FE3E
F81E
F80F
F00F
F00F
F00F
F00F
F00F
F00F
F00F
F00F
F00F
F00F
F00F
F00F
F00F
F00F
ENDCHAR
STARTCHAR 01FA
ENCODING 506
SWIDTH 694 0
DWIDTH 25 0
BBX 24 34 0 0
BITMAP
003C07
00FF0F
00C30E
01819C
0181B8
018180
018180
01C300
00FF00
007E00
007E00
00FF00
00FF00
01FF80
01E780
01E780
03E7C0
03C3C0
03C3C0
07C3E0
0781E0
0781E0
0F00F0
0F00F0
1FFFF8
1FFFF8
1FFFF8
3E007C
3C003C
3C003C
7C003E
78001E
78001E
F0000F
ENDCHAR
STARTCHAR 01FB
ENCODING 507
SWIDTH 611 0
DWIDTH 22 0
BBX 20 34 2 0
BITMAP
000070
0000F0
01E0E0
07F9C0
061B80
0C0C00
0C0C00
0C0C00
0C0C00
061800
07F800
01E000
000000
000000
07F000
3FFC00
7FFE00
703F00
400F00
000780
000780
000780
07FF80
3FFF80
7FFF80
7C0780
F00780
F00780
F00F80
F00F80
F83F80
7FF780
3FE780
0F8780
ENDCHAR
STARTCHAR 01FC
ENCODING 508
SWIDTH 972 0
DWIDTH 35 0
BBX 33 34 0 0
BITMAP
0000070000
00000F0000
00000E0000
00001C0000
0000380000
0000000000
0000000000
0000000000
001FFFFF80
001FFFFF80
003FFFFF80
003CF00000
007CF00000
0078F00000
00F8F00000
00F0F00000
00F0F00000
01E0F00000
01E0F00000
03E0FFFF00
03C0FFFF00
07C0FFFF00
0780F00000
0780F00000
0FFFF00000
0FFFF00000
1FFFF00000
1E00F00000
3E00F00000
3C00F00000
7C00F00000
7800FFFF80
7800FFFF80
F800FFFF80
ENDCHAR
STARTCHAR 01FD
ENCODING 509
SWIDTH 972 0
DWIDTH 35 0
BBX 30 29 2 0
BITMAP
0001E000
0001C000
00038000
00070000
00070000
000E0000
001C0000
00000000
00000000
0FE03F80
3FF8FFE0
7FFDFFF0
707FE0F0
401FC078
000F8078
000F003C
000F003C
0FFFFFFC
3FFFFFFC
7FFFFFFC
7C0F0000
F00F0000
F00F8000
F01F8000
F01FC008
F87BF038
7FF1FFF8
3FE0FFF0
0FC03F80
ENDCHAR
STARTCHAR 01FE
ENCODING 510
SWIDTH 777 0
DWIDTH 28 0
BBX 24 35 2 -1
BITMAP
000E00
001E00
001C00
003800
007000
000000
000000
000002
00FE07
03FFCF
0FFFEE
1F81FC
3E0078
3C007C
7C00FC
7801DE
F8039E
F0038F
F0070F
F00E0F
F01C0F
F0380F
F0700F
F0E00F
F1C00F
79C01E
7B801E
7F003E
3E003C
1E007C
3F81F8
77FFF0
73FFC0
E07F00
400000
ENDCHAR
STARTCHAR 01FF
ENCODING 511
SWIDTH 611 0
DWIDTH 22 0
BBX 18 30 2 -2
BITMAP
003C00
003800
007000
00E000
00E000
01C000
038000
000000
0000C0
03F1C0
1FFBC0
3FFF80
3E1F00
7C0F00
781F80
F83B80
F033C0
F063C0
F0E3C0
F1C3C0
F183C0
F303C0
7607C0
7E0780
3C0F80
3E1F00
7FFF00
F7FC00
E3F000
C00000
ENDCHAR
STARTCHAR 0200
ENCODING 512
SWIDTH 694 0
DWIDTH 25 0
BBX 24 34 0 0
BITMAP
038E00
01CF00
01C700
00E380
0071C0
000000
000000
000000
003C00
007E00
007E00
007E00
00FF00
00FF00
01FF80
01E780
01E780
03E7C0
03C3C0
03C3C0
07C1E0
0781E0
0F81F0
0F00F0
0FFFF0
1FFFF8
1FFFF8
3E0078
3C003C
3C003C
7C003E
78001E
78001E
F0000F
ENDCHAR
STARTCHAR 0201
ENCODING 513
SWIDTH 611 0
DWIDTH 22 0
BBX 17 29 2 0
BITMAP
1C7000
0E3800
073800
071C00
039C00
018C00
01CE00
000000
000000
07F000
3FFC00
7FFE00
703F00
400F00
000780
000780
000780
07FF80
3FFF80
7FFF80
7C0780
F00780
F00780
F00F80
F00F80
F83F80
7FF780
3FE780
0F8780
ENDCHAR
STARTCHAR 0202
ENCODING 514
SWIDTH 694 0
DWIDTH 25 0
BBX 24 33 0 0
BITMAP
003C00
00FF00
01F780
018180
000000
000000
000000
003C00
007E00
007E00
007E00
00FF00
00FF00
01FF80
01E780
01E780
03E7C0
03C3C0
03C3C0
07C1E0
0781E0
0F81F0
0F00F0
0FFFF0
1FFFF8
1FFFF8
3E0078
3C003C
3C003C
7C003E
78001E
78001E
F0000F
ENDCHAR
STARTCHAR 0203
ENCODING 515
SWIDTH 611 0
DWIDTH 22 0
BBX 17 29 2 0
BITMAP
03E000
07F000
0FF800
1C1C00
180C00
180C00
000000
000000
000000
07F000
3FFC00
7FFE00
703F00
400F00
000780
000780
000780
07FF80
3FFF80
7FFF80
7C0780
F00780
F00780
F00F80
F00F80
F83F80
7FF780
3FE780
0F8780
ENDCHAR
STARTCHAR 0204
ENCODING 516
SWIDTH 638 0
DWIDTH 23 0
BBX 17 34 3 0
BITMAP
38E000
1CF000
1C7000
0E3800
071C00
000000
000000
000000
FFFF80
FFFF80
FFFF80
F00000
F00000
F00000
F00000
F00000
F00000
F00000
F00000
FFFF00
FFFF00
FFFF00
F00000
F00000
F00000
F00000
F00000
F00000
F00000
F00000
F00000
FFFF80
FFFF80
FFFF80
ENDCHAR
STARTCHAR 0205
ENCODING 517
SWIDTH 611 0
DWIDTH 22 0
BBX 18 29 2 0
BITMAP
1C7000
0E3800
073800
071C00
039C00
018C00
01CE00
000000
000000
03F800
0FFE00
1FFF00
3E0F00
7C0780
780780
F003C0
F003C0
FFFFC0
FFFFC0
FFFFC0
F00000
F00000
F80000
780000
7C0080
3F0380
1FFF80
0FFF00
03F800
ENDCHAR
STARTCHAR 0206
ENCODING 518
SWIDTH 638 0
DWIDTH 23 0
BBX 17 33 3 0
BITMAP
01E000
07F800
0FBC00
0C0C00
000000
000000
000000
FFFF80
FFFF80
FFFF80
F00000
F00000
F00000
F00000
F00000
F00000
F00000
F00000
FFFF00
FFFF00
FFFF00
F00000
F00000
F00000
F00000
F00000
F00000
F00000
F00000
F00000
FFFF80
FFFF80
FFFF80
ENDCHAR
STARTCHAR 0207
ENCODING 519
SWIDTH 611 0
DWIDTH 22 0
BBX 18 29 2 0
BITMAP
01F000
03F800
07FC00
0E0E00
0C0600
0C0600
000000
000000
000000
03F800
0FFE00
1FFF00
3E0F00
7C0780
780780
F003C0
F003C0
FFFFC0
FFFFC0
FFFFC0
F00000
F00000
F80000
780000
7C0080
3F0380
1FFF80
0FFF00
03F800
ENDCHAR
STARTCHAR 0208
ENCODING 520
SWIDTH 305 0
DWIDTH 11 0
BBX 12 34 -1 0
BITMAP
E380
73C0
71C0
38E0
1C70
0000
0000
0000
0F00
0F00
0F00
0F00
0F00
0F00
0F00
0F00
0F00
0F00
0F00
0F00
0F00
0F00
0F00
0F00
0F00
0F00
0F00
0F00
0F00
0F00
0F00
0F00
0F00
0F00
ENDCHAR
STARTCHAR 0209
ENCODING 521
SWIDTH 277 0
DWIDTH 10 0
BBX 12 29 -1 0
BITMAP
E380
71C0
39C0
38E0
1CE0
0C60
0E70
0000
0000
0F00
0F00
0F00
0F00
0F00
0F00
0F00
0F00
0F00
0F00
0F00
0F00
0F00
0F00
0F00
0F00
0F00
0F00
0F00
0F00
ENDCHAR
STARTCHAR 020A
ENCODING 522
SWIDTH 305 0
DWIDTH 11 0
BBX 10 33 1 0
BITMAP
1E00
7F80
FBC0
C0C0
0000
0000
0000
3C00
3C00
3C00
3C00
3C00
3C00
3C00
3C00
3C00
3C00
3C00
3C00
3C00
3C00
3C00
3C00
3C00
3C00
3C00
3C00
3C00
3C00
3C00
3C00
3C00
3C00
ENDCHAR
STARTCHAR 020B
ENCODING 523
SWIDTH 277 0
DWIDTH 10 0
BBX 11 29 -1 0
BITMAP
1F00
3F80
7FC0
E0E0
C060
C060
0000
0000
0000
0F00
0F00
0F00
0F00
0F00
0F00
0F00
0F00
0F00
0F00
0F00
0F00
0F00
0F00
0F00
0F00
0F00
0F00
0F00
0F00
ENDCHAR
STARTCHAR 020C
ENCODING 524
SWIDTH 777 0
DWIDTH 28 0
BBX 24 34 2 0
BITMAP
038E00
01CF00
01C700
00E380
0071C0
000000
000000
000000
00FF00
03FFC0
0FFFF0
1F81F8
3E0078
3C003C
7C003E
78001E
78001E
F0000F
F0000F
F0000F
F0000F
F0000F
F0000F
F0000F
F0000F
78001E
78001E
7C003E
3C003C
3E007C
1F81F8
0FFFF0
03FFC0
00FF00
ENDCHAR
STARTCHAR 020D
ENCODING 525
SWIDTH 611 0
DWIDTH 22 0
BBX 18 29 2 0
BITMAP
1C7000
0E3800
073800
071C00
039C00
018C00
01CE00
000000
000000
03F000
0FFC00
1FFE00
3E1F00
7C0F80
780780
F807C0
F003C0
F003C0
F003C0
F003C0
F003C0
F003C0
F807C0
780780
7C0F80
3E1F00
1FFE00
0FFC00
03F000
ENDCHAR
STARTCHAR 020E
ENCODING 526
SWIDTH 777 0
DWIDTH 28 0
BBX 24 33 2 0
BITMAP
003C00
00FF00
01F780
018180
000000
000000
000000
00FF00
03FFC0
0FFFF0
1F81F8
3E0078
3C003C
7C003E
78001E
78001E
F0000F
F0000F
F0000F
F0000F
F0000F
F0000F
F0000F
F0000F
78001E
78001E
7C003E
3C003C
3E007C
1F81F8
0FFFF0
03FFC0
00FF00
ENDCHAR
STARTCHAR 020F
ENCODING 527
SWIDTH 611 0
DWIDTH 22 0
BBX 18 29 2 0
BITMAP
01F000
03F800
07FC00
0E0E00
0C0600
0C0600
000000
000000
000000
03F000
0FFC00
1FFE00
3E1F00
7C0F80
780780
F807C0
F003C0
F003C0
F003C0
F003C0
F003C0
F003C0
F807C0
780780
7C0F80
3E1F00
1FFE00
0FFC00
03F000
ENDCHAR
STARTCHAR 0210
ENCODING 528
SWIDTH 694 0
DWIDTH 25 0
BBX 21 34 3 0
BITMAP
71C000
39E000
38E000
1C7000
0E3800
000000
000000
000000
FFF000
FFFC00
FFFE00
F01F00
F00F80
F00780
F00780
F00780
F00780
F00780
F00F00
F01F00
FFFE00
FFF800
FFFC00
F07E00
F01E00
F01F00
F00F80
F00780
F007C0
F003C0
F003E0
F001F0
F000F0
F000F8
ENDCHAR
STARTCHAR 0211
ENCODING 529
SWIDTH 416 0
DWIDTH 15 0
BBX 12 29 3 0
BITMAP
E380
71C0
39C0
38E0
1CE0
0C60
0E70
0000
0000
F0F0
F3F0
F7F0
FE00
FC00
F800
F800
F000
F000
F000
F000
F000
F000
F000
F000
F000
F000
F000
F000
F000
ENDCHAR
STARTCHAR 0212
ENCODING 530
SWIDTH 694 0
DWIDTH 25 0
BBX 21 33 3 0
BITMAP
03C000
0FF000
1F7800
181800
000000
000000
000000
FFF000
FFFC00
FFFE00
F01F00
F00F80
F00780
F00780
F00780
F00780
F00780
F00F00
F01F00
FFFE00
FFF800
FFFC00
F07E00
F01E00
F01F00
F00F80
F00780
F007C0
F003C0
F003E0
F001F0
F000F0
F000F8
ENDCHAR
STARTCHAR 0213
ENCODING 531
SWIDTH 416 0
DWIDTH 15 0
BBX 12 29 3 0
BITMAP
0F80
1FC0
3FE0
7070
6030
6030
0000
0000
0000
F0F0
F3F0
F7F0
FE00
FC00
F800
F800
F000
F000
F000
F000
F000
F000
F000
F000
F000
F000
F000
F000
F000
ENDCHAR
STARTCHAR 0214
ENCODING 532
SWIDTH 722 0
DWIDTH 26 0
BBX 20 34 4 0
BITMAP
1C7000
0E7800
0E3800
071C00
038E00
000000
000000
000000
F000F0
F000F0
F000F0
F000F0
F000F0
F000F0
F000F0
F000F0
F000F0
F000F0
F000F0
F000F0
F000F0
F000F0
F000F0
F000F0
F000F0
F000F0
F000F0
F801F0
7801E0
7C03E0
3E07C0
1FFF80
0FFF00
03FC00
ENDCHAR
STARTCHAR 0215
ENCODING 533
SWIDTH 638 0
DWIDTH 23 0
BBX 16 29 3 0
BITMAP
1C70
0E38
0738
071C
039C
018C
01CE
0000
0000
F00F
F00F
F00F
F00F
F00F
F00F
F00F
F00F
F00F
F00F
F00F
F00F
F00F
F00F
F01F
F81F
7C7F
7FEF
3FCF
0F8F
ENDCHAR
STARTCHAR 0216
ENCODING 534
SWIDTH 722 0
DWIDTH 26 0
BBX 20 33 4 0
BITMAP
01E000
07F800
0FBC00
0C0C00
000000
000000
000000
F000F0
F000F0
F000F0
F000F0
F000F0
F000F0
F000F0
F000F0
F000F0
F000F0
F000F0
F000F0
F000F0
F000F0
F000F0
F000F0
F000F0
F000F0
F000F0
F801F0
7801E0
7C03E0
3E07C0
1FFF80
0FFF00
03FC00
ENDCHAR
STARTCHAR 0217
ENCODING 535
SWIDTH 638 0
DWIDTH 23 0
BBX 16 29 3 0
BITMAP
03E0
07F0
0FF8
1C1C
180C
180C
0000
0000
0000
F00F
F00F
F00F
F00F
F00F
F00F
F00F
F00F
F00F
F00F
F00F
F00F
F00F
F00F
F01F
F81F
7C7F
7FEF
3FCF
0F8F
ENDCHAR
STARTCHAR 0218
ENCODING 536
SWIDTH 638 0
DWIDTH 23 0
BBX 18 35 2 -9
BITMAP
07FC00
1FFF00
3FFF00
7C0300
F80000
F00000
F00000
F00000
F80000
FE0000
7FE000
3FFC00
1FFF00
03FF80
003F80
0007C0
0007C0
0003C0
0003C0
0003C0
0003C0
800780
F01F80
FFFF00
FFFE00
1FF800
000000
000000
000000
00E000
01E000
01C000
01C000
018000
038000
ENDCHAR
STARTCHAR 0219
ENCODING 537
SWIDTH 527 0
DWIDTH 19 0
BBX 15 29 2 -9
BITMAP
0FF0
3FFC
7FFC
FC0C
F000
F000
F000
FC00
7FC0
1FF0
03FC
007C
001E
001E
001E
801E
E07E
FFFC
7FF8
0FE0
0000
0000
0000
01C0
03C0
0380
0380
0300
0700
ENDCHAR
STARTCHAR 021A
ENCODING 538
SWIDTH 611 0
DWIDTH 22 0
BBX 22 35 0 -9
BITMAP
FFFFFC
FFFFFC
FFFFFC
007800
007800
007800
007800
007800
007800
007800
007800
007800
007800
007800
007800
007800
007800
007800
007800
007800
007800
007800
007800
007800
007800
007800
000000
000000
000000
007000
00F000
00E000
00E000
00C000
01C000
ENDCHAR
STARTCHAR 021B
ENCODING 539
SWIDTH 388 0
DWIDTH 14 0
BBX 13 35 1 -9
BITMAP
3C00
3C00
3C00
3C00
3C00
3C00
FFF8
FFF8
FFF8
3C00
3C00
3C00
3C00
3C00
3C00
3C00
3C00
3C00
3C00
3C00
3C00
3C00
3E00
1FF8
0FF8
07F8
0000
0000
0000
01C0
03C0
0380
0380
0300
0700
ENDCHAR
STARTCHAR 021C
ENCODING 540
SWIDTH 638 0
DWIDTH 23 0
BBX 17 34 3 -8
BITMAP
03E000
1FF800
3FFE00
7C3E00
700F00
400F00
000700
000700
000700
000700
000F00
001E00
001E00
007C00
01F800
07F800
1FFE00
1FBF00
180F00
000780
000780
000780
000780
000780
000F00
000F00
001E00
003C00
00F800
03F000
0FE000
7F8000
FE0000
F00000
ENDCHAR
STARTCHAR 021D
ENCODING 541
SWIDTH 527 0
DWIDTH 19 0
BBX 16 28 1 -7
BITMAP
07F0
3FF8
7C7C
601E
400E
000E
000E
000E
001C
003C
0078
01E0
0FF8
1FFC
180E
000E
0007
0007
000F
000E
001E
003C
00F8
03E0
1FC0
FE00
F800
8000
ENDCHAR
STARTCHAR 021E
ENCODING 542
SWIDTH 750 0
DWIDTH 27 0
BBX 20 34 3 0
BITMAP
038380
01C700
00EE00
007C00
007C00
000000
000000
000000
F000F0
F000F0
F000F0
F000F0
F000F0
F000F0
F000F0
F000F0
F000F0
F000F0
F000F0
FFFFF0
FFFFF0
FFFFF0
F000F0
F000F0
F000F0
F000F0
F000F0
F000F0
F000F0
F000F0
F000F0
F000F0
F000F0
F000F0
ENDCHAR
STARTCHAR 021F
ENCODING 543
SWIDTH 638 0
DWIDTH 23 0
BBX 20 34 -1 0
BITMAP
E07000
70E000
39C000
1F8000
0F0000
000000
000000
0F0000
0F0000
0F0000
0F0000
0F0000
0F0000
0F0000
0F1F00
0F3FC0
0F7FE0
0FE3E0
0F81E0
0F80F0
0F00F0
0F00F0
0F00F0
0F00F0
0F00F0
0F00F0
0F00F0
0F00F0
0F00F0
0F00F0
0F00F0
0F00F0
0F00F0
0F00F0
ENDCHAR
STARTCHAR 0220
ENCODING 544
SWIDTH 722 0
DWIDTH 26 0
BBX 19 33 4 -6
BITMAP
F0FC00
F3FF00
F7FF80
FF0FC0
FC03C0
F803C0
F801E0
F801E0
F001E0
F001E0
F001E0
F001E0
F001E0
F001E0
F001E0
F001E0
F001E0
F001E0
F001E0
F001E0
F001E0
F001E0
F001E0
F001E0
F001E0
F001E0
0001E0
0001E0
0001E0
0001E0
0001E0
0001E0
0001E0
ENDCHAR
STARTCHAR 0221
ENCODING 545
SWIDTH 833 0
DWIDTH 30 0
BBX 26 30 2 -2
BITMAP
0003C000
0003C000
0003C000
0003C000
0003C000
0003C000
0003C000
07E3C000
1FFBC000
3FFFC000
3C0FC000
7807C000
7007C000
F003C000
F003C000
E003C000
E003C000
E003C000
E003C700
E003DF80
F003FFC0
7003F9C0
7807F1C0
780FF1C0
3E1FE3C0
1FF9FF80
0FF1FF00
0003C000
00038000
00078000
ENDCHAR
STARTCHAR 0222
ENCODING 546
SWIDTH 722 0
DWIDTH 26 0
BBX 22 26 2 0
BITMAP
000F00
000FC0
0003E0
07C0F0
1FC078
3E0078
7C0078
780078
780078
3C00F0
3E03E0
0FFFC0
01FE00
1FFFC0
3E01F0
780078
F0003C
F0003C
F0003C
F0003C
F8007C
7E01F8
7FFFF8
3FFFF0
0FFFC0
03FF00
ENDCHAR
STARTCHAR 0223
ENCODING 547
SWIDTH 611 0
DWIDTH 22 0
BBX 18 23 2 0
BITMAP
380700
780780
780780
780780
780780
780780
3C0F00
3E1F00
1FFE00
07F800
1FFE00
3C1F00
780780
F003C0
F003C0
F003C0
F003C0
F003C0
F807C0
7C0F80
3FFF00
1FFE00
07F800
ENDCHAR
STARTCHAR 0224
ENCODING 548
SWIDTH 694 0
DWIDTH 25 0
BBX 21 33 2 -7
BITMAP
FFFFF0
FFFFF0
FFFFF0
0003E0
0003E0
0007C0
000F80
001F00
001F00
003E00
007C00
007C00
00F800
01F000
03E000
03E000
07C000
0F8000
1F0000
1F0000
3E0000
7C0000
7C0000
FFFFF8
FFFFF8
FFFFF8
000078
000078
000078
0000F8
001FF0
001FF0
001FC0
ENDCHAR
STARTCHAR 0225
ENCODING 549
SWIDTH 527 0
DWIDTH 19 0
BBX 16 27 2 -7
BITMAP
FFFF
FFFF
FFFF
001F
003E
007C
00F8
01F8
01F0
03E0
07C0
0FC0
0F80
1F00
3E00
7E00
FC00
FFFF
FFFF
FFFF
000F
000F
000F
001E
07FE
07FC
07F8
ENDCHAR
STARTCHAR 0226
ENCODING 550
SWIDTH 694 0
DWIDTH 25 0
BBX 24 34 0 0
BITMAP
003C00
003C00
003C00
003C00
000000
000000
000000
000000
003C00
007E00
007E00
007E00
00FF00
00FF00
01FF80
01E780
01E780
03E7C0
03C3C0
03C3C0
07C1E0
0781E0
0F81F0
0F00F0
0FFFF0
1FFFF8
1FFFF8
3E0078
3C003C
3C003C
7C003E
78001E
78001E
F0000F
ENDCHAR
STARTCHAR 0227
ENCODING 551
SWIDTH 611 0
DWIDTH 22 0
BBX 17 27 2 0
BITMAP
03C000
03C000
03C000
03C000
000000
000000
000000
07F000
3FFC00
7FFE00
703F00
400F00
000780
000780
000780
07FF80
3FFF80
7FFF80
7C0780
F00780
F00780
F00F80
F00F80
F83F80
7FF780
3FE780
0F8780
ENDCHAR
STARTCHAR 0228
ENCODING 552
SWIDTH 638 0
DWIDTH 23 0
BBX 17 33 3 -7
BITMAP
FFFF80
FFFF80
FFFF80
F00000
F00000
F00000
F00000
F00000
F00000
F00000
F00000
FFFF00
FFFF00
FFFF00
F00000
F00000
F00000
F00000
F00000
F00000
F00000
F00000
F00000
FFFF80
FFFF80
FFFF80
00C000
006000
007000
047000
07F000
07F000
07E000
ENDCHAR
STARTCHAR 0229
ENCODING 553
SWIDTH 611 0
DWIDTH 22 0
BBX 18 27 2 -7
BITMAP
03F800
0FFE00
1FFF00
3E0F00
7C0780
780780
F003C0
F003C0
FFFFC0
FFFFC0
FFFFC0
F00000
F00000
F80000
780000
7C0080
3F0380
1FFF80
0FFF00
03F800
00C000
006000
007000
047000
07F000
07F000
07E000
ENDCHAR
STARTCHAR 022A
ENCODING 554
SWIDTH 777 0
DWIDTH 28 0
BBX 24 37 2 0
BITMAP
01FFC0
01FFC0
01FFC0
000000
01E3C0
01E3C0
01E3C0
01E3C0
000000
000000
000000
00FF00
03FFC0
0FFFF0
1F81F8
3E0078
3C003C
7C003E
78001E
78001E
F0000F
F0000F
F0000F
F0000F
F0000F
F0000F
F0000F
F0000F
78001E
78001E
7C003E
3C003C
3E007C
1F81F8
0FFFF0
03FFC0
00FF00
ENDCHAR
STARTCHAR 022B
ENCODING 555
SWIDTH 611 0
DWIDTH 22 0
BBX 18 33 2 0
BITMAP
0FFE00
0FFE00
0FFE00
000000
000000
000000
1E1E00
1E1E00
1E1E00
1E1E00
000000
000000
000000
03F000
0FFC00
1FFE00
3E1F00
7C0F80
780780
F807C0
F003C0
F003C0
F003C0
F003C0
F003C0
F003C0
F807C0
780780
7C0F80
3E1F00
1FFE00
0FFC00
03F000
ENDCHAR
STARTCHAR 022C
ENCODING 556
SWIDTH 777 0
DWIDTH 28 0
BBX 24 37 2 0
BITMAP
01FFC0
01FFC0
01FFC0
000000
00E0C0
01F8C0
031F80
030700
000000
000000
000000
00FF00
03FFC0
0FFFF0
1F81F8
3E0078
3C003C
7C003E
78001E
78001E
F0000F
F0000F
F0000F
F0000F
F0000F
F0000F
F0000F
F0000F
78001E
78001E
7C003E
3C003C
3E007C
1F81F8
0FFFF0
03FFC0
00FF00
ENDCHAR
STARTCHAR 022D
ENCODING 557
SWIDTH 611 0
DWIDTH 22 0
BBX 18 31 2 0
BITMAP
0FFE00
0FFE00
0FFE00
000000
070600
0FC600
18FC00
183800
000000
000000
000000
03F000
0FFC00
1FFE00
3E1F00
7C0F80
780780
F807C0
F003C0
F003C0
F003C0
F003C0
F003C0
F003C0
F807C0
780780
7C0F80
3E1F00
1FFE00
0FFC00
03F000
ENDCHAR
STARTCHAR 022E
ENCODING 558
SWIDTH 777 0
DWIDTH 28 0
BBX 24 34 2 0
BITMAP
003C00
003C00
003C00
003C00
000000
000000
000000
000000
00FF00
03FFC0
0FFFF0
1F81F8
3E0078
3C003C
7C003E
78001E
78001E
F0000F
F0000F
F0000F
F0000F
F0000F
F0000F
F0000F
F0000F
78001E
78001E
7C003E
3C003C
3E007C
1F81F8
0FFFF0
03FFC0
00FF00
ENDCHAR
STARTCHAR 022F
ENCODING 559
SWIDTH 611 0
DWIDTH 22 0
BBX 18 27 2 0
BITMAP
01E000
01E000
01E000
01E000
000000
000000
000000
03F000
0FFC00
1FFE00
3E1F00
7C0F80
780780
F807C0
F003C0
F003C0
F003C0
F003C0
F003C0
F003C0
F807C0
780780
7C0F80
3E1F00
1FFE00
0FFC00
03F000
ENDCHAR
STARTCHAR 0230
ENCODING 560
SWIDTH 777 0
DWIDTH 28 0
BBX 24 37 2 0
BITMAP
01FFC0
01FFC0
01FFC0
000000
003C00
003C00
003C00
003C00
000000
000000
000000
00FF00
03FFC0
0FFFF0
1F81F8
3E0078
3C003C
7C003E
78001E
78001E
F0000F
F0000F
F0000F
F0000F
F0000F
F0000F
F0000F
F0000F
78001E
78001E
7C003E
3C003C
3E007C
1F81F8
0FFFF0
03FFC0
00FF00
ENDCHAR
STARTCHAR 0231
ENCODING 561
SWIDTH 611 0
DWIDTH 22 0
BBX 18 33 2 0
BITMAP
0FFE00
0FFE00
0FFE00
000000
000000
000000
01E000
01E000
01E000
01E000
000000
000000
000000
03F000
0FFC00
1FFE00
3E1F00
7C0F80
780780
F807C0
F003C0
F003C0
F003C0
F003C0
F003C0
F003C0
F807C0
780780
7C0F80
3E1F00
1FFE00
0FFC00
03F000
ENDCHAR
STARTCHAR 0232
ENCODING 562
SWIDTH 611 0
DWIDTH 22 0
BBX 22 33 0 0
BITMAP
03FF80
03FF80
03FF80
000000
000000
000000
000000
F8007C
7C00F8
3C00F0
3E01F0
1F03E0
0F03C0
0F87C0
07CF80
03CF00
03FF00
01FE00
00FC00
00FC00
007800
007800
007800
007800
007800
007800
007800
007800
007800
007800
007800
007800
007800
ENDCHAR
STARTCHAR 0233
ENCODING 563
SWIDTH 583 0
DWIDTH 21 0
BBX 19 34 1 -7
BITMAP
07FF00
07FF00
07FF00
000000
000000
000000
000000
F803E0
7803C0
7803C0
7C07C0
3C0780
3E0F80
1E0F00
1E0F00
0F1F00
0F1E00
0FBE00
07BC00
07BC00
03FC00
03F800
03F800
01F000
01F000
01F000
01E000
03E000
03C000
07C000
07C000
3F8000
3F0000
3E0000
ENDCHAR
STARTCHAR 0234
ENCODING 564
SWIDTH 472 0
DWIDTH 17 0
BBX 13 30 2 -2
BITMAP
7800
7800
7800
7800
7800
7800
7800
7800
7800
7800
7800
7800
7800
7800
7800
7800
7800
7800
78E0
7BF0
7FF8
7F38
7E38
7E38
7C78
3FF0
3FE0
7800
7000
F000
ENDCHAR
STARTCHAR 0235
ENCODING 565
SWIDTH 833 0
DWIDTH 30 0
BBX 25 23 3 -2
BITMAP
F1F80000
F7FE0000
FFFE0000
FC0F0000
F8070000
F0078000
F0078000
F0078000
F0038000
F0038000
F0038000
F0038E00
F003BF80
F003FF80
F003F380
F003F380
F003E380
F003C780
F003FF00
F003FE00
00038000
00078000
00070000
ENDCHAR
STARTCHAR 0236
ENCODING 566
SWIDTH 472 0
DWIDTH 17 0
BBX 14 28 1 -2
BITMAP
3C00
3C00
3C00
3C00
3C00
FFF0
FFF0
FFF0
3C00
3C00
3C00
3C00
3C00
3C00
3C00
3C00
3C70
3DF8
3FFC
3F9C
3F1C
3F1C
1E3C
1FF8
1FF0
3C00
3800
3800
ENDCHAR
STARTCHAR 0237
ENCODING 567
SWIDTH 277 0
DWIDTH 10 0
BBX 8 27 -1 -7
BITMAP
0F
0F
0F
0F
0F
0F
0F
0F
0F
0F
0F
0F
0F
0F
0F
0F
0F
0F
0F
0F
0F
0F
0F
1E
FE
FC
F0
ENDCHAR
STARTCHAR 0238
ENCODING 568
SWIDTH 1000 0
DWIDTH 36 0
BBX 32 27 2 0
BITMAP
0003C000
0003C000
0003C000
0003C000
0003C000
0003C000
0003C000
07E3C7E0
1FF3CFF8
3FFBDFFC
3E1FF87C
7C0FF03E
7807E01E
F807E01F
F003C00F
F003C00F
F003C00F
F003C00F
F003C00F
F003C00F
F007C01F
7807E01E
7C0FF03E
3E1FF87C
3FFFFFFC
1FFBDFF8
07E3C7E0
ENDCHAR
STARTCHAR 0239
ENCODING 569
SWIDTH 1000 0
DWIDTH 36 0
BBX 32 27 2 -7
BITMAP
07E3C7E0
1FFBDFF8
3FFFFFFC
3E1FF87C
7C0FF03E
7807E01E
F807E01F
F003C00F
F003C00F
F003C00F
F003C00F
F003C00F
F003C00F
F007C01F
7807E01E
7C0FF03E
3E1FF87C
3FFBDFFC
1FF3CFF8
07E3C7E0
0003C000
0003C000
0003C000
0003C000
0003C000
0003C000
0003C000
ENDCHAR
STARTCHAR 023A
ENCODING 570
SWIDTH 694 0
DWIDTH 25 0
BBX 24 28 0 -1
BITMAP
000003
003E07
003E0F
007E0E
007F1C
00F738
00F7F0
00E3E0
01E3E0
01C3C0
01C3C0
03C7C0
038FE0
079CE0
07B8F0
0778F0
0F7070
0FFFF8
1FFFF8
1FFFF8
1F003C
3E001C
3E001E
3C001E
78000E
78000F
F0000F
400000
ENDCHAR
STARTCHAR 023B
ENCODING 571
SWIDTH 694 0
DWIDTH 25 0
BBX 25 28 0 -1
BITMAP
000F8300
007FFB80
01FFFF00
03F03E00
07C01E00
0F803A00
0F007000
1E00F000
1E00E000
3C01C000
3C038000
3C070000
3C0E0000
3C1E0000
3C3C0000
3C380000
3C700000
3CE00000
1DC00000
1F800000
1F800000
0F000000
0F800200
1FC00E00
3BFCFE00
71FFFC00
E07FF000
60000000
ENDCHAR
STARTCHAR 023C
ENCODING 572
SWIDTH 555 0
DWIDTH 20 0
BBX 19 22 0 -1
BITMAP
000060
00FFE0
03FFC0
07FFC0
0F03C0
1E0700
1C0E00
3C0C00
3C1C00
3C3800
387000
38E000
39C000
3D8000
3F8000
1F0000
1E0000
1F0040
3FC3C0
37FFC0
71FF80
E01000
ENDCHAR
STARTCHAR 023D
ENCODING 573
SWIDTH 555 0
DWIDTH 20 0
BBX 19 26 0 0
BITMAP
1E0000
1E0000
1E0000
1E0000
1E0000
1E0000
1E0000
1E0000
1E0000
1E0000
1E0000
FFC000
FFC000
FFC000
1E0000
1E0000
1E0000
1E0000
1E0000
1E0000
1E0000
1E0000
1E0000
1FFFE0
1FFFE0
1FFFE0
ENDCHAR
STARTCHAR 023E
ENCODING 574
SWIDTH 611 0
DWIDTH 22 0
BBX 24 28 -1 -1
BITMAP
000003
7FFFFF
7FFFFE
7FFFFE
003C3C
003C38
003C70
003CE0
003DC0
003F80
003F00
003F00
003E00
003C00
003C00
007C00
00FC00
01FC00
01FC00
03BC00
073C00
0E3C00
1C3C00
383C00
783C00
703C00
E03C00
400000
ENDCHAR
STARTCHAR 023F
ENCODING 575
SWIDTH 527 0
DWIDTH 19 0
BBX 16 29 2 -8
BITMAP
0FF8
3FFC
7FFC
F004
E000
E000
E000
F000
7F00
3FE0
1FF8
01FC
003E
001E
000E
000E
801E
F87C
FFF8
7FF0
0F80
03C0
01E0
00F0
0078
003E
001F
000F
0003
ENDCHAR
STARTCHAR 0240
ENCODING 576
SWIDTH 527 0
DWIDTH 19 0
BBX 17 29 2 -9
BITMAP
FFFE00
FFFE00
FFFE00
001E00
003C00
007800
007800
00F000
01E000
03C000
078000
0F0000
1E0000
1E0000
3C0000
780000
F00000
F00000
FC0000
FE0000
1F0000
0F8000
07C000
03E000
01F000
00F800
007F80
001F80
000780
ENDCHAR
STARTCHAR 0241
ENCODING 577
SWIDTH 611 0
DWIDTH 22 0
BBX 19 26 1 0
BITMAP
3FFC00
FFFF00
FFFF80
C00FC0
0003C0
0003E0
0001E0
0001E0
0001E0
0001E0
0001E0
0003C0
0007C0
03FF80
03FF00
03FC00
03C000
03C000
03C000
03C000
03C000
03C000
03C000
03C000
03C000
03C000
ENDCHAR
STARTCHAR 0242
ENCODING 578
SWIDTH 472 0
DWIDTH 17 0
BBX 15 20 1 0
BITMAP
3FC0
FFF0
FFF8
C0FC
003C
001E
001E
001E
001E
001E
003E
003E
00FC
0FFC
0FF8
0FE0
0F00
0F00
0F00
0F00
ENDCHAR
STARTCHAR 0243
ENCODING 579
SWIDTH 694 0
DWIDTH 25 0
BBX 22 26 0 0
BITMAP
1FFF00
1FFFC0
1FFFF0
1E01F0
1E00F8
1E0078
1E0078
1E0078
1E0078
1E00F0
1E01F0
1FFFE0
1FFF80
1FFFE0
1E00F0
1E0078
1E003C
FFF83C
FFF83C
FFF83C
1E003C
1E007C
1E00F8
1FFFF0
1FFFE0
1FFF80
ENDCHAR
STARTCHAR 0244
ENCODING 580
SWIDTH 722 0
DWIDTH 26 0
BBX 26 26 1 0
BITMAP
1E001E00
1E001E00
1E001E00
1E001E00
1E001E00
1E001E00
1E001E00
1E001E00
1E001E00
1E001E00
FFFFFFC0
FFFFFFC0
FFFFFFC0
1E001E00
1E001E00
1E001E00
1E001E00
1E001E00
1E001E00
1F003E00
0F003C00
0F807C00
07C0F800
03FFF000
01FFE000
007F8000
ENDCHAR
STARTCHAR 0245
ENCODING 581
SWIDTH 694 0
DWIDTH 25 0
BBX 24 26 0 0
BITMAP
003C00
007E00
007E00
007E00
00FF00
00FF00
01FF80
01E780
01E780
03E7C0
03C3C0
03C3C0
07C1E0
0781E0
0F81F0
0F00F0
0F00F0
1F00F8
1E0078
3E0078
3C003C
3C003C
7C003E
78001E
78001E
F8000F
ENDCHAR
STARTCHAR 0246
ENCODING 582
SWIDTH 638 0
DWIDTH 23 0
BBX 16 33 4 -4
BITMAP
0007
000E
000E
000E
FFFF
FFFF
FFFF
E038
E038
E038
E070
E070
E070
E0E0
E0E0
FFFF
FFFF
E1C0
E1C0
E380
E380
E380
E700
E700
EF00
EE00
EE00
FFFF
FFFF
FFFF
3800
3800
3800
ENDCHAR
STARTCHAR 0247
ENCODING 583
SWIDTH 611 0
DWIDTH 22 0
BBX 18 26 2 -3
BITMAP
000F00
000E00
000E00
03FC00
0FFE00
1FFF00
3C3F80
783B80
7073C0
F071C0
F0E1C0
FFFFC0
FFFFC0
FFFFC0
E1C000
F38000
F38000
738000
7F0000
3F0080
3F8F80
0FFF80
1FFF00
1C0000
1C0000
380000
ENDCHAR
STARTCHAR 0248
ENCODING 584
SWIDTH 305 0
DWIDTH 11 0
BBX 12 33 -2 -7
BITMAP
0780
0780
0780
0780
0780
0780
0780
0780
0780
0780
0780
0780
3FF0
3FF0
3FF0
0780
0780
0780
0780
0780
0780
0780
0780
0780
0780
0780
0780
0780
0F00
1F00
FE00
FE00
F800
ENDCHAR
STARTCHAR 0249
ENCODING 585
SWIDTH 277 0
DWIDTH 10 0
BBX 11 34 -1 -7
BITMAP
0F00
0F00
0F00
0F00
0000
0000
0000
0F00
0F00
0F00
0F00
0F00
0F00
0F00
0F00
0F00
7FE0
7FE0
7FE0
0F00
0F00
0F00
0F00
0F00
0F00
0F00
0F00
0F00
0F00
0F00
1E00
FE00
FC00
F000
ENDCHAR
STARTCHAR 024A
ENCODING 586
SWIDTH 777 0
DWIDTH 28 0
BBX 29 33 2 -7
BITMAP
01FC1E00
07FF1E00
0FFF9E00
1F83DE00
3E00FE00
3C007E00
78003E00
78003E00
78003E00
F0001E00
F0001E00
F0001E00
F0001E00
F0001E00
F0001E00
F0001E00
F0001E00
78003E00
78003E00
78003E00
3C007E00
3E00FE00
1F83DE00
0FFF9E00
07FF1E00
01FC1E00
00001E00
00001F00
00000F80
00000FF8
000007F8
000003F8
000000F8
ENDCHAR
STARTCHAR 024B
ENCODING 587
SWIDTH 638 0
DWIDTH 23 0
BBX 22 27 2 -7
BITMAP
07E3C0
1FFBC0
3FFFC0
3E1FC0
7C0FC0
7807C0
F807C0
F003C0
F003C0
F003C0
F003C0
F003C0
F003C0
F007C0
7807C0
7C0FC0
3E1FC0
3FFFC0
1FFBC0
07E3C0
0003C0
0003C0
0003C0
0003E0
0001FC
0000FC
00007C
ENDCHAR
STARTCHAR 024C
ENCODING 588
SWIDTH 694 0
DWIDTH 25 0
BBX 24 26 0 0
BITMAP
1FFE00
1FFF80
1FFFC0
1E03E0
1E01F0
1E00F0
1E00F0
1E00F0
1E00F0
1E00F0
1E01E0
1E03E0
FFFFC0
FFFF00
FFFF80
1E0FC0
1E03C0
1E03E0
1E01F0
1E00F0
1E00F8
1E0078
1E007C
1E003E
1E001E
1E001F
ENDCHAR
STARTCHAR 024D
ENCODING 589
SWIDTH 416 0
DWIDTH 15 0
BBX 15 20 0 0
BITMAP
1E1E
1E7E
1EFE
1FC0
1F80
1F00
1E00
1E00
1E00
FFC0
FFC0
FFC0
1E00
1E00
1E00
1E00
1E00
1E00
1E00
1E00
ENDCHAR
STARTCHAR 024E
ENCODING 590
SWIDTH 611 0
DWIDTH 22 0
BBX 22 26 0 1
BITMAP
F0003C
780078
3C00F0
3C00F0
FFFFFC
FFFFFC
FFFFFC
078780
03CF00
01CF00
01FE00
00FC00
007800
007800
007800
007800
007800
007800
007800
007800
007800
007800
007800
007800
007800
007800
ENDCHAR
STARTCHAR 024F
ENCODING 591
SWIDTH 583 0
DWIDTH 21 0
BBX 21 27 0 -8
BITMAP
780070
3800F0
3800E0
3C00E0
1C01E0
1E01C0
0E03C0
0E0380
FFFFF8
FFFFF8
FFFFF8
038F00
038E00
01CE00
01DE00
01FC00
00FC00
00F800
007800
007800
007000
00F000
00E000
01E000
03C000
1FC000
1F8000
ENDCHAR
STARTCHAR 0250
ENCODING 592
SWIDTH 611 0
DWIDTH 22 0
BBX 17 20 3 0
BITMAP
F1F800
F7FE00
FFFF00
FE0F80
F80780
F80780
F00780
F00780
F01F00
FFFF00
FFFE00
FFF000
F00000
F00000
F00000
780000
7E0300
3FFF00
1FFF00
07FC00
ENDCHAR
STARTCHAR 0251
ENCODING 593
SWIDTH 638 0
DWIDTH 23 0
BBX 18 20 2 0
BITMAP
07E3C0
1FFBC0
3FFFC0
3E1FC0
7C0FC0
7807C0
F807C0
F003C0
F003C0
F003C0
F003C0
F003C0
F003C0
F007C0
7807C0
7C0FC0
3E1FC0
3FFFC0
1FFBC0
07E3C0
ENDCHAR
STARTCHAR 0252
ENCODING 594
SWIDTH 638 0
DWIDTH 23 0
BBX 18 20 3 0
BITMAP
F1F800
F7FE00
FFFF00
FE1F00
FC0F80
F80780
F807C0
F003C0
F003C0
F003C0
F003C0
F003C0
F003C0
F007C0
F80780
FC0F80
FE1F00
FFFF00
F7FE00
F1F800
ENDCHAR
STARTCHAR 0253
ENCODING 595
SWIDTH 638 0
DWIDTH 23 0
BBX 18 27 3 0
BITMAP
0FE000
3FE000
7FE000
780000
F00000
F00000
F00000
F1F800
F7FE00
FFFF00
FE1F00
FC0F80
F80780
F807C0
F003C0
F003C0
F003C0
F003C0
F003C0
F003C0
F007C0
F80780
FC0F80
FE1F00
FFFF00
F7FE00
F1F800
ENDCHAR
STARTCHAR 0254
ENCODING 596
SWIDTH 555 0
DWIDTH 20 0
BBX 16 20 2 0
BITMAP
3F80
FFF0
FFF8
C0FC
003E
001E
001F
000F
000F
000F
000F
000F
000F
001F
001E
003E
C0FC
FFF8
FFF0
3FC0
ENDCHAR
STARTCHAR 0255
ENCODING 597
SWIDTH 555 0
DWIDTH 20 0
BBX 16 22 2 -2
BITMAP
01F8
0FFE
1FFF
3F07
7C01
7800
F800
F000
F000
F000
F000
F000
F0FC
F9FE
7BFF
7F8F
3F0F
1FFF
0FFE
0FFC
0E00
0E00
ENDCHAR
STARTCHAR 0256
ENCODING 598
SWIDTH 638 0
DWIDTH 23 0
BBX 22 34 2 -7
BITMAP
0003C0
0003C0
0003C0
0003C0
0003C0
0003C0
0003C0
07E3C0
1FFBC0
3FFFC0
3E1FC0
7C0FC0
7807C0
F807C0
F003C0
F003C0
F003C0
F003C0
F003C0
F003C0
F007C0
7807C0
7C0FC0
3E1FC0
3FFFC0
1FFBC0
07E3C0
0003C0
0003C0
0003C0
0003E0
0001FC
0000FC
00007C
ENDCHAR
STARTCHAR 0257
ENCODING 599
SWIDTH 694 0
DWIDTH 25 0
BBX 24 27 2 0
BITMAP
00003F
0000FF
0001FF
0003E0
0003C0
0003C0
0003C0
07E3C0
1FFBC0
3FFFC0
3E1FC0
7C0FC0
7807C0
F807C0
F003C0
F003C0
F003C0
F003C0
F003C0
F003C0
F007C0
7807C0
7C0FC0
3E1FC0
3FFFC0
1FFBC0
07E3C0
ENDCHAR
STARTCHAR 0258
ENCODING 600
SWIDTH 611 0
DWIDTH 22 0
BBX 18 20 2 0
BITMAP
07F000
1FFC00
3FFE00
7C1F00
780F80
780780
F00380
F003C0
FFFFC0
FFFFC0
FFFFC0
0003C0
0003C0
0007C0
000780
400F80
703F00
7FFE00
3FFC00
07F000
ENDCHAR
STARTCHAR 0259
ENCODING 601
SWIDTH 611 0
DWIDTH 22 0
BBX 18 20 2 0
BITMAP
07F000
3FFC00
7FFE00
701F00
400F80
000780
0003C0
0003C0
FFFFC0
FFFFC0
FFFFC0
F003C0
F003C0
F007C0
780780
780F80
3E1F00
3FFE00
0FFC00
07F000
ENDCHAR
STARTCHAR 025A
ENCODING 602
SWIDTH 833 0
DWIDTH 30 0
BBX 28 20 2 0
BITMAP
0FE00000
3FFC0000
7FFE1F00
701F7F00
400FFF00
0007FF00
000FFF00
003FCF00
00FFCF80
03FFC7F0
07FBC3F0
1FE3C0F0
7F83C000
FF07C000
FC078000
780F8000
7C1F0000
3FFE0000
1FFC0000
07F00000
ENDCHAR
STARTCHAR 025B
ENCODING 603
SWIDTH 527 0
DWIDTH 19 0
BBX 15 20 2 0
BITMAP
07F0
1FFC
3FFC
7E0C
7800
7800
7800
3C00
1FE0
0FE0
3FE0
7C00
F000
F000
F000
F800
7C02
7FFE
3FFE
07F8
ENDCHAR
STARTCHAR 025C
ENCODING 604
SWIDTH 527 0
DWIDTH 19 0
BBX 15 20 2 0
BITMAP
1FC0
7FF0
7FF8
60FC
003C
003C
003C
0078
0FF0
0FE0
0FF8
007C
001E
001E
001E
003E
C07C
FFFC
FFF8
3FC0
ENDCHAR
STARTCHAR 025D
ENCODING 605
SWIDTH 777 0
DWIDTH 28 0
BBX 26 20 2 0
BITMAP
1FC00000
7FF00000
7FF87C00
60FDFC00
003FFC00
003FBC00
003F3C00
007C3C00
0FF81E00
0FE01FC0
0FF80FC0
007C03C0
001E0000
001E0000
001E0000
003E0000
807C0000
FFFC0000
FFF80000
3FC00000
ENDCHAR
STARTCHAR 025E
ENCODING 606
SWIDTH 638 0
DWIDTH 23 0
BBX 19 20 2 0
BITMAP
01FC00
0FFF00
1FFF80
3E07C0
7C03C0
7803C0
F803C0
F00780
F0FF00
F0FE00
F0FF80
F007C0
F003E0
F801E0
7801E0
7C03E0
3E07C0
1FFFC0
0FFF80
03FC00
ENDCHAR
STARTCHAR 025F
ENCODING 607
SWIDTH 277 0
DWIDTH 10 0
BBX 11 27 -1 -7
BITMAP
0F00
0F00
0F00
0F00
0F00
0F00
0F00
0F00
0F00
7FE0
7FE0
7FE0
0F00
0F00
0F00
0F00
0F00
0F00
0F00
0F00
0F00
0F00
0F00
1E00
FE00
FC00
F000
ENDCHAR
STARTCHAR 0260
ENCODING 608
SWIDTH 694 0
DWIDTH 25 0
BBX 24 34 2 -7
BITMAP
00007F
0000FF
0001FF
0003E0
0003C0
0003C0
0003C0
07E3C0
1FFBC0
3FFFC0
3E1FC0
7C0FC0
7807C0
F007C0
F003C0
F003C0
F003C0
F003C0
F003C0
F003C0
F007C0
7807C0
7C0FC0
3E1FC0
3FFFC0
1FFBC0
07E3C0
0003C0
000780
200F80
381F80
3FFF00
1FFE00
07F000
ENDCHAR
STARTCHAR 0261
ENCODING 609
SWIDTH 638 0
DWIDTH 23 0
BBX 18 27 2 -7
BITMAP
07FFC0
1FFFC0
3FFFC0
3E03C0
7803C0
7803C0
F003C0
F003C0
F003C0
F003C0
F003C0
F003C0
F003C0
F807C0
7807C0
7C0FC0
3E1FC0
3FFFC0
1FFBC0
07E3C0
0003C0
000780
200F80
381F80
3FFF00
1FFE00
07F000
ENDCHAR
STARTCHAR 0262
ENCODING 610
SWIDTH 638 0
DWIDTH 23 0
BBX 17 20 2 0
BITMAP
03F800
0FFE00
1FFF00
3E0700
7C0100
780000
F80000
F00000
F00000
F03F80
F03F80
F03F80
F00780
F00780
780780
7C0780
3E0780
1FFF80
0FFF80
03FC00
ENDCHAR
STARTCHAR 0263
ENCODING 611
SWIDTH 638 0
DWIDTH 23 0
BBX 19 27 2 -7
BITMAP
F803E0
7C07C0
7C07C0
3E0F80
3E0F80
1F1F00
1F1F00
0FBE00
0FFE00
07FC00
03F800
03F800
01F000
01F000
03F800
03F800
03B800
07B800
07BC00
071C00
0F1E00
0F1E00
0F1E00
0F1E00
0FFE00
07FC00
03F800
ENDCHAR
STARTCHAR 0264
ENCODING 612
SWIDTH 638 0
DWIDTH 23 0
BBX 19 20 2 0
BITMAP
FC07E0
7C07C0
3E0F80
1F1F00
0FBE00
0FFE00
07FC00
03F800
01F000
03F000
03F800
03F800
07BC00
07BC00
0F1E00
0F1E00
0F1E00
0FFE00
07FC00
03F800
ENDCHAR
STARTCHAR 0265
ENCODING 613
SWIDTH 638 0
DWIDTH 23 0
BBX 16 27 3 -7
BITMAP
F00F
F00F
F00F
F00F
F00F
F00F
F00F
F00F
F00F
F00F
F00F
F00F
F00F
F00F
F01F
F81F
7C7F
7FEF
3FCF
0F8F
000F
000F
000F
000F
000F
000F
000F
ENDCHAR
STARTCHAR 0266
ENCODING 614
SWIDTH 638 0
DWIDTH 23 0
BBX 16 27 3 0
BITMAP
1FE0
3FE0
7FE0
7800
F000
F000
F000
F1F0
F3FC
F7FE
FE3E
F81E
F80F
F00F
F00F
F00F
F00F
F00F
F00F
F00F
F00F
F00F
F00F
F00F
F00F
F00F
F00F
ENDCHAR
STARTCHAR 0267
ENCODING 615
SWIDTH 638 0
DWIDTH 23 0
BBX 16 34 3 -8
BITMAP
1FE0
3FE0
7FE0
7800
F000
F000
F000
F1F0
F3FC
F7FE
FE3E
F81E
F80F
F00F
F00F
F00F
F00F
F00F
F00F
F00F
F00F
F00F
F00F
F00F
F00F
F00F
F00F
000F
000F
000F
001F
07FE
07FE
07FC
ENDCHAR
STARTCHAR 0268
ENCODING 616
SWIDTH 277 0
DWIDTH 10 0
BBX 10 27 0 0
BITMAP
1E00
1E00
1E00
1E00
0000
0000
0000
1E00
1E00
1E00
1E00
1E00
1E00
1E00
1E00
1E00
FFC0
FFC0
FFC0
1E00
1E00
1E00
1E00
1E00
1E00
1E00
1E00
ENDCHAR
STARTCHAR 0269
ENCODING 617
SWIDTH 333 0
DWIDTH 12 0
BBX 9 20 3 0
BITMAP
F000
F000
F000
F000
F000
F000
F000
F000
F000
F000
F000
F000
F000
F000
F000
F000
7800
7F80
3F80
0F80
ENDCHAR
STARTCHAR 026A
ENCODING 618
SWIDTH 361 0
DWIDTH 13 0
BBX 12 20 1 0
BITMAP
FFF0
FFF0
FFF0
0F00
0F00
0F00
0F00
0F00
0F00
0F00
0F00
0F00
0F00
0F00
0F00
0F00
0F00
FFF0
FFF0
FFF0
ENDCHAR
STARTCHAR 026B
ENCODING 619
SWIDTH 388 0
DWIDTH 14 0
BBX 12 27 1 0
BITMAP
0F00
0F00
0F00
0F00
0F00
0F00
0F00
0F00
0F00
0F00
0F00
3F30
7F30
CF70
CFE0
CFC0
0F00
0F00
0F00
0F00
0F00
0F00
0F00
0F00
0F00
0F00
0F00
ENDCHAR
STARTCHAR 026C
ENCODING 620
SWIDTH 500 0
DWIDTH 18 0
BBX 14 27 1 0
BITMAP
03C0
03C0
03C0
03C0
03C0
03C0
03C0
03C0
3FC0
7FC0
FFC0
E7C0
E3C0
FFFC
7FFC
3FFC
03C0
03C0
03C0
03C0
03C0
03C0
03C0
03C0
03C0
03C0
03C0
ENDCHAR
STARTCHAR 026D
ENCODING 621
SWIDTH 277 0
DWIDTH 10 0
BBX 8 34 3 -7
BITMAP
F0
F0
F0
F0
F0
F0
F0
F0
F0
F0
F0
F0
F0
F0
F0
F0
F0
F0
F0
F0
F0
F0
F0
F0
F0
F0
F0
F0
F0
F0
78
7F
3F
1F
ENDCHAR
STARTCHAR 026E
ENCODING 622
SWIDTH 722 0
DWIDTH 26 0
BBX 21 34 3 -7
BITMAP
F00000
F00000
F00000
F00000
F00000
F00000
F00000
FFFFE0
FFFFE0
FFFFE0
F007C0
F00FC0
F00F80
F01F00
F03E00
F07C00
F0F800
F0F000
F0FE00
F0FF80
F0FFC0
F003E0
F000F0
F000F8
F00078
F00078
F00078
000078
0000F8
0001F0
1803F0
1FFFE0
1FFF80
07FE00
ENDCHAR
STARTCHAR 026F
ENCODING 623
SWIDTH 972 0
DWIDTH 35 0
BBX 28 20 3 0
BITMAP
F00F00F0
F00F00F0
F00F00F0
F00F00F0
F00F00F0
F00F00F0
F00F00F0
F00F00F0
F00F00F0
F00F00F0
F00F00F0
F00F00F0
F00F00F0
F00F00F0
F01F01F0
781F81F0
7C77C7F0
7FE3FEF0
3FC3FCF0
0F80F800
ENDCHAR
STARTCHAR 0270
ENCODING 624
SWIDTH 972 0
DWIDTH 35 0
BBX 28 27 3 -7
BITMAP
F00F00F0
F00F00F0
F00F00F0
F00F00F0
F00F00F0
F00F00F0
F00F00F0
F00F00F0
F00F00F0
F00F00F0
F00F00F0
F00F00F0
F00F00F0
F00F00F0
F01F01F0
781F81F0
7C77C7F0
7FE3FEF0
3FC3FCF0
0F80F8F0
000000F0
000000F0
000000F0
000000F0
000000F0
000000F0
000000F0
ENDCHAR
STARTCHAR 0271
ENCODING 625
SWIDTH 972 0
DWIDTH 35 0
BBX 28 27 3 -7
BITMAP
F1F00F00
F3FC3FC0
F7FE7FE0
FE3EE3E0
F81F81E0
F80F80F0
F00F00F0
F00F00F0
F00F00F0
F00F00F0
F00F00F0
F00F00F0
F00F00F0
F00F00F0
F00F00F0
F00F00F0
F00F00F0
F00F00F0
F00F00F0
F00F00F0
000000F0
000000F0
000000F0
000001F0
00007FE0
00007FC0
00007F80
ENDCHAR
STARTCHAR 0272
ENCODING 626
SWIDTH 638 0
DWIDTH 23 0
BBX 20 27 -1 -7
BITMAP
0F1F00
0F3FC0
0F7FE0
0FE3E0
0F81E0
0F80F0
0F00F0
0F00F0
0F00F0
0F00F0
0F00F0
0F00F0
0F00F0
0F00F0
0F00F0
0F00F0
0F00F0
0F00F0
0F00F0
0F00F0
0F0000
0F0000
0F0000
1E0000
FE0000
FC0000
F00000
ENDCHAR
STARTCHAR 0273
ENCODING 627
SWIDTH 638 0
DWIDTH 23 0
BBX 20 27 3 -7
BITMAP
F1F000
F3FC00
F7FE00
FE3E00
F81E00
F80F00
F00F00
F00F00
F00F00
F00F00
F00F00
F00F00
F00F00
F00F00
F00F00
F00F00
F00F00
F00F00
F00F00
F00F00
000F00
000F00
000F00
000F80
0007F0
0003F0
0001F0
ENDCHAR
STARTCHAR 0274
ENCODING 628
SWIDTH 638 0
DWIDTH 23 0
BBX 16 20 3 0
BITMAP
F80F
FC0F
FC0F
FE0F
FF0F
FF0F
FF8F
F78F
F7CF
F3CF
F3EF
F1EF
F1FF
F0FF
F0FF
F07F
F07F
F03F
F03F
F01F
ENDCHAR
STARTCHAR 0275
ENCODING 629
SWIDTH 611 0
DWIDTH 22 0
BBX 18 20 2 0
BITMAP
03F000
0FFC00
1FFE00
3E1F00
780780
780780
F003C0
F003C0
FFFFC0
FFFFC0
FFFFC0
F003C0
F003C0
F003C0
780780
7C0F80
3E1F00
1FFE00
0FFC00
03F000
ENDCHAR
STARTCHAR 0276
ENCODING 630
SWIDTH 833 0
DWIDTH 30 0
BBX 25 20 2 0
BITMAP
01FFFF80
0FFFFF80
1FFFFF80
3F0F0000
7C0F0000
780F0000
F80F0000
F00F0000
F00FFF00
F00FFF00
F00FFF00
F00F0000
F00F0000
F80F0000
780F0000
7C0F0000
3F0F0000
1FFFFF80
0FFFFF80
01FFFF80
ENDCHAR
STARTCHAR 0277
ENCODING 631
SWIDTH 666 0
DWIDTH 24 0
BBX 20 20 2 0
BITMAP
01F800
0FFF00
1FFF80
3F0FC0
3C03C0
7803E0
7801E0
F801E0
F000F0
F0F0F0
F0F0F0
F0F0F0
F0F0F0
F0F0F0
F0F0F0
F9F9F0
79F9E0
7F9FE0
3F8FC0
0E0780
ENDCHAR
STARTCHAR 0278
ENCODING 632
SWIDTH 666 0
DWIDTH 24 0
BBX 20 34 2 -7
BITMAP
00F000
00F000
00F000
00F000
00F000
00F000
00F000
07FE00
1FFF00
3FFFC0
3CF3C0
78F1E0
78F1E0
F0F0F0
F0F0F0
F0F0F0
F0F0F0
F0F0F0
F0F0F0
F0F0F0
F0F0F0
78F1E0
78F1E0
3CF3C0
3FFFC0
1FFF00
07FE00
00F000
00F000
00F000
00F000
00F000
00F000
00F000
ENDCHAR
STARTCHAR 0279
ENCODING 633
SWIDTH 416 0
DWIDTH 15 0
BBX 12 20 0 0
BITMAP
00F0
00F0
00F0
00F0
00F0
00F0
00F0
00F0
00F0
00F0
00F0
00F0
00F0
01F0
01F0
03F0
07F0
FEF0
FCF0
F0F0
ENDCHAR
STARTCHAR 027A
ENCODING 634
SWIDTH 416 0
DWIDTH 15 0
BBX 12 27 0 0
BITMAP
00F0
00F0
00F0
00F0
00F0
00F0
00F0
00F0
00F0
00F0
00F0
00F0
00F0
00F0
00F0
00F0
00F0
00F0
00F0
00F0
01F0
01F0
03F0
07F0
FEF0
FCF0
F0F0
ENDCHAR
STARTCHAR 027B
ENCODING 635
SWIDTH 416 0
DWIDTH 15 0
BBX 16 27 0 -7
BITMAP
00F0
00F0
00F0
00F0
00F0
00F0
00F0
00F0
00F0
00F0
00F0
00F0
00F0
01F0
01F0
03F0
07F0
FEF0
FCF0
F0F0
00F0
00F0
00F0
0078
007F
003F
001F
ENDCHAR
STARTCHAR 027C
ENCODING 636
SWIDTH 416 0
DWIDTH 15 0
BBX 12 27 3 -7
BITMAP
F0F0
F3F0
F7F0
FE00
FC00
F800
F800
F000
F000
F000
F000
F000
F000
F000
F000
F000
F000
F000
F000
F000
F000
F000
F000
F000
F000
F000
F000
ENDCHAR
STARTCHAR 027D
ENCODING 637
SWIDTH 416 0
DWIDTH 15 0
BBX 12 27 3 -6
BITMAP
F1F0
F7F0
FFF0
FE00
FC00
F800
F000
F000
F000
F000
F000
F000
F000
F000
F000
F000
F000
F000
F000
F000
F000
F000
F000
F800
7FE0
3FE0
1FE0
ENDCHAR
STARTCHAR 027E
ENCODING 638
SWIDTH 527 0
DWIDTH 19 0
BBX 14 20 2 0
BITMAP
03FC
07FC
0FFC
0F00
1E00
1E00
1E00
1E00
1E00
1E00
1E00
1E00
1E00
1E00
1E00
1E00
1E00
FF80
FF80
FF80
ENDCHAR
STARTCHAR 027F
ENCODING 639
SWIDTH 527 0
DWIDTH 19 0
BBX 14 20 2 0
BITMAP
FF00
FF80
FFC0
03C0
01E0
01E0
01E0
01E0
01E0
01E0
01E0
01E0
01E0
01E0
01E0
01E0
01E0
0FFC
0FFC
0FFC
ENDCHAR
STARTCHAR 0280
ENCODING 640
SWIDTH 611 0
DWIDTH 22 0
BBX 17 20 3 0
BITMAP
FFC000
FFF000
FFF800
F07C00
F03C00
F03C00
F03C00
F07C00
FFF800
FFE000
FFE000
F1F000
F0F800
F07800
F03C00
F03E00
F01E00
F01F00
F00F00
F00F80
ENDCHAR
STARTCHAR 0281
ENCODING 641
SWIDTH 611 0
DWIDTH 22 0
BBX 17 20 3 0
BITMAP
F00780
F00F00
F00F00
F01E00
F03C00
F03C00
F07800
F0F000
FFE000
FFE000
FFF800
F07800
F03C00
F03C00
F03C00
F03C00
F07C00
FFF800
FFF000
FFC000
ENDCHAR
STARTCHAR 0282
ENCODING 642
SWIDTH 527 0
DWIDTH 19 0
BBX 15 27 2 -7
BITMAP
0FF0
3FFC
7FFC
FC0C
F000
F000
F000
FC00
7FC0
1FF0
03FC
007C
001E
001E
001E
801E
E07E
FFFC
FFF8
FFE0
F000
F000
F000
7800
7FE0
3FE0
1FE0
ENDCHAR
STARTCHAR 0283
ENCODING 643
SWIDTH 333 0
DWIDTH 12 0
BBX 14 34 -1 -7
BITMAP
00FC
03FC
07FC
0F80
0F00
0F00
0F00
0F00
0F00
0F00
0F00
0F00
0F00
0F00
0F00
0F00
0F00
0F00
0F00
0F00
0F00
0F00
0F00
0F00
0F00
0F00
0F00
0F00
0F00
0F00
1F00
FE00
FC00
F800
ENDCHAR
STARTCHAR 0284
ENCODING 644
SWIDTH 333 0
DWIDTH 12 0
BBX 14 34 -1 -7
BITMAP
00FC
03FC
07FC
0F80
0F00
0F00
0F00
7F00
7F00
7F00
0F00
0F00
0F00
0F00
0F00
0F00
7FC0
7FC0
7FC0
0F00
0F00
0F00
0F00
0F00
0F00
0F00
0F00
0F00
0F00
0F00
1F00
FE00
FC00
F800
ENDCHAR
STARTCHAR 0285
ENCODING 645
SWIDTH 472 0
DWIDTH 17 0
BBX 14 27 1 -7
BITMAP
FE00
FF00
FF80
07C0
03C0
03C0
03C0
03C0
03C0
03C0
03C0
03C0
03C0
03C0
03C0
03C0
03C0
03C0
03C0
03C0
03C0
03C0
03C0
03E0
01FC
00FC
007C
ENDCHAR
STARTCHAR 0286
ENCODING 646
SWIDTH 333 0
DWIDTH 12 0
BBX 18 34 -4 -7
BITMAP
001FC0
003FC0
007FC0
00F800
00F000
00F000
00F000
00F000
00F000
00F000
00F000
00F000
00F000
00F000
00F000
00F000
00F000
00F000
00F000
00F000
00F000
00F000
00F000
00F000
00F000
00F000
00F000
3FFE00
7FFE00
FFFE00
E1F000
FFE000
7FE000
3F8000
ENDCHAR
STARTCHAR 0287
ENCODING 647
SWIDTH 388 0
DWIDTH 14 0
BBX 13 25 1 -5
BITMAP
FF00
FFC0
FFC0
03E0
01E0
01E0
01E0
01E0
01E0
01E0
01E0
01E0
01E0
01E0
01E0
01E0
01E0
FFF8
FFF8
FFF8
01E0
01E0
01E0
01E0
01E0
ENDCHAR
STARTCHAR 0288
ENCODING 648
SWIDTH 388 0
DWIDTH 14 0
BBX 13 33 1 -7
BITMAP
3C00
3C00
3C00
3C00
3C00
3C00
FFF8
FFF8
FFF8
3C00
3C00
3C00
3C00
3C00
3C00
3C00
3C00
3C00
3C00
3C00
3C00
3C00
3C00
3C00
3C00
3C00
3C00
3C00
3C00
1E00
1FF8
0FF8
03F8
ENDCHAR
STARTCHAR 0289
ENCODING 649
SWIDTH 638 0
DWIDTH 23 0
BBX 22 20 0 0
BITMAP
1E01E0
1E01E0
1E01E0
1E01E0
1E01E0
1E01E0
1E01E0
1E01E0
1E01E0
FFFFFC
FFFFFC
FFFFFC
1E01E0
1E01E0
1E03E0
1F03E0
0F87E0
0FFDE0
07F9E0
01F1E0
ENDCHAR
STARTCHAR 028A
ENCODING 650
SWIDTH 666 0
DWIDTH 24 0
BBX 19 20 3 0
BITMAP
FF1FE0
FF1FE0
FF1FE0
1F1F00
3E0F80
3C0780
7803C0
7803C0
F001E0
F001E0
F001E0
F001E0
F001E0
F001E0
7803C0
7C07C0
3E0F80
1FFF00
0FFE00
03F800
ENDCHAR
STARTCHAR 028B
ENCODING 651
SWIDTH 638 0
DWIDTH 23 0
BBX 18 20 3 0
BITMAP
F07000
F07C00
F07E00
F03F00
F00F80
F00780
F007C0
F003C0
F003C0
F003C0
F003C0
F003C0
F003C0
F003C0
F00780
F00F80
781F00
7FFE00
3FFC00
0FF000
ENDCHAR
STARTCHAR 028C
ENCODING 652
SWIDTH 583 0
DWIDTH 21 0
BBX 19 20 1 0
BITMAP
01F000
01F000
03F800
03F800
03F800
07FC00
07BC00
07BC00
0F1E00
0F1E00
1F1F00
1E0F00
1E0F00
3E0F80
3C0780
3C0780
7C07C0
7803C0
F803C0
F001E0
ENDCHAR
STARTCHAR 028D
ENCODING 653
SWIDTH 805 0
DWIDTH 29 0
BBX 26 20 2 0
BITMAP
07807800
07807800
0F807C00
0FC0FC00
0FC0FC00
0FC0FC00
1FC1FE00
1EE1DE00
1EE1DE00
1EE1DE00
3EE3DF00
3C738F00
3C738F00
3C738F00
7C7F8F80
783F0780
783F0780
783F0780
F83F07C0
F01E03C0
ENDCHAR
STARTCHAR 028E
ENCODING 654
SWIDTH 583 0
DWIDTH 21 0
BBX 19 27 1 0
BITMAP
000F80
001F80
003F80
007C00
007800
00F800
00F000
00F000
01F000
01F000
01F800
03F800
03F800
07FC00
07BC00
07BE00
0F1E00
0F1E00
1F1F00
1E0F00
1E0F00
3C0780
3C0780
7C07C0
7803C0
7803C0
F801E0
ENDCHAR
STARTCHAR 028F
ENCODING 655
SWIDTH 611 0
DWIDTH 22 0
BBX 18 20 2 0
BITMAP
F807C0
7C0F80
3C0F00
3E1F00
1F3E00
1F3E00
0FFC00
07F800
07F800
03F000
01E000
01E000
01E000
01E000
01E000
01E000
01E000
01E000
01E000
01E000
ENDCHAR
STARTCHAR 0290
ENCODING 656
SWIDTH 527 0
DWIDTH 19 0
BBX 20 27 2 -7
BITMAP
FFFF00
FFFF00
FFFF00
001F00
003E00
007C00
00F800
01F800
01F000
03E000
07C000
0FC000
0F8000
1F0000
3E0000
7E0000
FC0000
FFFF00
FFFF00
FFFF00
000700
000700
000700
000780
0007F0
0003F0
0000F0
ENDCHAR
STARTCHAR 0291
ENCODING 657
SWIDTH 527 0
DWIDTH 19 0
BBX 16 22 2 -2
BITMAP
FFFF
FFFF
FFFF
001F
003E
007C
00F8
01F8
01F0
03E0
07C0
0FFC
0FFE
1FFE
3FCF
7FCF
FFCF
FFFF
FFFE
FFF8
07C0
07C0
ENDCHAR
STARTCHAR 0292
ENCODING 658
SWIDTH 611 0
DWIDTH 22 0
BBX 18 27 2 -7
BITMAP
7FFF00
7FFF00
7FFF00
003E00
007E00
007C00
00F800
01F000
03E000
07C000
078000
07F000
07FC00
07FE00
001F00
000780
0007C0
0003C0
0003C0
0003C0
0003C0
0007C0
000F80
C01F80
FFFF00
FFFC00
3FF000
ENDCHAR
STARTCHAR 0293
ENCODING 659
SWIDTH 583 0
DWIDTH 21 0
BBX 18 28 2 -8
BITMAP
FFFE00
FFFE00
FFFE00
001E00
003C00
007800
007800
00F000
01E000
03C000
078000
0F0000
0FF000
0FFC00
0FFE00
001F00
000F00
000780
000780
000780
1FE780
3FFF80
7FFF00
701F80
78FF80
7FFDC0
3FF9C0
0F81C0
ENDCHAR
STARTCHAR 0294
ENCODING 660
SWIDTH 527 0
DWIDTH 19 0
BBX 15 27 2 0
BITMAP
3F80
FFF0
FFF8
C0FC
003C
003E
001E
001E
001E
001E
003E
003C
00FC
0FF8
0FF0
0FC0
0F00
0F00
0F00
0F00
0F00
0F00
0F00
0F00
0F00
0F00
0F00
ENDCHAR
STARTCHAR 0295
ENCODING 661
SWIDTH 527 0
DWIDTH 19 0
BBX 15 27 2 0
BITMAP
03F8
1FFE
3FFE
7E06
7800
F800
F000
F000
F000
F000
F800
7800
7E00
3FE0
1FE0
07E0
01E0
01E0
01E0
01E0
01E0
01E0
01E0
01E0
01E0
01E0
01E0
ENDCHAR
STARTCHAR 0296
ENCODING 662
SWIDTH 527 0
DWIDTH 19 0
BBX 15 27 2 0
BITMAP
0F00
0F00
0F00
0F00
0F00
0F00
0F00
0F00
0F00
0F00
0F00
0FC0
0FF0
0FF8
00FC
003C
003E
001E
001E
001E
001E
003E
003C
C0FC
FFF8
FFF0
3F80
ENDCHAR
STARTCHAR 0297
ENCODING 663
SWIDTH 527 0
DWIDTH 19 0
BBX 15 34 2 -7
BITMAP
03F8
1FFE
3FFE
7E06
7800
F800
F000
F000
F000
F000
F000
F000
F000
F000
F000
F000
F000
F000
F000
F000
F000
F000
F000
F000
F000
F000
F000
F000
F800
7800
7E06
3FFE
1FFE
03F8
ENDCHAR
STARTCHAR 0298
ENCODING 664
SWIDTH 777 0
DWIDTH 28 0
BBX 24 27 2 -1
BITMAP
003E00
01FFC0
07FFE0
0FC1F8
1F0078
3E003C
3C001E
78001E
78000F
70000F
F0000F
F0000F
F01C07
F03C07
F03C07
F0180F
F0000F
F0000F
70000F
78000E
78001E
3C003E
3E003C
1F00F8
0FE7F0
07FFE0
01FF80
ENDCHAR
STARTCHAR 0299
ENCODING 665
SWIDTH 583 0
DWIDTH 21 0
BBX 16 20 3 0
BITMAP
FFE0
FFF8
FFFC
F03E
F01E
F01E
F01E
F03C
FFF8
FFF0
FFFC
F01E
F00F
F00F
F00F
F00F
F01F
FFFE
FFFC
FFF0
ENDCHAR
STARTCHAR 029A
ENCODING 666
SWIDTH 638 0
DWIDTH 23 0
BBX 19 20 2 0
BITMAP
07F000
1FFE00
3FFF00
7C0F80
7807C0
7803C0
7803E0
3C01E0
1FE1E0
0FE1E0
3FE1E0
7C01E0
F001E0
F003E0
F003C0
F807C0
7C0F80
7FFF00
3FFE00
07F800
ENDCHAR
STARTCHAR 029B
ENCODING 667
SWIDTH 694 0
DWIDTH 25 0
BBX 23 27 2 0
BITMAP
0000FE
0003FE
0003FE
000780
000700
000700
000700
03F700
0FFF00
1FFF00
3E0700
7C0100
780000
F80000
F00000
F00000
F03F80
F03F80
F03F80
F00780
F00780
780780
7C0780
3E0780
1FFF80
0FFF80
03FC00
ENDCHAR
STARTCHAR 029C
ENCODING 668
SWIDTH 666 0
DWIDTH 24 0
BBX 17 20 3 0
BITMAP
F00780
F00780
F00780
F00780
F00780
F00780
F00780
F00780
FFFF80
FFFF80
FFFF80
F00780
F00780
F00780
F00780
F00780
F00780
F00780
F00780
F00780
ENDCHAR
STARTCHAR 029D
ENCODING 669
SWIDTH 305 0
DWIDTH 11 0
BBX 15 34 -5 -7
BITMAP
00F0
00F0
00F0
00F0
0000
0000
0000
00F0
00F0
00F0
00F0
00F0
00F0
00F0
00F0
00F0
00F0
00F0
00F0
00F0
00F0
00F0
00F0
00F0
00F0
00F0
00F0
3FFE
7FFE
F0F0
F1E0
FFE0
7FC0
3F80
ENDCHAR
STARTCHAR 029E
ENCODING 670
SWIDTH 666 0
DWIDTH 24 0
BBX 18 28 3 -8
BITMAP
F803C0
3C03C0
1E03C0
0F03C0
0783C0
03C3C0
01E3C0
00F3C0
007BC0
003FC0
001FC0
003FC0
007BC0
00F3C0
01E3C0
03C3C0
0783C0
0F03C0
3E03C0
7803C0
0003C0
0003C0
0003C0
0003C0
0003C0
0003C0
0003C0
0003C0
ENDCHAR
STARTCHAR 029F
ENCODING 671
SWIDTH 527 0
DWIDTH 19 0
BBX 15 20 3 0
BITMAP
F000
F000
F000
F000
F000
F000
F000
F000
F000
F000
F000
F000
F000
F000
F000
F000
F000
FFFE
FFFE
FFFE
ENDCHAR
STARTCHAR 02A0
ENCODING 672
SWIDTH 722 0
DWIDTH 26 0
BBX 25 34 2 -7
BITMAP
00003F80
0000FF80
0001FF80
0003E000
0003C000
0003C000
0003C000
07E3C000
1FFBC000
3FFFC000
3E1FC000
7C0FC000
7807C000
F807C000
F003C000
F003C000
F003C000
F003C000
F003C000
F003C000
F007C000
7807C000
7C0FC000
3E1FC000
3FFFC000
1FFBC000
07E3C000
0003C000
0003C000
0003C000
0003C000
0003C000
0003C000
0003C000
ENDCHAR
STARTCHAR 02A1
ENCODING 673
SWIDTH 527 0
DWIDTH 19 0
BBX 15 27 2 0
BITMAP
3F80
FFF0
FFF8
C0FC
003C
003E
001E
001E
001E
001E
003E
003C
00FC
0FF8
0FF0
0FC0
0F00
0F00
0F00
FFF0
FFF0
FFF0
0F00
0F00
0F00
0F00
0F00
ENDCHAR
STARTCHAR 02A2
ENCODING 674
SWIDTH 527 0
DWIDTH 19 0
BBX 15 27 2 0
BITMAP
03F8
1FFE
3FFE
7E06
7800
F800
F000
F000
F000
F000
F800
7800
7E00
3FE0
1FE0
07E0
01E0
01E0
01E0
1FFE
1FFE
1FFE
01E0
01E0
01E0
01E0
01E0
ENDCHAR
STARTCHAR 02A3
ENCODING 675
SWIDTH 1027 0
DWIDTH 37 0
BBX 33 27 2 0
BITMAP
0003C00000
0003C00000
0003C00000
0003C00000
0003C00000
0003C00000
0003C00000
07E3FFFF80
1FFBFFFF80
3FFFFFFF80
3C0FC00780
7807C00F00
7007C01E00
F003C03C00
F003C07800
E003C0F000
E003C0F000
E003C1E000
E003C3C000
E003C78000
F003CF0000
7003DE0000
7807FC0000
780FFC0000
3E1FFFFF80
1FFBFFFF80
0FF3FFFF80
ENDCHAR
STARTCHAR 02A4
ENCODING 676
SWIDTH 1055 0
DWIDTH 38 0
BBX 34 35 2 -7
BITMAP
0003C00000
0003C00000
0003C00000
0003C00000
0003C00000
0003C00000
0003C00000
07E3FFFF80
1FFBFFFF80
3FFFFFFF80
3C0FC00780
7807C00F00
7007C01E00
F003C03C00
F003C07800
E003C0F000
E003C0F000
E003C1E000
E003C3C000
E003C3FC00
F003C3FE00
7003C3FF00
7807C00780
780FC003C0
3E1FC001C0
1FFBC001C0
0FF3C001C0
00000001C0
00000001C0
00000003C0
00004007C0
00007E3F80
00007FFF00
00003FFC00
000003E000
ENDCHAR
STARTCHAR 02A5
ENCODING 677
SWIDTH 1000 0
DWIDTH 36 0
BBX 33 29 2 -1
BITMAP
0003C00000
0003C00000
0003C00000
0003C00000
0003C00000
0003C00000
0003C00000
07E3FFFF80
1FFBFFFF80
3FFFFFFF80
3C0FC00780
7807C00F00
7007C01E00
F003C03C00
F003C07800
E003C0F000
E003C0F000
E003C1E000
E003C3C000
E003C78C00
F003CF3F00
7003DE7F00
7807FCE380
780FFCE380
3E1FFFFF80
1FFBFFFF00
0FF3FFFE00
000001C000
000001C000
ENDCHAR
STARTCHAR 02A6
ENCODING 678
SWIDTH 833 0
DWIDTH 30 0
BBX 27 25 1 0
BITMAP
3C000000
3C000000
3C000000
3C000000
3C000000
FFF0FF80
FFF3FFC0
FFF7FFC0
3C070040
3C0F0000
3C0E0000
3C0F0000
3C0F8000
3C07F000
3C03FE00
3C00FF80
3C001FC0
3C0003E0
3C0001E0
3C0000E0
3C0000E0
1C0801E0
1FFF87C0
0FFFFF80
07F7FF00
ENDCHAR
STARTCHAR 02A7
ENCODING 679
SWIDTH 611 0
DWIDTH 22 0
BBX 22 34 1 -7
BITMAP
0001FC
0007FC
3C0780
3C0F00
3C0F00
3C0E00
3C0E00
FFFE00
FFFE00
FFFE00
3C0E00
3C0E00
3C0E00
3C0E00
3C0E00
3C0E00
3C0E00
3C0E00
3C0E00
3C0E00
3C0E00
3C0E00
3C0E00
1C0E00
1FFE00
0FFE00
07FE00
000E00
000E00
000E00
000E00
001E00
00FC00
00F800
ENDCHAR
STARTCHAR 02A8
ENCODING 680
SWIDTH 777 0
DWIDTH 28 0
BBX 25 28 1 -2
BITMAP
3C000000
3C000000
3C000000
3C000000
3C000000
FFF1FF00
FFF7FF80
FFFFFF80
3C1F0080
3C1E0000
3C3C0000
3C380000
3C380000
3C380000
3C780000
3C780000
3C780000
3C380000
3C387E00
3C3CFF00
3C1DFF80
1C1F8380
1FFFC380
0FFFFF80
07FFFF00
00033800
00030000
00030000
ENDCHAR
STARTCHAR 02A9
ENCODING 681
SWIDTH 861 0
DWIDTH 31 0
BBX 28 34 1 -7
BITMAP
07F00000
0FF00000
0F000000
1E000000
1C000000
1C000000
1C000000
FFFE3F00
FFFEFFC0
FFFFFFE0
1C1F81E0
1C1F00F0
1C1E00F0
1C1E0070
1C1E0070
1C1E0070
1C1E0070
1C1E0070
1C1E0070
1C1E0070
1C1E0070
1C1E0070
1C1E0070
1C1E0070
1C1E0070
1C1E0070
1C1E0070
00000070
00000070
00000070
000000F0
000001E0
00007FE0
00007FC0
ENDCHAR
STARTCHAR 02AA
ENCODING 682
SWIDTH 638 0
DWIDTH 23 0
BBX 19 28 3 0
BITMAP
F00000
F00000
F00000
F00000
F00000
F00000
F00000
F1FF00
F7FF80
FFFF80
FF0080
FE0000
FE0000
FE0000
FF0000
FFE000
F7FE00
F1FF80
F01FC0
F003C0
F001C0
F001E0
F001C0
F801C0
FF07C0
FFFF80
FFFE00
002000
ENDCHAR
STARTCHAR 02AB
ENCODING 683
SWIDTH 666 0
DWIDTH 24 0
BBX 20 27 3 0
BITMAP
F00000
F00000
F00000
F00000
F00000
F00000
F00000
FFFFF0
FFFFF0
FFFFF0
F003F0
F007E0
F007C0
F00F80
F01F00
F03F00
F03E00
F07C00
F0F800
F1F000
F3F000
F3E000
F7C000
FF8000
FFFFF0
FFFFF0
FFFFF0
ENDCHAR
STARTCHAR 02AC
ENCODING 684
SWIDTH 527 0
DWIDTH 19 0
BBX 17 24 1 0
BITMAP
C1C300
C1C300
63C300
636700
636600
366600
362600
363C00
3C3C00
1C1C00
1C1C00
000000
C18180
C1C300
63C300
634300
636600
626600
366600
363E00
363C00
1C3C00
1C1C00
1C1800
ENDCHAR
STARTCHAR 02AD
ENCODING 685
SWIDTH 527 0
DWIDTH 19 0
BBX 17 20 1 3
BITMAP
FFFF80
FFFF80
FFFF80
F00780
F00780
F00780
F00780
F00780
000000
000000
000000
000000
FFFF80
FFFF80
FFFF80
F00780
F00780
F00780
F00780
F00780
ENDCHAR
STARTCHAR 02AE
ENCODING 686
SWIDTH 611 0
DWIDTH 22 0
BBX 19 34 0 -7
BITMAP
F00000
F80000
FC0000
3E0000
1E0000
1E0000
1E0000
1E01E0
1E01E0
1E01E0
1E01E0
1E01E0
1E01E0
1E01E0
1E01E0
1E01E0
1E01E0
1E01E0
1E01E0
1E01E0
1E01E0
1E03E0
1F03E0
0F8FE0
0FFDE0
07F9E0
01F1E0
0001E0
0001E0
0001E0
0001E0
0001E0
0001E0
0001E0
ENDCHAR
STARTCHAR 02AF
ENCODING 687
SWIDTH 611 0
DWIDTH 22 0
BBX 23 34 0 -7
BITMAP
F00000
F80000
FC0000
3E0000
1E0000
1E0000
1E0000
1E01E0
1E01E0
1E01E0
1E01E0
1E01E0
1E01E0
1E01E0
1E01E0
1E01E0
1E01E0
1E01E0
1E01E0
1E01E0
1E01E0
1E03E0
1F03E0
0F8FE0
0FFDE0
07F9E0
01F1E0
0001E0
0001E0
0001E0
0000F0
0000FE
00007E
00003E
ENDCHAR
STARTCHAR 02B0
ENCODING 688
SWIDTH 388 0
DWIDTH 14 0
BBX 10 15 2 12
BITMAP
C000
C000
C000
C000
CF00
FF80
E1C0
C0C0
C0C0
C0C0
C0C0
C0C0
C0C0
C0C0
C0C0
ENDCHAR
STARTCHAR 02B1
ENCODING 689
SWIDTH 388 0
DWIDTH 14 0
BBX 10 15 2 12
BITMAP
3E00
7E00
C000
C000
CF00
FF80
E1C0
C0C0
C0C0
C0C0
C0C0
C0C0
C0C0
C0C0
C0C0
ENDCHAR
STARTCHAR 02B2
ENCODING 690
SWIDTH 166 0
DWIDTH 6 0
BBX 5 19 -1 8
BITMAP
18
18
00
00
18
18
18
18
18
18
18
18
18
18
18
18
18
F0
E0
ENDCHAR
STARTCHAR 02B3
ENCODING 691
SWIDTH 250 0
DWIDTH 9 0
BBX 7 11 2 12
BITMAP
CE
DE
F0
C0
C0
C0
C0
C0
C0
C0
C0
ENDCHAR
STARTCHAR 02B4
ENCODING 692
SWIDTH 305 0
DWIDTH 11 0
BBX 7 11 1 12
BITMAP
06
06
06
06
06
06
06
06
0E
FE
F6
ENDCHAR
STARTCHAR 02B5
ENCODING 693
SWIDTH 305 0
DWIDTH 11 0
BBX 10 15 1 8
BITMAP
0600
0600
0600
0600
0600
0600
0600
0600
0E00
FE00
F600
0600
0600
07C0
01C0
ENDCHAR
STARTCHAR 02B6
ENCODING 694
SWIDTH 388 0
DWIDTH 14 0
BBX 10 11 1 11
BITMAP
C0C0
C0C0
C180
C300
C700
FC00
CF00
C380
C380
C700
FE00
ENDCHAR
STARTCHAR 02B7
ENCODING 695
SWIDTH 527 0
DWIDTH 19 0
BBX 17 11 1 11
BITMAP
C1C380
C1C300
63C300
634300
636600
366600
362600
363C00
343C00
1C3C00
1C1C00
ENDCHAR
STARTCHAR 02B8
ENCODING 696
SWIDTH 361 0
DWIDTH 13 0
BBX 12 15 1 7
BITMAP
C070
C060
6060
60C0
30C0
3180
1980
1B00
0F00
0F00
0E00
0E00
0C00
1C00
7800
ENDCHAR
STARTCHAR 02B9
ENCODING 697
SWIDTH 277 0
DWIDTH 10 0
BBX 4 9 3 20
BITMAP
70
70
70
60
E0
E0
E0
E0
C0
ENDCHAR
STARTCHAR 02BA
ENCODING 698
SWIDTH 472 0
DWIDTH 17 0
BBX 11 9 3 20
BITMAP
70E0
70E0
70E0
60C0
E1C0
E1C0
E1C0
E1C0
C180
ENDCHAR
STARTCHAR 02BB
ENCODING 699
SWIDTH 305 0
DWIDTH 11 0
BBX 5 9 3 17
BITMAP
18
38
38
70
70
F0
F0
F0
F0
ENDCHAR
STARTCHAR 02BC
ENCODING 700
SWIDTH 305 0
DWIDTH 11 0
BBX 5 9 4 17
BITMAP
78
78
78
78
70
70
E0
E0
C0
ENDCHAR
STARTCHAR 02BD
ENCODING 701
SWIDTH 305 0
DWIDTH 11 0
BBX 5 9 3 22
BITMAP
F0
F0
F0
F0
70
70
38
38
18
ENDCHAR
STARTCHAR 02BE
ENCODING 702
SWIDTH 305 0
DWIDTH 11 0
BBX 5 10 2 17
BITMAP
C0
F0
30
18
18
18
18
30
F0
C0
ENDCHAR
STARTCHAR 02BF
ENCODING 703
SWIDTH 305 0
DWIDTH 11 0
BBX 5 10 2 17
BITMAP
18
78
60
C0
C0
C0
C0
60
78
18
ENDCHAR
STARTCHAR 02C0
ENCODING 704
SWIDTH 361 0
DWIDTH 13 0
BBX 9 15 2 12
BITMAP
7C00
FF00
8380
0180
0180
0180
0300
1E00
1800
1800
1800
1800
1800
1800
1800
ENDCHAR
STARTCHAR 02C1
ENCODING 705
SWIDTH 361 0
DWIDTH 13 0
BBX 9 15 2 12
BITMAP
1F00
7F80
E080
C000
C000
C000
6000
3C00
0C00
0C00
0C00
0C00
0C00
0C00
0C00
ENDCHAR
STARTCHAR 02C2
ENCODING 706
SWIDTH 500 0
DWIDTH 18 0
BBX 8 11 5 19
BITMAP
01
07
1F
7C
F0
C0
F0
7C
1F
07
01
ENDCHAR
STARTCHAR 02C3
ENCODING 707
SWIDTH 500 0
DWIDTH 18 0
BBX 8 11 5 19
BITMAP
80
E0
F8
3E
0F
03
0F
3E
F8
E0
80
ENDCHAR
STARTCHAR 02C4
ENCODING 708
SWIDTH 500 0
DWIDTH 18 0
BBX 11 9 3 20
BITMAP
0E00
0E00
1B00
1B00
3B80
3180
71C0
60C0
E0E0
ENDCHAR
STARTCHAR 02C5
ENCODING 709
SWIDTH 500 0
DWIDTH 18 0
BBX 11 9 3 20
BITMAP
E0E0
60C0
71C0
3180
3B80
1B00
1B00
0E00
0E00
ENDCHAR
STARTCHAR 02C6
ENCODING 710
SWIDTH 500 0
DWIDTH 18 0
BBX 11 7 3 22
BITMAP
0E00
1F00
1B00
3B80
7180
60C0
E0E0
ENDCHAR
STARTCHAR 02C7
ENCODING 711
SWIDTH 500 0
DWIDTH 18 0
BBX 11 7 3 22
BITMAP
E0E0
60C0
31C0
3B80
1B00
1F00
0E00
ENDCHAR
STARTCHAR 02C8
ENCODING 712
SWIDTH 277 0
DWIDTH 10 0
BBX 2 10 4 18
BITMAP
C0
C0
C0
C0
C0
C0
C0
C0
C0
C0
ENDCHAR
STARTCHAR 02C9
ENCODING 713
SWIDTH 500 0
DWIDTH 18 0
BBX 11 3 4 24
BITMAP
FFE0
FFE0
FFE0
ENDCHAR
STARTCHAR 02CA
ENCODING 714
SWIDTH 500 0
DWIDTH 18 0
BBX 8 7 7 22
BITMAP
0F
1E
1C
38
70
E0
E0
ENDCHAR
STARTCHAR 02CB
ENCODING 715
SWIDTH 500 0
DWIDTH 18 0
BBX 8 7 3 22
BITMAP
F0
70
38
1C
0E
06
07
ENDCHAR
STARTCHAR 02CC
ENCODING 716
SWIDTH 277 0
DWIDTH 10 0
BBX 2 10 4 -5
BITMAP
C0
C0
C0
C0
C0
C0
C0
C0
C0
C0
ENDCHAR
STARTCHAR 02CD
ENCODING 717
SWIDTH 500 0
DWIDTH 18 0
BBX 11 3 4 -6
BITMAP
FFE0
FFE0
FFE0
ENDCHAR
STARTCHAR 02CE
ENCODING 718
SWIDTH 500 0
DWIDTH 18 0
BBX 8 7 3 -8
BITMAP
F0
78
38
1C
0E
07
03
ENDCHAR
STARTCHAR 02CF
ENCODING 719
SWIDTH 500 0
DWIDTH 18 0
BBX 7 7 7 -8
BITMAP
0E
1E
3C
38
70
E0
C0
ENDCHAR
STARTCHAR 02D0
ENCODING 720
SWIDTH 333 0
DWIDTH 12 0
BBX 6 19 2 0
BITMAP
FC
78
78
30
30
00
00
00
00
00
00
00
00
00
30
30
78
78
FC
ENDCHAR
STARTCHAR 02D1
ENCODING 721
SWIDTH 333 0
DWIDTH 12 0
BBX 6 5 2 13
BITMAP
FC
78
78
30
30
ENDCHAR
STARTCHAR 02D2
ENCODING 722
SWIDTH 305 0
DWIDTH 11 0
BBX 5 10 2 8
BITMAP
C0
F0
30
18
18
18
18
30
F0
C0
ENDCHAR
STARTCHAR 02D3
ENCODING 723
SWIDTH 305 0
DWIDTH 11 0
BBX 5 10 2 8
BITMAP
18
78
60
C0
C0
C0
C0
60
78
18
ENDCHAR
STARTCHAR 02D4
ENCODING 724
SWIDTH 500 0
DWIDTH 18 0
BBX 8 8 5 9
BITMAP
18
18
18
18
18
FF
FF
FF
ENDCHAR
STARTCHAR 02D5
ENCODING 725
SWIDTH 500 0
DWIDTH 18 0
BBX 8 8 5 9
BITMAP
FF
FF
F8
18
18
18
18
18
ENDCHAR
STARTCHAR 02D6
ENCODING 726
SWIDTH 388 0
DWIDTH 14 0
BBX 10 11 2 4
BITMAP
0C00
0C00
0C00
0C00
FFC0
FFC0
FFC0
0C00
0C00
0C00
0C00
ENDCHAR
STARTCHAR 02D7
ENCODING 727
SWIDTH 305 0
DWIDTH 11 0
BBX 8 3 2 9
BITMAP
FF
FF
FF
ENDCHAR
STARTCHAR 02D8
ENCODING 728
SWIDTH 500 0
DWIDTH 18 0
BBX 11 6 4 23
BITMAP
C060
C0E0
E0E0
7FC0
3F80
1F00
ENDCHAR
STARTCHAR 02D9
ENCODING 729
SWIDTH 500 0
DWIDTH 18 0
BBX 4 4 7 23
BITMAP
F0
F0
F0
F0
ENDCHAR
STARTCHAR 02DA
ENCODING 730
SWIDTH 500 0
DWIDTH 18 0
BBX 10 10 4 22
BITMAP
1E00
7F80
6180
C0C0
C0C0
C0C0
C0C0
6180
7F80
1E00
ENDCHAR
STARTCHAR 02DB
ENCODING 731
SWIDTH 500 0
DWIDTH 18 0
BBX 7 7 6 -7
BITMAP
30
60
E0
E2
FE
FE
3E
ENDCHAR
STARTCHAR 02DC
ENCODING 732
SWIDTH 500 0
DWIDTH 18 0
BBX 12 5 3 23
BITMAP
3830
7E30
EF70
C7E0
C1C0
ENDCHAR
STARTCHAR 02DD
ENCODING 733
SWIDTH 500 0
DWIDTH 18 0
BBX 12 7 4 22
BITMAP
1C70
38E0
39C0
71C0
7380
6300
E700
ENDCHAR
STARTCHAR 02DE
ENCODING 734
SWIDTH 305 0
DWIDTH 11 0
BBX 12 10 0 9
BITMAP
0F00
3F00
FF00
F700
C700
0700
0780
03F0
01F0
0030
ENDCHAR
STARTCHAR 02DF
ENCODING 735
SWIDTH 500 0
DWIDTH 18 0
BBX 10 7 4 22
BITMAP
F3C0
7F80
3F00
1E00
3F00
7F00
F380
ENDCHAR
STARTCHAR 02E0
ENCODING 736
SWIDTH 416 0
DWIDTH 15 0
BBX 11 15 2 7
BITMAP
E060
70C0
31C0
1B80
0F00
0E00
0F00
1B00
1980
3180
30C0
60C0
60C0
71C0
3FC0
ENDCHAR
STARTCHAR 02E1
ENCODING 737
SWIDTH 166 0
DWIDTH 6 0
BBX 2 15 2 12
BITMAP
C0
C0
C0
C0
C0
C0
C0
C0
C0
C0
C0
C0
C0
C0
C0
ENDCHAR
STARTCHAR 02E2
ENCODING 738
SWIDTH 361 0
DWIDTH 13 0
BBX 9 11 2 12
BITMAP
7F80
F180
C000
C000
7800
3F00
0380
0180
0180
C380
FF00
ENDCHAR
STARTCHAR 02E3
ENCODING 739
SWIDTH 444 0
DWIDTH 16 0
BBX 11 11 3 11
BITMAP
C0E0
61C0
7180
3B00
1E00
0C00
1E00
3B00
7380
61C0
C0C0
ENDCHAR
STARTCHAR 02E4
ENCODING 740
SWIDTH 361 0
DWIDTH 13 0
BBX 9 15 2 12
BITMAP
1F00
7F80
E080
C000
C000
C000
6000
3C00
0C00
0C00
0C00
0C00
0C00
0C00
0C00
ENDCHAR
STARTCHAR 02E5
ENCODING 741
SWIDTH 500 0
DWIDTH 18 0
BBX 10 24 4 0
BITMAP
FFC0
FFC0
FFC0
03C0
03C0
03C0
03C0
03C0
03C0
03C0
03C0
03C0
03C0
03C0
03C0
03C0
03C0
03C0
03C0
03C0
03C0
03C0
03C0
03C0
ENDCHAR
STARTCHAR 02E6
ENCODING 742
SWIDTH 500 0
DWIDTH 18 0
BBX 10 24 4 0
BITMAP
03C0
03C0
03C0
03C0
03C0
FFC0
FFC0
FFC0
03C0
03C0
03C0
03C0
03C0
03C0
03C0
03C0
03C0
03C0
03C0
03C0
03C0
03C0
03C0
03C0
ENDCHAR
STARTCHAR 02E7
ENCODING 743
SWIDTH 500 0
DWIDTH 18 0
BBX 10 24 4 0
BITMAP
03C0
03C0
03C0
03C0
03C0
03C0
03C0
03C0
03C0
03C0
03C0
FFC0
FFC0
FFC0
03C0
03C0
03C0
03C0
03C0
03C0
03C0
03C0
03C0
03C0
ENDCHAR
STARTCHAR 02E8
ENCODING 744
SWIDTH 500 0
DWIDTH 18 0
BBX 10 24 4 0
BITMAP
03C0
03C0
03C0
03C0
03C0
03C0
03C0
03C0
03C0
03C0
03C0
03C0
03C0
03C0
03C0
03C0
FFC0
FFC0
FFC0
03C0
03C0
03C0
03C0
03C0
ENDCHAR
STARTCHAR 02E9
ENCODING 745
SWIDTH 500 0
DWIDTH 18 0
BBX 10 24 4 0
BITMAP
03C0
03C0
03C0
03C0
03C0
03C0
03C0
03C0
03C0
03C0
03C0
03C0
03C0
03C0
03C0
03C0
03C0
03C0
03C0
03C0
03C0
FFC0
FFC0
FFC0
ENDCHAR
STARTCHAR 02EC
ENCODING 748
SWIDTH 500 0
DWIDTH 18 0
BBX 11 9 3 -10
BITMAP
E0E0
60C0
71C0
3180
3B80
1B00
1B00
0E00
0E00
ENDCHAR
STARTCHAR 02ED
ENCODING 749
SWIDTH 500 0
DWIDTH 18 0
BBX 11 7 4 22
BITMAP
FFE0
FFE0
FFE0
0000
FFE0
FFE0
FFE0
ENDCHAR
STARTCHAR 02EE
ENCODING 750
SWIDTH 527 0
DWIDTH 19 0
BBX 13 9 4 17
BITMAP
7878
7878
7878
7878
7070
7070
E0E0
E0E0
C0C0
ENDCHAR
STARTCHAR 02F3
ENCODING 755
SWIDTH 500 0
DWIDTH 18 0
BBX 10 10 4 -9
BITMAP
1E00
7F80
6180
C0C0
C0C0
C0C0
C0C0
6180
7F80
1E00
ENDCHAR
STARTCHAR 02F7
ENCODING 759
SWIDTH 500 0
DWIDTH 18 0
BBX 12 5 3 -7
BITMAP
3830
7E30
EF70
C7E0
C1C0
ENDCHAR
STARTCHAR 0300
ENCODING 768
SWIDTH 0 0
DWIDTH 0 0
BBX 8 7 -15 20
BITMAP
F0
70
38
1C
0C
0E
07
ENDCHAR
STARTCHAR 0301
ENCODING 769
SWIDTH 0 0
DWIDTH 0 0
BBX 8 7 -11 20
BITMAP
0F
0E
1C
38
38
70
E0
ENDCHAR
STARTCHAR 0302
ENCODING 770
SWIDTH 0 0
DWIDTH 0 0
BBX 11 7 -15 20
BITMAP
0E00
1F00
1B00
3B80
7180
60C0
E0E0
ENDCHAR
STARTCHAR 0303
ENCODING 771
SWIDTH 0 0
DWIDTH 0 0
BBX 12 5 -15 23
BITMAP
3830
7E30
EF70
C7E0
C1C0
ENDCHAR
STARTCHAR 0304
ENCODING 772
SWIDTH 0 0
DWIDTH 0 0
BBX 11 3 -14 24
BITMAP
FFE0
FFE0
FFE0
ENDCHAR
STARTCHAR 0305
ENCODING 773
SWIDTH 0 0
DWIDTH 0 0
BBX 18 3 -18 25
BITMAP
FFFFC0
FFFFC0
FFFFC0
ENDCHAR
STARTCHAR 0306
ENCODING 774
SWIDTH 0 0
DWIDTH 0 0
BBX 11 6 -14 23
BITMAP
C060
C0E0
E0E0
7FC0
3F80
1F00
ENDCHAR
STARTCHAR 0307
ENCODING 775
SWIDTH 0 0
DWIDTH 0 0
BBX 4 4 -11 20
BITMAP
F0
F0
F0
F0
ENDCHAR
STARTCHAR 0308
ENCODING 776
SWIDTH 0 0
DWIDTH 0 0
BBX 11 4 -14 20
BITMAP
F1E0
F1E0
F1E0
F1E0
ENDCHAR
STARTCHAR 0309
ENCODING 777
SWIDTH 0 0
DWIDTH 0 0
BBX 8 7 -13 22
BITMAP
7C
FF
83
03
06
1C
18
ENDCHAR
STARTCHAR 030A
ENCODING 778
SWIDTH 0 0
DWIDTH 0 0
BBX 10 10 -14 22
BITMAP
1E00
7F80
6180
C0C0
C0C0
C0C0
C0C0
6180
7F80
1E00
ENDCHAR
STARTCHAR 030B
ENCODING 779
SWIDTH 0 0
DWIDTH 0 0
BBX 12 7 -14 22
BITMAP
1C70
38E0
39C0
71C0
7380
6300
E700
ENDCHAR
STARTCHAR 030C
ENCODING 780
SWIDTH 0 0
DWIDTH 0 0
BBX 11 7 -15 20
BITMAP
E0E0
60C0
31C0
3B80
1B00
1F00
0E00
ENDCHAR
STARTCHAR 030D
ENCODING 781
SWIDTH 0 0
DWIDTH 0 0
BBX 2 8 -10 22
BITMAP
C0
C0
C0
C0
C0
C0
C0
C0
ENDCHAR
STARTCHAR 030E
ENCODING 782
SWIDTH 0 0
DWIDTH 0 0
BBX 10 8 -14 22
BITMAP
C0C0
C0C0
C0C0
C0C0
C0C0
C0C0
C0C0
C0C0
ENDCHAR
STARTCHAR 030F
ENCODING 783
SWIDTH 0 0
DWIDTH 0 0
BBX 12 7 -16 22
BITMAP
E380
71C0
39C0
38E0
1CE0
0C60
0E70
ENDCHAR
STARTCHAR 0310
ENCODING 784
SWIDTH 0 0
DWIDTH 0 0
BBX 11 10 -14 23
BITMAP
1E00
1E00
1E00
1E00
C060
C0E0
E0E0
7FC0
3F80
1F00
ENDCHAR
STARTCHAR 0311
ENCODING 785
SWIDTH 0 0
DWIDTH 0 0
BBX 11 6 -15 23
BITMAP
1F00
3F80
7FC0
E0E0
C060
C060
ENDCHAR
STARTCHAR 0312
ENCODING 786
SWIDTH 0 0
DWIDTH 0 0
BBX 5 6 -8 18
BITMAP
38
30
70
70
F0
E0
ENDCHAR
STARTCHAR 0313
ENCODING 787
SWIDTH 0 0
DWIDTH 0 0
BBX 4 9 -11 22
BITMAP
F0
F0
F0
F0
30
30
F0
E0
80
ENDCHAR
STARTCHAR 0314
ENCODING 788
SWIDTH 0 0
DWIDTH 0 0
BBX 4 8 -11 22
BITMAP
F0
F0
F0
F0
C0
E0
F0
70
ENDCHAR
STARTCHAR 0315
ENCODING 789
SWIDTH 0 0
DWIDTH 0 0
BBX 4 6 -2 21
BITMAP
70
70
F0
E0
E0
E0
ENDCHAR
STARTCHAR 0316
ENCODING 790
SWIDTH 0 0
DWIDTH 0 0
BBX 8 7 -15 -10
BITMAP
F0
70
38
1C
0C
0E
07
ENDCHAR
STARTCHAR 0317
ENCODING 791
SWIDTH 0 0
DWIDTH 0 0
BBX 8 7 -11 -10
BITMAP
0F
0E
1C
38
38
70
E0
ENDCHAR
STARTCHAR 0318
ENCODING 792
SWIDTH 0 0
DWIDTH 0 0
BBX 5 8 -13 -8
BITMAP
18
18
18
F8
F8
18
18
18
ENDCHAR
STARTCHAR 0319
ENCODING 793
SWIDTH 0 0
DWIDTH 0 0
BBX 5 8 -10 -8
BITMAP
C0
C0
C0
F8
F8
C0
C0
C0
ENDCHAR
STARTCHAR 031A
ENCODING 794
SWIDTH 0 0
DWIDTH 0 0
BBX 9 8 -8 25
BITMAP
FF80
FF80
0180
0180
0180
0180
0180
0180
ENDCHAR
STARTCHAR 031B
ENCODING 795
SWIDTH 0 0
DWIDTH 0 0
BBX 7 6 -5 15
BITMAP
06
06
06
C6
7E
3C
ENDCHAR
STARTCHAR 031C
ENCODING 796
SWIDTH 0 0
DWIDTH 0 0
BBX 4 7 -11 -9
BITMAP
30
70
E0
C0
C0
70
30
ENDCHAR
STARTCHAR 031D
ENCODING 797
SWIDTH 0 0
DWIDTH 0 0
BBX 8 6 -13 -9
BITMAP
18
18
18
FF
FF
FF
ENDCHAR
STARTCHAR 031E
ENCODING 798
SWIDTH 0 0
DWIDTH 0 0
BBX 8 6 -13 -9
BITMAP
FF
FF
FF
18
18
18
ENDCHAR
STARTCHAR 031F
ENCODING 799
SWIDTH 0 0
DWIDTH 0 0
BBX 8 8 -13 -8
BITMAP
18
18
18
FF
FF
18
18
18
ENDCHAR
STARTCHAR 0320
ENCODING 800
SWIDTH 0 0
DWIDTH 0 0
BBX 8 3 -13 -7
BITMAP
FF
FF
FF
ENDCHAR
STARTCHAR 0321
ENCODING 801
SWIDTH 0 0
DWIDTH 0 0
BBX 10 9 -11 -7
BITMAP
01C0
01C0
01C0
01C0
01C0
03C0
0780
FF80
FF00
ENDCHAR
STARTCHAR 0322
ENCODING 802
SWIDTH 0 0
DWIDTH 0 0
BBX 10 9 -11 -7
BITMAP
E000
E000
E000
E000
E000
E000
F000
7FC0
3FC0
ENDCHAR
STARTCHAR 0323
ENCODING 803
SWIDTH 0 0
DWIDTH 0 0
BBX 4 5 -11 -7
BITMAP
F0
F0
F0
F0
F0
ENDCHAR
STARTCHAR 0324
ENCODING 804
SWIDTH 0 0
DWIDTH 0 0
BBX 11 4 -14 -7
BITMAP
F1E0
F1E0
F1E0
F1E0
ENDCHAR
STARTCHAR 0325
ENCODING 805
SWIDTH 0 0
DWIDTH 0 0
BBX 8 7 -13 -9
BITMAP
3C
7E
E7
C3
C7
7E
3C
ENDCHAR
STARTCHAR 0326
ENCODING 806
SWIDTH 0 0
DWIDTH 0 0
BBX 5 6 -12 -9
BITMAP
38
78
70
70
60
E0
ENDCHAR
STARTCHAR 0327
ENCODING 807
SWIDTH 0 0
DWIDTH 0 0
BBX 7 7 -13 -7
BITMAP
18
0C
0E
8E
FE
FE
FC
ENDCHAR
STARTCHAR 0328
ENCODING 808
SWIDTH 0 0
DWIDTH 0 0
BBX 7 7 -12 -7
BITMAP
30
60
E0
E2
FE
FE
3E
ENDCHAR
STARTCHAR 0329
ENCODING 809
SWIDTH 0 0
DWIDTH 0 0
BBX 2 7 -10 -9
BITMAP
C0
C0
C0
C0
C0
C0
C0
ENDCHAR
STARTCHAR 032A
ENCODING 810
SWIDTH 0 0
DWIDTH 0 0
BBX 10 6 -14 -7
BITMAP
FFC0
FFC0
E1C0
E1C0
E1C0
E1C0
ENDCHAR
STARTCHAR 032B
ENCODING 811
SWIDTH 0 0
DWIDTH 0 0
BBX 14 5 -16 -7
BITMAP
C30C
C70C
EFDC
7FF8
3CF0
ENDCHAR
STARTCHAR 032C
ENCODING 812
SWIDTH 0 0
DWIDTH 0 0
BBX 11 7 -15 -9
BITMAP
E0E0
60C0
31C0
3B80
1B00
1F00
0E00
ENDCHAR
STARTCHAR 032D
ENCODING 813
SWIDTH 0 0
DWIDTH 0 0
BBX 11 7 -15 -9
BITMAP
0E00
1F00
1B00
3B80
7180
60C0
E0E0
ENDCHAR
STARTCHAR 032E
ENCODING 814
SWIDTH 0 0
DWIDTH 0 0
BBX 11 6 -14 -8
BITMAP
C060
C0E0
E0E0
7FC0
3F80
1F00
ENDCHAR
STARTCHAR 032F
ENCODING 815
SWIDTH 0 0
DWIDTH 0 0
BBX 11 5 -15 -9
BITMAP
1F80
3FC0
7BE0
6060
E060
ENDCHAR
STARTCHAR 0330
ENCODING 816
SWIDTH 0 0
DWIDTH 0 0
BBX 12 5 -15 -8
BITMAP
3830
7E30
EF70
C7E0
C1C0
ENDCHAR
STARTCHAR 0331
ENCODING 817
SWIDTH 0 0
DWIDTH 0 0
BBX 11 3 -14 -6
BITMAP
FFE0
FFE0
FFE0
ENDCHAR
STARTCHAR 0332
ENCODING 818
SWIDTH 0 0
DWIDTH 0 0
BBX 18 3 -18 -8
BITMAP
FFFFC0
FFFFC0
FFFFC0
ENDCHAR
STARTCHAR 0333
ENCODING 819
SWIDTH 0 0
DWIDTH 0 0
BBX 18 9 -18 -8
BITMAP
FFFFC0
FFFFC0
FFFFC0
000000
000000
000000
FFFFC0
FFFFC0
FFFFC0
ENDCHAR
STARTCHAR 0334
ENCODING 820
SWIDTH 0 0
DWIDTH 0 0
BBX 19 5 -20 8
BITMAP
0E0020
7FC060
FFFFE0
E1FFC0
803F80
ENDCHAR
STARTCHAR 0335
ENCODING 821
SWIDTH 0 0
DWIDTH 0 0
BBX 9 3 -11 7
BITMAP
FF80
FF80
FF80
ENDCHAR
STARTCHAR 0336
ENCODING 822
SWIDTH 0 0
DWIDTH 0 0
BBX 23 3 -23 7
BITMAP
FFFFFE
FFFFFE
FFFFFE
ENDCHAR
STARTCHAR 0337
ENCODING 823
SWIDTH 0 0
DWIDTH 0 0
BBX 18 22 -20 -1
BITMAP
0000C0
0000C0
0001C0
000380
000700
000E00
000C00
001C00
003800
007000
00E000
01C000
018000
038000
070000
0E0000
1C0000
380000
300000
700000
E00000
C00000
ENDCHAR
STARTCHAR 0338
ENCODING 824
SWIDTH 0 0
DWIDTH 0 0
BBX 25 28 -27 -1
BITMAP
00000300
00000380
00000700
00000E00
00001C00
00003800
00007800
00007000
0000E000
0001C000
00038000
00070000
000E0000
001E0000
001C0000
00380000
00700000
00E00000
01C00000
03C00000
03800000
07000000
0E000000
1C000000
38000000
70000000
F0000000
60000000
ENDCHAR
STARTCHAR 0339
ENCODING 825
SWIDTH 0 0
DWIDTH 0 0
BBX 4 7 -11 -9
BITMAP
C0
E0
70
30
70
E0
C0
ENDCHAR
STARTCHAR 033A
ENCODING 826
SWIDTH 0 0
DWIDTH 0 0
BBX 10 5 -14 -7
BITMAP
E0C0
E0C0
E0C0
FFC0
FFC0
ENDCHAR
STARTCHAR 033B
ENCODING 827
SWIDTH 0 0
DWIDTH 0 0
BBX 8 8 -13 -8
BITMAP
FF
FF
C3
C3
C3
C3
FF
FF
ENDCHAR
STARTCHAR 033C
ENCODING 828
SWIDTH 0 0
DWIDTH 0 0
BBX 14 5 -16 -7
BITMAP
3CF0
7FF8
EF9C
C30C
C30C
ENDCHAR
STARTCHAR 033D
ENCODING 829
SWIDTH 0 0
DWIDTH 0 0
BBX 8 8 -13 23
BITMAP
42
E7
7E
3C
3C
7E
67
02
ENDCHAR
STARTCHAR 033E
ENCODING 830
SWIDTH 0 0
DWIDTH 0 0
BBX 5 10 -9 21
BITMAP
18
78
E0
C0
60
38
18
78
F0
80
ENDCHAR
STARTCHAR 033F
ENCODING 831
SWIDTH 0 0
DWIDTH 0 0
BBX 18 9 -18 19
BITMAP
FFFFC0
FFFFC0
FFFFC0
000000
000000
000000
FFFFC0
FFFFC0
FFFFC0
ENDCHAR
STARTCHAR 0340
ENCODING 832
SWIDTH 0 0
DWIDTH 0 0
BBX 8 7 -15 22
BITMAP
F0
70
38
1C
0C
0E
07
ENDCHAR
STARTCHAR 0341
ENCODING 833
SWIDTH 0 0
DWIDTH 0 0
BBX 8 7 -11 22
BITMAP
0F
0E
1C
38
38
70
E0
ENDCHAR
STARTCHAR 0342
ENCODING 834
SWIDTH 0 0
DWIDTH 0 0
BBX 12 5 -15 23
BITMAP
3830
7E30
EF70
C7E0
C1C0
ENDCHAR
STARTCHAR 0343
ENCODING 835
SWIDTH 0 0
DWIDTH 0 0
BBX 4 9 -11 22
BITMAP
F0
F0
F0
F0
30
30
F0
E0
80
ENDCHAR
STARTCHAR 0344
ENCODING 836
SWIDTH 0 0
DWIDTH 0 0
BBX 11 12 -14 23
BITMAP
01E0
01C0
0380
0700
0700
0E00
1C00
0000
F1E0
F1E0
F1E0
F1E0
ENDCHAR
STARTCHAR 0345
ENCODING 837
SWIDTH 0 0
DWIDTH 0 0
BBX 4 5 -10 -7
BITMAP
C0
C0
C0
C0
F0
ENDCHAR
STARTCHAR 0346
ENCODING 838
SWIDTH 0 0
DWIDTH 0 0
BBX 10 5 -14 24
BITMAP
FFC0
FFC0
C0C0
C0C0
C0C0
ENDCHAR
STARTCHAR 0347
ENCODING 839
SWIDTH 0 0
DWIDTH 0 0
BBX 8 7 -13 -9
BITMAP
FF
FF
00
00
00
FF
FF
ENDCHAR
STARTCHAR 0348
ENCODING 840
SWIDTH 0 0
DWIDTH 0 0
BBX 8 7 -13 -8
BITMAP
E7
E7
E7
E7
E7
E7
E7
ENDCHAR
STARTCHAR 0349
ENCODING 841
SWIDTH 0 0
DWIDTH 0 0
BBX 8 8 -13 -8
BITMAP
FF
FF
07
07
07
07
07
07
ENDCHAR
STARTCHAR 034A
ENCODING 842
SWIDTH 0 0
DWIDTH 0 0
BBX 12 7 -15 22
BITMAP
0180
3B30
7F70
6F60
EFE0
CDC0
1800
ENDCHAR
STARTCHAR 034B
ENCODING 843
SWIDTH 0 0
DWIDTH 0 0
BBX 12 11 -15 20
BITMAP
0380
0380
0380
0000
7C70
7FE0
E3E0
0000
1800
1800
1800
ENDCHAR
STARTCHAR 034C
ENCODING 844
SWIDTH 0 0
DWIDTH 0 0
BBX 12 8 -15 21
BITMAP
3830
7E30
C7E0
C3C0
3830
7E30
EFF0
C3E0
ENDCHAR
STARTCHAR 034D
ENCODING 845
SWIDTH 0 0
DWIDTH 0 0
BBX 14 7 -16 -9
BITMAP
3870
3030
6018
FFFC
FFFC
7038
3030
ENDCHAR
STARTCHAR 034E
ENCODING 846
SWIDTH 0 0
DWIDTH 0 0
BBX 8 7 -13 -8
BITMAP
18
3C
7E
DB
99
18
18
ENDCHAR
STARTCHAR 034F
ENCODING 847
SWIDTH 0 0
DWIDTH 0 0
BBX 0 0 0 0
BITMAP
ENDCHAR
STARTCHAR 0351
ENCODING 849
SWIDTH 0 0
DWIDTH 0 0
BBX 4 9 -11 22
BITMAP
70
F0
C0
C0
C0
C0
E0
70
30
ENDCHAR
STARTCHAR 0352
ENCODING 850
SWIDTH 0 0
DWIDTH 0 0
BBX 11 9 -15 20
BITMAP
1F00
3F80
7FC0
E0E0
C060
CF60
0F00
0F00
0F00
ENDCHAR
STARTCHAR 0353
ENCODING 851
SWIDTH 0 0
DWIDTH 0 0
BBX 8 8 -13 -8
BITMAP
42
E7
7E
3C
3C
7E
67
02
ENDCHAR
STARTCHAR 0357
ENCODING 855
SWIDTH 0 0
DWIDTH 0 0
BBX 4 9 -11 22
BITMAP
E0
F0
30
30
30
30
70
E0
C0
ENDCHAR
STARTCHAR 0358
ENCODING 856
SWIDTH 0 0
DWIDTH 0 0
BBX 4 4 -4 23
BITMAP
F0
F0
F0
F0
ENDCHAR
STARTCHAR 035A
ENCODING 858
SWIDTH 0 0
DWIDTH 0 0
BBX 12 8 -15 -9
BITMAP
39C0
FFF0
EF70
C630
C630
FFF0
7FE0
30C0
ENDCHAR
STARTCHAR 035C
ENCODING 860
SWIDTH 0 0
DWIDTH 0 0
BBX 33 6 -16 -9
BITMAP
8000000080
F800000F80
7FC001FF00
1FFFFFF800
03FFFFC000
001FFC0000
ENDCHAR
STARTCHAR 035D
ENCODING 861
SWIDTH 0 0
DWIDTH 0 0
BBX 33 6 -16 28
BITMAP
8000000080
F800000F80
7FC001FF00
1FFFFFF800
03FFFFC000
001FFC0000
ENDCHAR
STARTCHAR 035E
ENCODING 862
SWIDTH 0 0
DWIDTH 0 0
BBX 32 2 -16 31
BITMAP
FFFFFFFF
FFFFFFFF
ENDCHAR
STARTCHAR 035F
ENCODING 863
SWIDTH 0 0
DWIDTH 0 0
BBX 32 3 -16 -6
BITMAP
FFFFFFFF
FFFFFFFF
FFFFFFFF
ENDCHAR
STARTCHAR 0360
ENCODING 864
SWIDTH 0 0
DWIDTH 0 0
BBX 26 5 -13 28
BITMAP
1FF001C0
3FFE0380
783FFF80
F00FFF00
E001F800
ENDCHAR
STARTCHAR 0361
ENCODING 865
SWIDTH 0 0
DWIDTH 0 0
BBX 33 6 -16 28
BITMAP
001FFC0000
03FFFFC000
0FFFFFF800
7FC001FF00
F800000F80
8000000080
ENDCHAR
STARTCHAR 0362
ENCODING 866
SWIDTH 0 0
DWIDTH 0 0
BBX 32 7 -16 -9
BITMAP
00000018
0000000C
00000006
FFFFFFFF
FFFFFFFE
0000000E
0000001C
ENDCHAR
STARTCHAR 0370
ENCODING 880
SWIDTH 666 0
DWIDTH 24 0
BBX 16 26 4 1
BITMAP
E000
E000
E000
E000
E000
E000
E000
E000
E000
E000
E000
FFFF
FFFF
E000
E000
E000
E000
E000
E000
E000
E000
E000
E000
E000
E000
E000
ENDCHAR
STARTCHAR 0371
ENCODING 881
SWIDTH 555 0
DWIDTH 20 0
BBX 14 20 3 0
BITMAP
F000
F000
F000
F000
F000
F000
F000
F000
FFFC
FFFC
FFFC
F000
F000
F000
F000
F000
F000
F000
F000
F000
ENDCHAR
STARTCHAR 0372
ENCODING 882
SWIDTH 861 0
DWIDTH 31 0
BBX 24 26 4 1
BITMAP
FFFFFF
FFFFFF
FFFFFF
E0380F
E0380F
E0380F
E0380F
E0380F
E0380F
E0380F
E0380F
E0380F
E0380F
003800
003800
003800
003800
003800
003800
003800
003800
003800
003800
003800
003800
003800
ENDCHAR
STARTCHAR 0373
ENCODING 883
SWIDTH 638 0
DWIDTH 23 0
BBX 16 26 4 1
BITMAP
FFFF
FFFF
FFFF
E387
E387
E387
E387
E387
E387
E387
E387
E387
E387
0380
0380
0380
0380
0380
0380
0380
0380
0380
0380
0380
0380
0380
ENDCHAR
STARTCHAR 0374
ENCODING 884
SWIDTH 277 0
DWIDTH 10 0
BBX 4 9 3 20
BITMAP
70
70
70
60
E0
E0
E0
E0
C0
ENDCHAR
STARTCHAR 0375
ENCODING 885
SWIDTH 277 0
DWIDTH 10 0
BBX 4 9 3 -8
BITMAP
30
70
70
70
70
60
E0
E0
E0
ENDCHAR
STARTCHAR 0376
ENCODING 886
SWIDTH 750 0
DWIDTH 27 0
BBX 20 26 3 0
BITMAP
F003F0
F003F0
F007F0
F007F0
F00FF0
F00FF0
F01FF0
F01EF0
F03EF0
F07CF0
F07CF0
F0F8F0
F0F8F0
F1F0F0
F1E0F0
F3E0F0
F3C0F0
F7C0F0
F780F0
FF80F0
FF00F0
FF00F0
FE00F0
FE00F0
FC00F0
FC00F0
ENDCHAR
STARTCHAR 0377
ENCODING 887
SWIDTH 638 0
DWIDTH 23 0
BBX 17 20 3 0
BITMAP
F00F80
F01F80
F01F80
F03F80
F07F80
F07F80
F0FF80
F1F780
F1F780
F3E780
F7C780
F7C780
FF8780
FF8780
FF0780
FE0780
FE0780
FC0780
FC0780
F80780
ENDCHAR
STARTCHAR 037A
ENCODING 890
SWIDTH 500 0
DWIDTH 18 0
BBX 4 5 8 -7
BITMAP
C0
C0
C0
C0
F0
ENDCHAR
STARTCHAR 037B
ENCODING 891
SWIDTH 555 0
DWIDTH 20 0
BBX 16 20 2 0
BITMAP
3F80
FFF0
FFF8
C0FC
003E
001E
001F
000F
000F
000F
000F
000F
000F
001F
001E
003E
C0FC
FFF8
FFF0
3FC0
ENDCHAR
STARTCHAR 037C
ENCODING 892
SWIDTH 555 0
DWIDTH 20 0
BBX 16 20 2 0
BITMAP
01F8
0FFE
1FFF
3F07
7C01
7800
F800
F0F0
F0F0
F0F0
F0F0
F000
F000
F800
7800
7C01
3F07
1FFF
0FFE
03F8
ENDCHAR
STARTCHAR 037D
ENCODING 893
SWIDTH 555 0
DWIDTH 20 0
BBX 16 20 2 0
BITMAP
3F80
FFF0
FFF8
C0FC
003E
001E
001F
078F
078F
078F
078F
000F
000F
001F
001E
003E
C0FC
FFF8
FFF0
3FC0
ENDCHAR
STARTCHAR 037E
ENCODING 894
SWIDTH 333 0
DWIDTH 12 0
BBX 5 24 3 -5
BITMAP
78
78
78
78
00
00
00
00
00
00
00
00
00
00
00
78
78
78
78
70
70
E0
E0
C0
ENDCHAR
STARTCHAR 0384
ENCODING 900
SWIDTH 500 0
DWIDTH 18 0
BBX 8 7 7 22
BITMAP
0F
0E
1C
38
38
70
E0
ENDCHAR
STARTCHAR 0385
ENCODING 901
SWIDTH 500 0
DWIDTH 18 0
BBX 11 12 4 23
BITMAP
01E0
01C0
0380
0700
0700
0E00
1C00
0000
F1E0
F1E0
F1E0
F1E0
ENDCHAR
STARTCHAR 0386
ENCODING 902
SWIDTH 694 0
DWIDTH 25 0
BBX 24 29 0 0
BITMAP
03C000
038000
070000
0E3C00
0E7E00
1C7E00
387E00
00FF00
00FF00
01FF80
01E780
01E780
03E7C0
03C3C0
03C3C0
07C1E0
0781E0
0F81F0
0F00F0
0FFFF0
1FFFF8
1FFFF8
3E0078
3C003C
3C003C
7C003E
78001E
78001E
F0000F
ENDCHAR
STARTCHAR 0387
ENCODING 903
SWIDTH 305 0
DWIDTH 11 0
BBX 4 4 4 11
BITMAP
F0
F0
F0
F0
ENDCHAR
STARTCHAR 0388
ENCODING 904
SWIDTH 750 0
DWIDTH 27 0
BBX 24 29 0 0
BITMAP
0F0000
0E0000
1C0000
39FFFF
39FFFF
71FFFF
E1E000
01E000
01E000
01E000
01E000
01E000
01E000
01E000
01FFFE
01FFFE
01FFFE
01E000
01E000
01E000
01E000
01E000
01E000
01E000
01E000
01E000
01FFFF
01FFFF
01FFFF
ENDCHAR
STARTCHAR 0389
ENCODING 905
SWIDTH 861 0
DWIDTH 31 0
BBX 27 29 0 0
BITMAP
0F000000
0E000000
1C000000
39E001E0
39E001E0
71E001E0
E1E001E0
01E001E0
01E001E0
01E001E0
01E001E0
01E001E0
01E001E0
01E001E0
01FFFFE0
01FFFFE0
01FFFFE0
01E001E0
01E001E0
01E001E0
01E001E0
01E001E0
01E001E0
01E001E0
01E001E0
01E001E0
01E001E0
01E001E0
01E001E0
ENDCHAR
STARTCHAR 038A
ENCODING 906
SWIDTH 416 0
DWIDTH 15 0
BBX 11 29 0 0
BITMAP
0F00
0E00
1C00
39E0
39E0
71E0
E1E0
01E0
01E0
01E0
01E0
01E0
01E0
01E0
01E0
01E0
01E0
01E0
01E0
01E0
01E0
01E0
01E0
01E0
01E0
01E0
01E0
01E0
01E0
ENDCHAR
STARTCHAR 038C
ENCODING 908
SWIDTH 805 0
DWIDTH 29 0
BBX 27 29 0 0
BITMAP
0F000000
0E000000
1C000000
381FE000
387FF800
71FFFE00
E3F03F00
07C00F00
07800780
0F8007C0
0F0003C0
0F0003C0
1E0001E0
1E0001E0
1E0001E0
1E0001E0
1E0001E0
1E0001E0
1E0001E0
1E0001E0
0F0003C0
0F0003C0
0F8007C0
07800780
07C00F80
03F03F00
01FFFE00
007FF800
001FE000
ENDCHAR
STARTCHAR 038E
ENCODING 910
SWIDTH 833 0
DWIDTH 30 0
BBX 29 29 0 0
BITMAP
0F000000
0E000000
1C000000
39F000F8
38F801F0
707801E0
E07C03E0
003E07C0
001E0780
001F0F80
000F9F00
00079E00
0007FE00
0003FC00
0001F800
0001F800
0000F000
0000F000
0000F000
0000F000
0000F000
0000F000
0000F000
0000F000
0000F000
0000F000
0000F000
0000F000
0000F000
ENDCHAR
STARTCHAR 038F
ENCODING 911
SWIDTH 833 0
DWIDTH 30 0
BBX 27 29 0 0
BITMAP
0F000000
0E000000
1C000000
381FE000
387FF800
71FFFE00
E3F03F00
07C00F80
07800780
0F0003C0
0F0003C0
1F0003E0
1E0001E0
1E0001E0
1E0001E0
1E0001E0
1E0001E0
1E0001E0
1E0001E0
0F0003C0
0F0003C0
0F8007C0
07C00F80
03C01F00
01F03E00
00F87C00
1FFCFFE0
1FFCFFE0
1FFCFFE0
ENDCHAR
STARTCHAR 0390
ENCODING 912
SWIDTH 361 0
DWIDTH 13 0
BBX 12 35 0 0
BITMAP
01E0
01C0
0380
0700
0700
0E00
1C00
0000
F1E0
F1E0
F1E0
F1E0
0000
0000
0000
1E00
1E00
1E00
1E00
1E00
1E00
1E00
1E00
1E00
1E00
1E00
1E00
1E00
1E00
1E00
1E00
0F00
0FF0
07F0
01F0
ENDCHAR
STARTCHAR 0391
ENCODING 913
SWIDTH 694 0
DWIDTH 25 0
BBX 24 26 0 0
BITMAP
003C00
007E00
007E00
007E00
00FF00
00FF00
01FF80
01E780
01E780
03E7C0
03C3C0
03C3C0
07C1E0
0781E0
0F81F0
0F00F0
0FFFF0
1FFFF8
1FFFF8
3E0078
3C003C
3C003C
7C003E
78001E
78001E
F0000F
ENDCHAR
STARTCHAR 0392
ENCODING 914
SWIDTH 694 0
DWIDTH 25 0
BBX 19 26 3 0
BITMAP
FFF800
FFFE00
FFFF80
F00F80
F007C0
F003C0
F003C0
F003C0
F003C0
F00780
F00F80
FFFF00
FFFC00
FFFF00
F00780
F003C0
F001E0
F001E0
F001E0
F001E0
F001E0
F003E0
F007C0
FFFF80
FFFF00
FFFC00
ENDCHAR
STARTCHAR 0393
ENCODING 915
SWIDTH 555 0
DWIDTH 20 0
BBX 17 26 3 0
BITMAP
FFFF80
FFFF80
FFFF80
F00000
F00000
F00000
F00000
F00000
F00000
F00000
F00000
F00000
F00000
F00000
F00000
F00000
F00000
F00000
F00000
F00000
F00000
F00000
F00000
F00000
F00000
F00000
ENDCHAR
STARTCHAR 0394
ENCODING 916
SWIDTH 666 0
DWIDTH 24 0
BBX 24 26 0 0
BITMAP
003C00
007E00
007E00
007E00
00FF00
00FF00
01FF80
01E780
01E780
03E7C0
03C3C0
03C3C0
0781E0
0781E0
0F81F0
0F00F0
0F00F0
1F00F8
1E0078
3E0078
3C003C
3C003C
7C003E
7FFFFE
7FFFFE
FFFFFF
ENDCHAR
STARTCHAR 0395
ENCODING 917
SWIDTH 638 0
DWIDTH 23 0
BBX 17 26 3 0
BITMAP
FFFF80
FFFF80
FFFF80
F00000
F00000
F00000
F00000
F00000
F00000
F00000
F00000
FFFF00
FFFF00
FFFF00
F00000
F00000
F00000
F00000
F00000
F00000
F00000
F00000
F00000
FFFF80
FFFF80
FFFF80
ENDCHAR
STARTCHAR 0396
ENCODING 918
SWIDTH 694 0
DWIDTH 25 0
BBX 21 26 2 0
BITMAP
FFFFF0
FFFFF0
FFFFF0
0003E0
0003E0
0007C0
000F80
001F00
001F00
003E00
007C00
007C00
00F800
01F000
03E000
03E000
07C000
0F8000
1F0000
1F0000
3E0000
7C0000
7C0000
FFFFF8
FFFFF8
FFFFF8
ENDCHAR
STARTCHAR 0397
ENCODING 919
SWIDTH 750 0
DWIDTH 27 0
BBX 20 26 3 0
BITMAP
F000F0
F000F0
F000F0
F000F0
F000F0
F000F0
F000F0
F000F0
F000F0
F000F0
F000F0
FFFFF0
FFFFF0
FFFFF0
F000F0
F000F0
F000F0
F000F0
F000F0
F000F0
F000F0
F000F0
F000F0
F000F0
F000F0
F000F0
ENDCHAR
STARTCHAR 0398
ENCODING 920
SWIDTH 777 0
DWIDTH 28 0
BBX 24 26 2 0
BITMAP
00FF00
03FFC0
0FFFF0
1F81F8
3E0078
3C003C
7C003E
78001E
78001E
F0000F
F0000F
F3FFCF
F3FFCF
F3FFCF
F0000F
F0000F
F0000F
78001E
78001E
7C003E
3C003C
3E007C
1F81F8
0FFFF0
03FFC0
00FF00
ENDCHAR
STARTCHAR 0399
ENCODING 921
SWIDTH 305 0
DWIDTH 11 0
BBX 4 26 3 0
BITMAP
F0
F0
F0
F0
F0
F0
F0
F0
F0
F0
F0
F0
F0
F0
F0
F0
F0
F0
F0
F0
F0
F0
F0
F0
F0
F0
ENDCHAR
STARTCHAR 039A
ENCODING 922
SWIDTH 666 0
DWIDTH 24 0
BBX 21 26 3 0
BITMAP
F003E0
F007C0
F00F80
F03F00
F07E00
F0FC00
F1F800
F3F000
F7E000
FFC000
FF8000
FF0000
FF0000
FF8000
FFC000
F7E000
F3F000
F1F800
F0FC00
F07E00
F03F00
F01F80
F00FC0
F007E0
F003F0
F001F8
ENDCHAR
STARTCHAR 039B
ENCODING 923
SWIDTH 666 0
DWIDTH 24 0
BBX 24 26 0 0
BITMAP
003C00
007E00
007E00
007E00
00FF00
00FF00
01FF80
01E780
01E780
03E7C0
03C3C0
03C3C0
07C1E0
0781E0
0F81F0
0F00F0
0F00F0
1F00F8
1E0078
3E0078
3C003C
3C003C
7C003E
78001E
78001E
F8000F
ENDCHAR
STARTCHAR 039C
ENCODING 924
SWIDTH 861 0
DWIDTH 31 0
BBX 24 26 3 0
BITMAP
FE007F
FF00FF
FF00FF
FF00FF
FF81FF
F781EF
F781EF
F3C3CF
F3C3CF
F3C7CF
F1E78F
F1E78F
F1FF8F
F0FF0F
F0FF0F
F0FF0F
F07E0F
F07E0F
F07E0F
F03C0F
F03C0F
F0000F
F0000F
F0000F
F0000F
F0000F
ENDCHAR
STARTCHAR 039D
ENCODING 925
SWIDTH 750 0
DWIDTH 27 0
BBX 20 26 3 0
BITMAP
FC00F0
FC00F0
FE00F0
FE00F0
FF00F0
FF00F0
FF80F0
F780F0
F7C0F0
F3C0F0
F3E0F0
F1F0F0
F1F0F0
F0F8F0
F078F0
F07CF0
F03CF0
F03EF0
F01EF0
F01FF0
F00FF0
F00FF0
F007F0
F007F0
F003F0
F003F0
ENDCHAR
STARTCHAR 039E
ENCODING 926
SWIDTH 611 0
DWIDTH 22 0
BBX 16 26 3 0
BITMAP
FFFF
FFFF
FFFF
0000
0000
0000
0000
0000
0000
0000
0000
3FFC
3FFC
3FFC
0000
0000
0000
0000
0000
0000
0000
0000
0000
FFFF
FFFF
FFFF
ENDCHAR
STARTCHAR 039F
ENCODING 927
SWIDTH 777 0
DWIDTH 28 0
BBX 24 26 2 0
BITMAP
00FF00
03FFC0
0FFFF0
1F81F8
3E0078
3C003C
7C003E
78001E
78001E
F0000F
F0000F
F0000F
F0000F
F0000F
F0000F
F0000F
F0000F
78001E
78001E
7C003E
3C003C
3E007C
1F81F8
0FFFF0
03FFC0
00FF00
ENDCHAR
STARTCHAR 03A0
ENCODING 928
SWIDTH 722 0
DWIDTH 26 0
BBX 20 26 3 0
BITMAP
FFFFF0
FFFFF0
FFFFF0
F000F0
F000F0
F000F0
F000F0
F000F0
F000F0
F000F0
F000F0
F000F0
F000F0
F000F0
F000F0
F000F0
F000F0
F000F0
F000F0
F000F0
F000F0
F000F0
F000F0
F000F0
F000F0
F000F0
ENDCHAR
STARTCHAR 03A1
ENCODING 929
SWIDTH 611 0
DWIDTH 22 0
BBX 17 26 3 0
BITMAP
FFF000
FFFC00
FFFE00
F01F00
F00F00
F00780
F00780
F00780
F00780
F00780
F00780
F00F00
F01F00
FFFE00
FFFC00
FFF000
F00000
F00000
F00000
F00000
F00000
F00000
F00000
F00000
F00000
F00000
ENDCHAR
STARTCHAR 03A3
ENCODING 931
SWIDTH 638 0
DWIDTH 23 0
BBX 17 26 3 0
BITMAP
FFFF80
FFFF80
FFFF80
FC0000
7E0000
3F0000
1F8000
0FC000
07C000
03E000
01F000
00F800
00F800
01F000
01F000
03E000
07C000
0F8000
1F8000
1F0000
3E0000
7C0000
F80000
FFFF80
FFFF80
FFFF80
ENDCHAR
STARTCHAR 03A4
ENCODING 932
SWIDTH 611 0
DWIDTH 22 0
BBX 22 26 0 0
BITMAP
FFFFFC
FFFFFC
FFFFFC
007800
007800
007800
007800
007800
007800
007800
007800
007800
007800
007800
007800
007800
007800
007800
007800
007800
007800
007800
007800
007800
007800
007800
ENDCHAR
STARTCHAR 03A5
ENCODING 933
SWIDTH 611 0
DWIDTH 22 0
BBX 22 26 0 0
BITMAP
F8007C
7C00F8
3C00F0
3E01F0
1F03E0
0F03C0
0F87C0
07CF80
03CF00
03FF00
01FE00
00FC00
00FC00
007800
007800
007800
007800
007800
007800
007800
007800
007800
007800
007800
007800
007800
ENDCHAR
STARTCHAR 03A6
ENCODING 934
SWIDTH 777 0
DWIDTH 28 0
BBX 24 26 2 0
BITMAP
003C00
003C00
003C00
01FF80
07FFE0
1FFFF8
3F3CFC
3C3C3C
783C1E
783C1E
F03C0F
F03C0F
F03C0F
F03C0F
F03C0F
F03C0F
783C1E
783C1E
7C3C3C
3F3CFC
1FFFF8
07FFE0
01FF80
003C00
003C00
003C00
ENDCHAR
STARTCHAR 03A7
ENCODING 935
SWIDTH 666 0
DWIDTH 24 0
BBX 22 26 1 0
BITMAP
7C00F8
3E01F0
1E01E0
1F03E0
0F87C0
0F87C0
07CF80
03CF00
03FF00
01FE00
00FC00
00FC00
00FC00
00FC00
01FE00
01FE00
03FF00
07CF80
078F80
0F87C0
1F03E0
1F03E0
3E01F0
3C00F0
7C00F8
F8007C
ENDCHAR
STARTCHAR 03A8
ENCODING 936
SWIDTH 777 0
DWIDTH 28 0
BBX 24 26 2 0
BITMAP
F03C0F
F03C0F
F03C0F
F03C0F
F03C0F
F03C0F
F03C0F
F03C0F
F03C0F
F03C0F
F03C0F
F03C0F
783C1E
783C1E
7C3C3E
3C3C3C
1E3C78
1F3CF8
0FFFF0
03FFC0
01FF80
003C00
003C00
003C00
003C00
003C00
ENDCHAR
STARTCHAR 03A9
ENCODING 937
SWIDTH 777 0
DWIDTH 28 0
BBX 24 26 2 0
BITMAP
00FF00
03FFC0
0FFFF0
1F81F8
3E007C
3C003C
78001E
78001E
F8001F
F0000F
F0000F
F0000F
F0000F
F0000F
F0000F
F0000F
78001E
78001E
7C003E
3E007C
1E00F8
0F81F0
07C3E0
FFE7FF
FFE7FF
FFE7FF
ENDCHAR
STARTCHAR 03AA
ENCODING 938
SWIDTH 305 0
DWIDTH 11 0
BBX 10 34 0 0
BITMAP
F3C0
F3C0
F3C0
F3C0
0000
0000
0000
0000
1E00
1E00
1E00
1E00
1E00
1E00
1E00
1E00
1E00
1E00
1E00
1E00
1E00
1E00
1E00
1E00
1E00
1E00
1E00
1E00
1E00
1E00
1E00
1E00
1E00
1E00
ENDCHAR
STARTCHAR 03AB
ENCODING 939
SWIDTH 611 0
DWIDTH 22 0
BBX 22 34 0 0
BITMAP
03CF00
03CF00
03CF00
03CF00
000000
000000
000000
000000
F8007C
7C00F8
3C00F0
3E01F0
1F03E0
0F03C0
0F87C0
07CF80
03CF00
03FF00
01FE00
00FC00
00FC00
007800
007800
007800
007800
007800
007800
007800
007800
007800
007800
007800
007800
007800
ENDCHAR
STARTCHAR 03AC
ENCODING 940
SWIDTH 666 0
DWIDTH 24 0
BBX 20 29 2 0
BITMAP
001E00
001C00
003800
007000
007000
00E000
01C000
000000
000000
07F1E0
1FFFE0
3FFFC0
7C7FC0
783FC0
781F80
F01F80
F01F80
F01F80
F00F00
F00F00
F01F00
F01F00
F01F00
783F80
783F80
7C7FC0
3FFFF0
1FFFF0
07F3F0
ENDCHAR
STARTCHAR 03AD
ENCODING 941
SWIDTH 527 0
DWIDTH 19 0
BBX 15 29 2 0
BITMAP
003C
0038
0070
00E0
00E0
01C0
0380
0000
0000
07F0
1FFC
3FFC
7E0C
7800
7800
7800
3C00
1FE0
0FE0
3FE0
7C00
F000
F000
F000
F800
7C02
7FFE
3FFE
07F8
ENDCHAR
STARTCHAR 03AE
ENCODING 942
SWIDTH 611 0
DWIDTH 22 0
BBX 16 36 3 -7
BITMAP
001E
001C
0038
0070
0070
00E0
01C0
0000
0000
F1F0
F3FC
F7FE
FE3E
F81F
F80F
F00F
F00F
F00F
F00F
F00F
F00F
F00F
F00F
F00F
F00F
F00F
F00F
F00F
F00F
000F
000F
000F
000F
000F
000F
000F
ENDCHAR
STARTCHAR 03AF
ENCODING 943
SWIDTH 361 0
DWIDTH 13 0
BBX 9 29 3 0
BITMAP
0780
0700
0E00
1C00
1C00
3800
7000
0000
0000
F000
F000
F000
F000
F000
F000
F000
F000
F000
F000
F000
F000
F000
F000
F000
F000
7800
7F80
3F80
0F80
ENDCHAR
STARTCHAR 03B0
ENCODING 944
SWIDTH 583 0
DWIDTH 21 0
BBX 16 36 3 -2
BITMAP
00F0
00E0
01C0
0380
0380
0700
0E00
0000
78F0
78F0
78F0
78F0
0000
0000
0000
0000
F038
F03C
F01C
F01E
F00E
F00F
F00F
F00F
F00F
F00F
F00F
F01F
F01E
F01E
F03E
F83C
7878
7FF8
3FE0
0FC0
ENDCHAR
STARTCHAR 03B1
ENCODING 945
SWIDTH 666 0
DWIDTH 24 0
BBX 20 20 2 0
BITMAP
07F1E0
1FFFE0
3FFFC0
7C7FC0
783FC0
781F80
F01F80
F01F80
F01F80
F00F00
F00F00
F01F00
F01F00
F01F00
783F80
783F80
7C7FC0
3FFFF0
1FFFF0
07F3F0
ENDCHAR
STARTCHAR 03B2
ENCODING 946
SWIDTH 611 0
DWIDTH 22 0
BBX 17 35 3 -7
BITMAP
0FE000
3FF800
7FFC00
7C3C00
F81E00
F01E00
F01E00
F01E00
F01E00
F03E00
F03C00
F07C00
F3F800
F3F800
F3FE00
F03F00
F00F00
F00780
F00780
F00780
F00780
F00780
F00780
F80F00
FC1F00
FFFE00
FFFC00
F3F000
F00000
F00000
F00000
F00000
F00000
F00000
F00000
ENDCHAR
STARTCHAR 03B3
ENCODING 947
SWIDTH 583 0
DWIDTH 21 0
BBX 19 27 1 -7
BITMAP
F001E0
F803C0
FC03C0
3E03C0
1E0780
1E0780
0F0F80
0F0F00
0F0F00
079F00
079E00
079E00
03FE00
03FC00
03FC00
01FC00
01F800
01F800
00F800
00F000
00F000
00F000
00F000
00F000
00F000
00F000
00F000
ENDCHAR
STARTCHAR 03B4
ENCODING 948
SWIDTH 611 0
DWIDTH 22 0
BBX 18 27 2 0
BITMAP
03FE00
0FFF00
1FFF00
3E0100
3C0000
3C0000
3E0000
1FE000
0FF800
0FFE00
3C3F00
380F80
780780
7007C0
F003C0
F003C0
F003C0
F003C0
F003C0
F003C0
F807C0
780780
7C0F80
3E1F00
1FFE00
0FFC00
03F000
ENDCHAR
STARTCHAR 03B5
ENCODING 949
SWIDTH 527 0
DWIDTH 19 0
BBX 15 20 2 0
BITMAP
07F0
1FFC
3FFC
7E0C
7800
7800
7800
3C00
1FE0
0FE0
3FE0
7C00
F000
F000
F000
F800
7C02
7FFE
3FFE
07F8
ENDCHAR
STARTCHAR 03B6
ENCODING 950
SWIDTH 555 0
DWIDTH 20 0
BBX 16 34 2 -7
BITMAP
7FFF
7FFF
7FFF
003E
00F8
01F0
07C0
0F80
1F00
1E00
3C00
7C00
7800
7800
F000
F000
F000
F000
F000
F000
F800
7800
7C00
3F00
3FF8
0FFE
03FE
001F
000F
000F
001F
007E
007C
0070
ENDCHAR
STARTCHAR 03B7
ENCODING 951
SWIDTH 611 0
DWIDTH 22 0
BBX 16 27 3 -7
BITMAP
F1F0
F3FC
F7FE
FE3E
F81F
F80F
F00F
F00F
F00F
F00F
F00F
F00F
F00F
F00F
F00F
F00F
F00F
F00F
F00F
F00F
000F
000F
000F
000F
000F
000F
000F
ENDCHAR
ENDFONT
